M48
; Layer: Drill_PTH_Through
METRIC,TZ
T1C0.950
T2C3.200
T3C0.800
T4C0.400
%
G05
G90
T1
X116110Y102660
X116110Y105200
X116110Y107740
X116110Y110280
X116110Y112820
X116110Y115360
X116110Y117900
X116110Y120440
X133890Y102660
X133890Y105200
X133890Y107740
X133890Y110280
X133890Y112820
X133890Y115360
X133890Y117900
X133890Y120440
X109000Y144000
X111540Y144000
X114080Y144000
X116620Y144000
X119160Y144000
X130840Y144000
X133380Y144000
X135920Y144000
X138460Y144000
X141000Y144000
X108500Y112000
X108500Y114540
X108500Y117080
X108500Y119620
X108500Y122160
X108500Y124700
X108500Y127240
X108500Y129780
X141500Y115000
X141500Y117540
X141500Y120080
X141500Y122620
X141500Y125160
T2
X103500Y103500
X146500Y103500
X103500Y146500
X146500Y146500
T3
X124000Y146500
X126000Y146500
T4
X136500Y127000
M30
