M48
; DRILL file
; FORMAT={4:4}/ absolute / metric / keep zeros
METRIC,TZ
T1C3.200
T2C0.950
T3C0.800
T4C0.400
%
G90
G05
T1
X1035000Y1035000
X1465000Y1035000
X1035000Y1465000
X1465000Y1465000
T2
X1161100Y1026600
X1161100Y1052000
X1161100Y1077400
X1161100Y1102800
X1161100Y1128200
X1161100Y1153600
X1161100Y1179000
X1161100Y1204400
X1338900Y1026600
X1338900Y1052000
X1338900Y1077400
X1338900Y1102800
X1338900Y1128200
X1338900Y1153600
X1338900Y1179000
X1338900Y1204400
X1376700Y1232000
X1402100Y1232000
X1427500Y1232000
X1452900Y1232000
X1478300Y1232000
X1023300Y1095000
X1048700Y1095000
X1074100Y1095000
X1099500Y1095000
X1124900Y1095000
X1081700Y1275000
X1107100Y1275000
X1132500Y1275000
X1157900Y1275000
X1183300Y1275000
X1295600Y1275000
X1321000Y1275000
X1346400Y1275000
X1371800Y1275000
X1397200Y1275000
X1422600Y1275000
X1448000Y1275000
X1473400Y1275000
T3
X1220000Y1465000
X1240000Y1465000
T4
X1235000Y1250000
X1265000Y1250000
M30
