G04 Layer: BottomSolderMaskLayer*
G04 CarrierBoard_BeetleC6_EdgeUSB_50x50 Production Release v3*
G04 USB-C Port Flush to Bottom PCB Edge (Y=100.0mm)*
%FSLAX45Y45*%
%MOMM*%
%LPD*%
G01*
G75*
%ADD10C,1.800*%
%ADD11R,1.800X1.800*%
%ADD12C,5.700*%
%ADD14R,1.200X1.700*%
%ADD15R,1.000X1.000*%
D12*
X10350000Y10350000D03*
D12*
X14650000Y10350000D03*
D12*
X10350000Y14650000D03*
D12*
X14650000Y14650000D03*
D11*
X11611000Y10266000D03*
D10*
X11611000Y10520000D03*
D10*
X11611000Y10774000D03*
D10*
X11611000Y11028000D03*
D10*
X11611000Y11282000D03*
D10*
X11611000Y11536000D03*
D10*
X11611000Y11790000D03*
D10*
X11611000Y12044000D03*
D11*
X13389000Y10266000D03*
D10*
X13389000Y10520000D03*
D10*
X13389000Y10774000D03*
D10*
X13389000Y11028000D03*
D10*
X13389000Y11282000D03*
D10*
X13389000Y11536000D03*
D10*
X13389000Y11790000D03*
D10*
X13389000Y12044000D03*
D11*
X10900000Y14400000D03*
D10*
X11154000Y14400000D03*
D10*
X11408000Y14400000D03*
D10*
X11662000Y14400000D03*
D10*
X11916000Y14400000D03*
D10*
X13084000Y14400000D03*
D10*
X13338000Y14400000D03*
D10*
X13592000Y14400000D03*
D10*
X13846000Y14400000D03*
D11*
X14100000Y14400000D03*
D10*
X10850000Y11200000D03*
D10*
X10850000Y11454000D03*
D10*
X10850000Y11708000D03*
D10*
X10850000Y11962000D03*
D10*
X10850000Y12216000D03*
D10*
X10850000Y12470000D03*
D10*
X10850000Y12724000D03*
D11*
X10850000Y12978000D03*
D10*
X14150000Y11500000D03*
D10*
X14150000Y11754000D03*
D10*
X14150000Y12008000D03*
D10*
X14150000Y12262000D03*
D11*
X14150000Y12516000D03*
D11*
X12400000Y14650000D03*
D10*
X12600000Y14650000D03*
M02*
