G04 Layer: TopSilkscreenLayer*
G04 CarrierBoard_BeetleC6_EdgeUSB_50x50 Production Release v3*
G04 USB-C Port Flush to Bottom PCB Edge (Y=100.0mm)*
%FSLAX45Y45*%
%MOMM*%
%LPD*%
G01*
G75*
%ADD10C,0.150*%
%ADD11C,0.100*%
D10*
G01X11450000Y10100000D02*
G01X13550000Y10100000D01*
G01X13550000Y12250000D01*
G01X11450000Y12250000D01*
G01X11450000Y10100000D01*
D11*
G01X11475000Y10000000D02*
G01X13525000Y10000000D01*
G01X13525000Y12500000D01*
G01X11475000Y12500000D01*
G01X11475000Y10000000D01*
D10*
G01X12050000Y10000000D02*
G01X12050000Y10350000D01*
G01X12950000Y10350000D01*
G01X12950000Y10000000D01*
D10*
G01X10750000Y14250000D02*
G01X12050000Y14250000D01*
G01X12050000Y14550000D01*
G01X10750000Y14550000D01*
G01X10750000Y14250000D01*
D11*
G01X10750000Y13350000D02*
G01X12050000Y13350000D01*
G01X12050000Y14550000D01*
G01X10750000Y14550000D01*
G01X10750000Y13350000D01*
D10*
G01X12950000Y14250000D02*
G01X14250000Y14250000D01*
G01X14250000Y14550000D01*
G01X12950000Y14550000D01*
G01X12950000Y14250000D01*
D11*
G01X12950000Y13350000D02*
G01X14250000Y13350000D01*
G01X14250000Y14550000D01*
G01X12950000Y14550000D01*
G01X12950000Y13350000D01*
D10*
G01X12200000Y14400000D02*
G01X12800000Y14400000D01*
G01X12800000Y14850000D01*
G01X12200000Y14850000D01*
G01X12200000Y14400000D01*
D10*
G01X12150000Y14650000D02*
G01X12300000Y14650000D01*
G01X12225000Y14575000D02*
G01X12225000Y14725000D01*
G01X12700000Y14650000D02*
G01X12850000Y14650000D01*
D10*
G01X12150000Y13650000D02*
G01X12850000Y13650000D01*
G01X12850000Y14050000D01*
G01X12150000Y14050000D01*
G01X12150000Y13650000D01*
D11*
G01X12050000Y13020000D02*
G01X12350000Y13020000D01*
G01X12350000Y13180000D01*
G01X12050000Y13180000D01*
G01X12050000Y13020000D01*
D11*
G01X12650000Y13020000D02*
G01X12950000Y13020000D01*
G01X12950000Y13180000D01*
G01X12650000Y13180000D01*
G01X12650000Y13020000D01*
M02*
