G04 Layer: BottomSolderMaskLayer*
%FSLAX45Y45*%
%MOMM*%
%LPD*%
G01*
G75*
%ADD10C,5.600*%
%ADD11C,1.700*%
%ADD12R,1.700X1.700*%
%ADD15C,0.900*%

G04 Mounting Holes*
D10*
G01X10350000Y10350000D03*
G01X14650000Y10350000D03*
G01X10350000Y14650000D03*
G01X14650000Y14650000D03*

G04 Rect Pin 1s*
D12*
G01X11611000Y10266000D03*
G01X13389000Y10266000D03*
G01X13767000Y12320000D03*
G01X10233000Y10950000D03*
G01X12200000Y14650000D03*
G01X10817000Y12750000D03*
G01X12956000Y12750000D03*

G04 Circular THT Pads*
D11*
G01X12400000Y14650000D03*
G01X11611000Y10520000D03*
G01X11611000Y10774000D03*
G01X11611000Y11028000D03*
G01X11611000Y11282000D03*
G01X11611000Y11536000D03*
G01X11611000Y11790000D03*
G01X11611000Y12044000D03*
G01X13389000Y10520000D03*
G01X13389000Y10774000D03*
G01X13389000Y11028000D03*
G01X13389000Y11282000D03*
G01X13389000Y11536000D03*
G01X13389000Y11790000D03*
G01X13389000Y12044000D03*
G01X14021000Y12320000D03*
G01X14275000Y12320000D03*
G01X14529000Y12320000D03*
G01X14783000Y12320000D03*
G01X10487000Y10950000D03*
G01X10741000Y10950000D03*
G01X10995000Y10950000D03*
G01X11249000Y10950000D03*
G01X11071000Y12750000D03*
G01X11325000Y12750000D03*
G01X11579000Y12750000D03*
G01X11833000Y12750000D03*
G01X13210000Y12750000D03*
G01X13464000Y12750000D03*
G01X13718000Y12750000D03*
G01X13972000Y12750000D03*
G01X14226000Y12750000D03*
G01X14480000Y12750000D03*
G01X14734000Y12750000D03*
G04 Vias*
D15*
G01X12350000Y12500000D03*
G01X12650000Y12500000D03*
M02*
