G04 Layer: TopCopperLayer*
%FSLAX45Y45*%
%MOMM*%
%LPD*%
G01*
G75*
%ADD10C,5.500*%
%ADD11C,1.600*%
%ADD12R,1.600X1.600*%
%ADD13R,1.000X1.500*%
%ADD14R,0.800X0.800*%
%ADD15C,0.800*%
%ADD20C,0.350*%

G04 Mounting Holes*
D10*
G01X10350000Y10350000D03*
G01X14650000Y10350000D03*
G01X10350000Y14650000D03*
G01X14650000Y14650000D03*

G04 Rect Pin 1s*
D12*
G01X11611000Y10266000D03*
G01X13389000Y10266000D03*
G01X13767000Y12320000D03*
G01X10233000Y10950000D03*
G01X12200000Y14650000D03*
G01X10817000Y12750000D03*
G01X12956000Y12750000D03*

G04 Circular THT Pads*
D11*
G01X12400000Y14650000D03*
G01X11611000Y10520000D03*
G01X11611000Y10774000D03*
G01X11611000Y11028000D03*
G01X11611000Y11282000D03*
G01X11611000Y11536000D03*
G01X11611000Y11790000D03*
G01X11611000Y12044000D03*
G01X13389000Y10520000D03*
G01X13389000Y10774000D03*
G01X13389000Y11028000D03*
G01X13389000Y11282000D03*
G01X13389000Y11536000D03*
G01X13389000Y11790000D03*
G01X13389000Y12044000D03*
G01X14021000Y12320000D03*
G01X14275000Y12320000D03*
G01X14529000Y12320000D03*
G01X14783000Y12320000D03*
G01X10487000Y10950000D03*
G01X10741000Y10950000D03*
G01X10995000Y10950000D03*
G01X11249000Y10950000D03*
G01X11071000Y12750000D03*
G01X11325000Y12750000D03*
G01X11579000Y12750000D03*
G01X11833000Y12750000D03*
G01X13210000Y12750000D03*
G01X13464000Y12750000D03*
G01X13718000Y12750000D03*
G01X13972000Y12750000D03*
G01X14226000Y12750000D03*
G01X14480000Y12750000D03*
G01X14734000Y12750000D03*
G04 SMD Pads*
D13*
G01X11450000Y14650000D03*
G01X11600000Y14650000D03*
G01X11750000Y14650000D03*
D14*
G01X12125000Y14200000D03*
G01X12275000Y14200000D03*
G01X12725000Y14200000D03*
G01X12875000Y14200000D03*

G04 Vias*
D15*
G01X12350000Y12500000D03*
G01X12650000Y12500000D03*
G04 Top Traces*
D20*
G01X12200000Y14650000D02*
G01X12200000Y14820000D01*
G01X12200000Y14820000D02*
G01X11450000Y14820000D01*
G01X11450000Y14820000D02*
G01X11450000Y14650000D01*
G01X11600000Y14650000D02*
G01X11600000Y14480000D01*
G01X11600000Y14480000D02*
G01X12500000Y14480000D01*
G01X12500000Y14480000D02*
G01X12500000Y10266000D01*
G01X12500000Y10266000D02*
G01X11611000Y10266000D01*
G01X11611000Y11028000D02*
G01X11380000Y11028000D01*
G01X11380000Y11028000D02*
G01X11380000Y10720000D01*
G01X11380000Y10720000D02*
G01X10741000Y10720000D01*
G01X10741000Y10720000D02*
G01X10741000Y10950000D01*
G01X13389000Y10520000D02*
G01X13767000Y10520000D01*
G01X13767000Y10520000D02*
G01X13767000Y12320000D01*
G01X13389000Y10266000D02*
G01X14650000Y10266000D01*
G01X14650000Y10266000D02*
G01X14650000Y10350000D01*
G01X14650000Y10350000D02*
G01X14850000Y10550000D01*
G01X14850000Y10550000D02*
G01X14850000Y14450000D01*
G01X14850000Y14450000D02*
G01X14650000Y14650000D01*
G01X14850000Y12320000D02*
G01X14783000Y12320000D01*
G01X14850000Y10850000D02*
G01X14021000Y10850000D01*
G01X14021000Y10850000D02*
G01X14021000Y12320000D01*
G01X12400000Y14650000D02*
G01X12400000Y14850000D01*
G01X12400000Y14850000D02*
G01X14450000Y14850000D01*
G01X14450000Y14850000D02*
G01X14650000Y14650000D01*
G01X13210000Y12750000D02*
G01X13210000Y13700000D01*
G01X13210000Y13700000D02*
G01X14480000Y13700000D01*
G01X14480000Y13700000D02*
G01X14480000Y12750000D01*
G01X14480000Y13700000D02*
G01X14650000Y13700000D01*
G01X14650000Y13700000D02*
G01X14650000Y14650000D01*
G01X11325000Y12750000D02*
G01X11325000Y13800000D01*
G01X11325000Y13800000D02*
G01X10350000Y13800000D01*
G01X10350000Y13800000D02*
G01X10350000Y14650000D01*
G01X11611000Y11536000D02*
G01X11833000Y11536000D01*
G01X11833000Y11536000D02*
G01X11833000Y12750000D01*
G01X11833000Y12750000D02*
G01X12125000Y12750000D01*
G01X12125000Y12750000D02*
G01X12125000Y14200000D01*
G01X12125000Y12500000D02*
G01X12350000Y12500000D01*
G01X12650000Y12500000D02*
G01X13718000Y12500000D01*
G01X13718000Y12500000D02*
G01X13718000Y12750000D01*
G01X13718000Y12500000D02*
G01X14529000Y12500000D01*
G01X14529000Y12500000D02*
G01X14529000Y12320000D01*
M02*
