M48
; Layer: Drill_PTH_Through
METRIC,TZ
T1C0.950
T2C3.200
T3C0.800
T4C0.400
%
G05
G90
T1
X117000Y115000
X117000Y117540
X117000Y120080
X117000Y122620
X117000Y125160
X117000Y127700
X117000Y130240
X117000Y132780
X134780Y115000
X134780Y117540
X134780Y120080
X134780Y122620
X134780Y125160
X134780Y127700
X134780Y130240
X134780Y132780
X112500Y110000
X112500Y112540
X112500Y115080
X112500Y117620
X112500Y120160
X112500Y127000
X112500Y129540
X112500Y132080
X112500Y134620
X112500Y137160
X138500Y118000
X138500Y120540
X138500Y123080
X138500Y125620
X138500Y128160
X138500Y130700
X138500Y133240
X138500Y135780
X119920Y142500
X122460Y142500
X125000Y142500
X127540Y142500
X130080Y142500
T2
X103500Y103500
X146500Y103500
X103500Y146500
X146500Y146500
T3
X144000Y109000
X144000Y111000
T4
X125000Y106000
M30
