G04 Layer: BottomLayer*
G04 CarrierBoard_BeetleC6_50x50 Option-B (100% Inside 50x50mm Boundary)*
%FSLAX45Y45*%
%MOMM*%
%LPD*%
G01*
G75*
%ADD10C,1.600*%
%ADD11R,1.600X1.600*%
%ADD12C,5.500*%
%ADD13C,0.800*%
%ADD14R,1.500X1.000*%
%ADD15R,0.800X0.800*%
%ADD20C,0.250*%
%ADD21C,0.350*%
%ADD22C,0.400*%
%ADD23C,0.500*%
D12*
X10350000Y10350000D03*
D12*
X14650000Y10350000D03*
D12*
X10350000Y14650000D03*
D12*
X14650000Y14650000D03*
D11*
X11700000Y11500000D03*
D10*
X11700000Y11754000D03*
D10*
X11700000Y12008000D03*
D10*
X11700000Y12262000D03*
D10*
X11700000Y12516000D03*
D10*
X11700000Y12770000D03*
D10*
X11700000Y13024000D03*
D10*
X11700000Y13278000D03*
D11*
X13478000Y11500000D03*
D10*
X13478000Y11754000D03*
D10*
X13478000Y12008000D03*
D10*
X13478000Y12262000D03*
D10*
X13478000Y12516000D03*
D10*
X13478000Y12770000D03*
D10*
X13478000Y13024000D03*
D10*
X13478000Y13278000D03*
D11*
X11250000Y11000000D03*
D10*
X11250000Y11254000D03*
D10*
X11250000Y11508000D03*
D10*
X11250000Y11762000D03*
D10*
X11250000Y12016000D03*
D11*
X11250000Y12700000D03*
D10*
X11250000Y12954000D03*
D10*
X11250000Y13208000D03*
D10*
X11250000Y13462000D03*
D10*
X11250000Y13716000D03*
D11*
X13850000Y11800000D03*
D10*
X13850000Y12054000D03*
D10*
X13850000Y12308000D03*
D10*
X13850000Y12562000D03*
D10*
X13850000Y12816000D03*
D10*
X13850000Y13070000D03*
D10*
X13850000Y13324000D03*
D10*
X13850000Y13578000D03*
D11*
X11992000Y14250000D03*
D10*
X12246000Y14250000D03*
D10*
X12500000Y14250000D03*
D10*
X12754000Y14250000D03*
D10*
X13008000Y14250000D03*
D11*
X14400000Y10900000D03*
D10*
X14400000Y11100000D03*
D13*
X12500000Y10600000D03*
D23*
G01X12500000Y10600000D02*
G01X13850000Y10600000D01*
D23*
G01X13850000Y10600000D02*
G01X13850000Y11800000D01*
D23*
G01X12500000Y10600000D02*
G01X11600000Y10600000D01*
D23*
G01X11600000Y10600000D02*
G01X11600000Y14250000D01*
D23*
G01X11600000Y14250000D02*
G01X11992000Y14250000D01*
D20*
G01X13478000Y11500000D02*
G01X13650000Y11500000D01*
D20*
G01X13650000Y11500000D02*
G01X13650000Y12562000D01*
D20*
G01X13650000Y12562000D02*
G01X13850000Y12562000D01*
D20*
G01X13478000Y11754000D02*
G01X13750000Y11754000D01*
D20*
G01X13750000Y11754000D02*
G01X13750000Y12308000D01*
D20*
G01X13750000Y12308000D02*
G01X13850000Y12308000D01*
D20*
G01X13478000Y12008000D02*
G01X13200000Y12008000D01*
D20*
G01X13200000Y12008000D02*
G01X13200000Y13800000D01*
D20*
G01X13200000Y13800000D02*
G01X12246000Y13800000D01*
D20*
G01X12246000Y13800000D02*
G01X12246000Y14250000D01*
D20*
G01X13478000Y12262000D02*
G01X13000000Y12262000D01*
D20*
G01X13000000Y12262000D02*
G01X13000000Y13600000D01*
D20*
G01X13000000Y13600000D02*
G01X12500000Y13600000D01*
D20*
G01X12500000Y13600000D02*
G01X12500000Y14250000D01*
D21*
G01X12150000Y13800000D02*
G01X12300000Y13800000D01*
D21*
G01X12300000Y13800000D02*
G01X12300000Y14000000D01*
D21*
G01X12300000Y14000000D02*
G01X12754000Y14000000D01*
D21*
G01X12754000Y14000000D02*
G01X12754000Y14250000D01*
D21*
G01X13850000Y12054000D02*
G01X14100000Y12054000D01*
D21*
G01X14100000Y12054000D02*
G01X14100000Y13324000D01*
D21*
G01X14100000Y13324000D02*
G01X13850000Y13324000D01*
D23*
G01X14100000Y13324000D02*
G01X14100000Y14650000D01*
D23*
G01X14100000Y14650000D02*
G01X14650000Y14650000D01*
M02*
