G04 Layer: TopSilkscreenLayer*
G04 CarrierBoard_BeetleC6_50x50 Option-B (100% Inside 50x50mm Boundary)*
%FSLAX45Y45*%
%MOMM*%
%LPD*%
G01*
G75*
%ADD10C,0.150*%
%ADD11C,0.100*%
D10*
G01X11550000Y11300000D02*
G01X13628000Y11300000D01*
G01X13628000Y13500000D01*
G01X11550000Y13500000D01*
G01X11550000Y11300000D01*
D11*
G01X11475000Y10950000D02*
G01X13525000Y10950000D01*
G01X13525000Y13450000D01*
G01X11475000Y13450000D01*
G01X11475000Y10950000D01*
D10*
G01X12100000Y10050000D02*
G01X12100000Y10650000D01*
G01X12900000Y10650000D01*
G01X12900000Y10050000D01*
D10*
G01X11050000Y10800000D02*
G01X11450000Y10800000D01*
G01X11450000Y12200000D01*
G01X11050000Y12200000D01*
G01X11050000Y10800000D01*
D11*
G01X10050000Y10800000D02*
G01X11250000Y10800000D01*
G01X11250000Y12200000D01*
G01X10050000Y12200000D01*
G01X10050000Y10800000D01*
D10*
G01X11050000Y12500000D02*
G01X11450000Y12500000D01*
G01X11450000Y13900000D01*
G01X11050000Y13900000D01*
G01X11050000Y12500000D01*
D11*
G01X10050000Y12500000D02*
G01X11250000Y12500000D01*
G01X11250000Y13900000D01*
G01X10050000Y13900000D01*
G01X10050000Y12500000D01*
D10*
G01X14200000Y10750000D02*
G01X14700000Y10750000D01*
G01X14700000Y11250000D01*
G01X14200000Y11250000D01*
G01X14200000Y10750000D01*
D10*
G01X14050000Y10900000D02*
G01X14250000Y10900000D01*
G01X14150000Y10800000D02*
G01X14150000Y11000000D01*
G01X14050000Y11100000D02*
G01X14250000Y11100000D01*
D10*
G01X14300000Y11250000D02*
G01X14700000Y11250000D01*
G01X14700000Y11850000D01*
G01X14300000Y11850000D01*
G01X14300000Y11250000D01*
M02*
