M48
; DRILL file KiCad 10.0.4 date 2026-09-18T10:33:05
; FORMAT={-:-/ absolute / metric / decimal}
; #@! TF.CreationDate,2026-09-18T10:33:05+09:00
; #@! TF.GenerationSoftware,Kicad,Pcbnew,10.0.4
; #@! TF.FileFunction,MixedPlating,1,2
FMAT,2
METRIC
; #@! TA.AperFunction,Plated,PTH,ViaDrill
T1C0.400
; #@! TA.AperFunction,Plated,PTH,ComponentDrill
T2C0.800
; #@! TA.AperFunction,Plated,PTH,ComponentDrill
T3C1.000
; #@! TA.AperFunction,Plated,PTH,ComponentDrill
T4C3.200
%
G90
G05
T1
X121.25Y-125.0
X123.0Y-103.93
X123.8Y-143.5
X126.2Y-143.5
X127.0Y-103.93
X127.25Y-131.5
T2
X122.0Y-146.5
X124.0Y-146.5
T3
X102.33Y-109.5
X104.87Y-109.5
X107.41Y-109.5
X108.17Y-127.5
X109.95Y-109.5
X110.71Y-127.5
X112.49Y-109.5
X113.25Y-127.5
X115.79Y-127.5
X116.11Y-102.66
X116.11Y-105.2
X116.11Y-107.74
X116.11Y-110.28
X116.11Y-112.82
X116.11Y-115.36
X116.11Y-117.9
X116.11Y-120.44
X118.33Y-127.5
X129.53Y-127.5
X132.07Y-127.5
X133.89Y-102.66
X133.89Y-105.2
X133.89Y-107.74
X133.89Y-110.28
X133.89Y-112.82
X133.89Y-115.36
X133.89Y-117.9
X133.89Y-120.44
X134.61Y-127.5
X137.15Y-127.5
X137.67Y-123.2
X139.69Y-127.5
X140.21Y-123.2
X142.23Y-127.5
X142.75Y-123.2
X144.77Y-127.5
X145.29Y-123.2
X147.31Y-127.5
X147.83Y-123.2
T4
X103.5Y-103.5
X103.5Y-146.5
X146.5Y-103.5
X146.5Y-146.5
M30
