G04 Layer: TopSilkscreenLayer*
%FSLAX45Y45*%
%MOMM*%
%LPD*%
G01*
G75*
%ADD10C,0.120*%
D10*
G01X11475000Y10000000D02*
G01X13525000Y10000000D01*
G01X13525000Y10000000D02*
G01X13525000Y12500000D01*
G01X13525000Y12500000D02*
G01X11475000Y12500000D01*
G01X11475000Y12500000D02*
G01X11475000Y10000000D01*
G01X12050000Y10000000D02*
G01X12050000Y10350000D01*
G01X12050000Y10350000D02*
G01X12950000Y10350000D01*
G01X12950000Y10350000D02*
G01X12950000Y10000000D01*
G01X13580000Y10670000D02*
G01X14970000Y10670000D01*
G01X14970000Y10670000D02*
G01X14970000Y12520000D01*
G01X14970000Y12520000D02*
G01X13580000Y12520000D01*
G01X13580000Y12520000D02*
G01X13580000Y10670000D01*
G01X13640000Y12193000D02*
G01X14910000Y12193000D01*
G01X14910000Y12193000D02*
G01X14910000Y12447000D01*
G01X14910000Y12447000D02*
G01X13640000Y12447000D01*
G01X13640000Y12447000D02*
G01X13640000Y12193000D01*
G01X12000000Y14450000D02*
G01X12600000Y14450000D01*
G01X12600000Y14450000D02*
G01X12600000Y14900000D01*
G01X12600000Y14900000D02*
G01X12000000Y14900000D01*
G01X12000000Y14900000D02*
G01X12000000Y14450000D01*
G01X11250000Y14450000D02*
G01X11950000Y14450000D01*
G01X11950000Y14450000D02*
G01X11950000Y14850000D01*
G01X11950000Y14850000D02*
G01X11250000Y14850000D01*
G01X11250000Y14850000D02*
G01X11250000Y14450000D01*
G01X12080000Y14120000D02*
G01X12320000Y14120000D01*
G01X12320000Y14120000D02*
G01X12320000Y14280000D01*
G01X12320000Y14280000D02*
G01X12080000Y14280000D01*
G01X12080000Y14280000D02*
G01X12080000Y14120000D01*
G01X12680000Y14120000D02*
G01X12920000Y14120000D01*
G01X12920000Y14120000D02*
G01X12920000Y14280000D01*
G01X12920000Y14280000D02*
G01X12680000Y14280000D01*
G01X12680000Y14280000D02*
G01X12680000Y14120000D01*
M02*
