solid OpenSCAD_Model
  facet normal 0.905163 0.0474252 0.42241
    outer loop
      vertex 2.98357 0.313585 0
      vertex 1.6 0 3
      vertex 3 0 0
    endloop
  endfacet
  facet normal -0.640926 0.640926 0.422408
    outer loop
      vertex -2.22943 2.00739 0
      vertex -1.07061 1.18903 3
      vertex -2.00739 2.22943 0
    endloop
  endfacet
  facet normal -0.640926 0.640926 0.422408
    outer loop
      vertex -1.07061 1.18903 3
      vertex -2.22943 2.00739 0
      vertex -1.18903 1.07061 3
    endloop
  endfacet
  facet normal -0.905163 0.0474252 0.42241
    outer loop
      vertex -2.98357 0.313585 0
      vertex -3 0 0
      vertex -1.6 0 3
    endloop
  endfacet
  facet normal 0.0474252 -0.905163 0.42241
    outer loop
      vertex 0 -1.6 3
      vertex 0 -3 0
      vertex 0.313585 -2.98357 0
    endloop
  endfacet
  facet normal 0.760184 0.493649 0.422411
    outer loop
      vertex 2.59808 1.5 0
      vertex 1.29443 0.940456 3
      vertex 1.38564 0.799999 3
    endloop
  endfacet
  facet normal -0.704397 0.570434 0.422409
    outer loop
      vertex -2.22943 2.00739 0
      vertex -2.42705 1.76336 0
      vertex -1.29443 0.940456 3
    endloop
  endfacet
  facet normal -0.493649 0.760184 0.422411
    outer loop
      vertex -0.799999 1.38564 3
      vertex -1.5 2.59808 0
      vertex -0.940456 1.29443 3
    endloop
  endfacet
  facet normal -0.141813 0.895243 0.422408
    outer loop
      vertex -0.313585 2.98357 0
      vertex -0.623734 2.93444 0
      vertex -0.332658 1.56504 3
    endloop
  endfacet
  facet normal -0.640926 -0.640926 0.422408
    outer loop
      vertex -2.22943 -2.00739 0
      vertex -1.07061 -1.18903 3
      vertex -1.18903 -1.07061 3
    endloop
  endfacet
  facet normal -0.640926 -0.640926 0.422408
    outer loop
      vertex -1.07061 -1.18903 3
      vertex -2.22943 -2.00739 0
      vertex -2.00739 -2.22943 0
    endloop
  endfacet
  facet normal 0.234585 0.875523 0.422409
    outer loop
      vertex 0.623734 2.93444 0
      vertex 0.494427 1.52169 3
      vertex 0.927051 2.85317 0
    endloop
  endfacet
  facet normal 0.411499 0.807613 0.42241
    outer loop
      vertex 1.22021 2.74064 0
      vertex 0.799999 1.38564 3
      vertex 1.5 2.59808 0
    endloop
  endfacet
  facet normal 0.760173 0.493668 0.422409
    outer loop
      vertex 2.42705 1.76336 0
      vertex 1.29443 0.940456 3
      vertex 2.59808 1.5 0
    endloop
  endfacet
  facet normal 0.234585 -0.875523 0.422409
    outer loop
      vertex 0.927051 -2.85317 0
      vertex 0.494427 -1.52169 3
      vertex 0.623734 -2.93444 0
    endloop
  endfacet
  facet normal 0.905163 -0.0474252 0.42241
    outer loop
      vertex 3 0 0
      vertex 1.6 0 3
      vertex 2.98357 -0.313585 0
    endloop
  endfacet
  facet normal -0.807616 0.411491 0.422411
    outer loop
      vertex -1.38564 0.799999 3
      vertex -2.74064 1.22021 0
      vertex -1.46167 0.650778 3
    endloop
  endfacet
  facet normal -0.493668 0.760173 0.422409
    outer loop
      vertex -1.5 2.59808 0
      vertex -1.76336 2.42705 0
      vertex -0.940456 1.29443 3
    endloop
  endfacet
  facet normal 0.0474252 0.905163 0.42241
    outer loop
      vertex 0 3 0
      vertex 0 1.6 3
      vertex 0.313585 2.98357 0
    endloop
  endfacet
  facet normal -0.846205 -0.324818 0.42241
    outer loop
      vertex -1.52169 -0.494427 3
      vertex -2.85317 -0.927051 0
      vertex -2.74064 -1.22021 0
    endloop
  endfacet
  facet normal -0.875523 -0.234585 0.422409
    outer loop
      vertex -1.52169 -0.494427 3
      vertex -2.93444 -0.623734 0
      vertex -2.85317 -0.927051 0
    endloop
  endfacet
  facet normal 0 0 -1
    outer loop
      vertex 2.98357 -0.313585 0
      vertex 2.98357 0.313585 0
      vertex 3 0 0
    endloop
  endfacet
  facet normal 0 0 -1
    outer loop
      vertex 2.93444 -0.623734 0
      vertex 2.98357 0.313585 0
      vertex 2.98357 -0.313585 0
    endloop
  endfacet
  facet normal 0 0 -1
    outer loop
      vertex 2.93444 -0.623734 0
      vertex 2.93444 0.623734 0
      vertex 2.98357 0.313585 0
    endloop
  endfacet
  facet normal 0 0 -1
    outer loop
      vertex 2.85317 -0.927051 0
      vertex 2.93444 0.623734 0
      vertex 2.93444 -0.623734 0
    endloop
  endfacet
  facet normal 0 0 -1
    outer loop
      vertex 2.85317 -0.927051 0
      vertex 2.85317 0.927051 0
      vertex 2.93444 0.623734 0
    endloop
  endfacet
  facet normal 0 0 -1
    outer loop
      vertex 2.74064 -1.22021 0
      vertex 2.85317 0.927051 0
      vertex 2.85317 -0.927051 0
    endloop
  endfacet
  facet normal 0 0 -1
    outer loop
      vertex 2.74064 -1.22021 0
      vertex 2.74064 1.22021 0
      vertex 2.85317 0.927051 0
    endloop
  endfacet
  facet normal 0 0 -1
    outer loop
      vertex 2.59808 -1.5 0
      vertex 2.74064 1.22021 0
      vertex 2.74064 -1.22021 0
    endloop
  endfacet
  facet normal 0 0 -1
    outer loop
      vertex 2.59808 -1.5 0
      vertex 2.59808 1.5 0
      vertex 2.74064 1.22021 0
    endloop
  endfacet
  facet normal 0 0 -1
    outer loop
      vertex 2.42705 -1.76336 0
      vertex 2.59808 1.5 0
      vertex 2.59808 -1.5 0
    endloop
  endfacet
  facet normal 0 0 -1
    outer loop
      vertex 2.42705 -1.76336 0
      vertex 2.42705 1.76336 0
      vertex 2.59808 1.5 0
    endloop
  endfacet
  facet normal 0 0 -1
    outer loop
      vertex 2.22943 -2.00739 0
      vertex 2.42705 1.76336 0
      vertex 2.42705 -1.76336 0
    endloop
  endfacet
  facet normal 0 0 -1
    outer loop
      vertex 2.22943 -2.00739 0
      vertex 2.22943 2.00739 0
      vertex 2.42705 1.76336 0
    endloop
  endfacet
  facet normal 0 0 -1
    outer loop
      vertex 2.00739 -2.22943 0
      vertex 2.22943 2.00739 0
      vertex 2.22943 -2.00739 0
    endloop
  endfacet
  facet normal 0 0 -1
    outer loop
      vertex 2.00739 -2.22943 0
      vertex 2.00739 2.22943 0
      vertex 2.22943 2.00739 0
    endloop
  endfacet
  facet normal 0 0 -1
    outer loop
      vertex 1.76336 -2.42705 0
      vertex 2.00739 2.22943 0
      vertex 2.00739 -2.22943 0
    endloop
  endfacet
  facet normal 0 0 -1
    outer loop
      vertex 1.76336 -2.42705 0
      vertex 1.76336 2.42705 0
      vertex 2.00739 2.22943 0
    endloop
  endfacet
  facet normal 0 0 -1
    outer loop
      vertex 1.5 -2.59808 0
      vertex 1.76336 2.42705 0
      vertex 1.76336 -2.42705 0
    endloop
  endfacet
  facet normal 0 0 -1
    outer loop
      vertex 1.5 -2.59808 0
      vertex 1.5 2.59808 0
      vertex 1.76336 2.42705 0
    endloop
  endfacet
  facet normal 0 0 -1
    outer loop
      vertex 1.22021 -2.74064 0
      vertex 1.5 2.59808 0
      vertex 1.5 -2.59808 0
    endloop
  endfacet
  facet normal 0 0 -1
    outer loop
      vertex 1.22021 -2.74064 0
      vertex 1.22021 2.74064 0
      vertex 1.5 2.59808 0
    endloop
  endfacet
  facet normal 0 0 -1
    outer loop
      vertex 0.927051 -2.85317 0
      vertex 1.22021 2.74064 0
      vertex 1.22021 -2.74064 0
    endloop
  endfacet
  facet normal 0 0 -1
    outer loop
      vertex 0.927051 -2.85317 0
      vertex 0.927051 2.85317 0
      vertex 1.22021 2.74064 0
    endloop
  endfacet
  facet normal 0 0 -1
    outer loop
      vertex 0.623734 -2.93444 0
      vertex 0.927051 2.85317 0
      vertex 0.927051 -2.85317 0
    endloop
  endfacet
  facet normal 0 0 -1
    outer loop
      vertex 0.623734 -2.93444 0
      vertex 0.623734 2.93444 0
      vertex 0.927051 2.85317 0
    endloop
  endfacet
  facet normal 0 0 -1
    outer loop
      vertex 0.313585 -2.98357 0
      vertex 0.623734 2.93444 0
      vertex 0.623734 -2.93444 0
    endloop
  endfacet
  facet normal 0 0 -1
    outer loop
      vertex 0.313585 -2.98357 0
      vertex 0.313585 2.98357 0
      vertex 0.623734 2.93444 0
    endloop
  endfacet
  facet normal 0 0 -1
    outer loop
      vertex 0 -3 0
      vertex 0.313585 2.98357 0
      vertex 0.313585 -2.98357 0
    endloop
  endfacet
  facet normal 0 0 -1
    outer loop
      vertex 0 -3 0
      vertex 0 3 0
      vertex 0.313585 2.98357 0
    endloop
  endfacet
  facet normal 0 0 -1
    outer loop
      vertex -0.313585 -2.98357 0
      vertex 0 3 0
      vertex 0 -3 0
    endloop
  endfacet
  facet normal 0 0 -1
    outer loop
      vertex -0.313585 -2.98357 0
      vertex -0.313585 2.98357 0
      vertex 0 3 0
    endloop
  endfacet
  facet normal 0 0 -1
    outer loop
      vertex -0.623734 -2.93444 0
      vertex -0.313585 2.98357 0
      vertex -0.313585 -2.98357 0
    endloop
  endfacet
  facet normal 0 0 -1
    outer loop
      vertex -0.623734 -2.93444 0
      vertex -0.623734 2.93444 0
      vertex -0.313585 2.98357 0
    endloop
  endfacet
  facet normal 0 0 -1
    outer loop
      vertex -0.927051 -2.85317 0
      vertex -0.623734 2.93444 0
      vertex -0.623734 -2.93444 0
    endloop
  endfacet
  facet normal 0 0 -1
    outer loop
      vertex -0.927051 -2.85317 0
      vertex -0.927051 2.85317 0
      vertex -0.623734 2.93444 0
    endloop
  endfacet
  facet normal 0 0 -1
    outer loop
      vertex -1.22021 -2.74064 0
      vertex -0.927051 2.85317 0
      vertex -0.927051 -2.85317 0
    endloop
  endfacet
  facet normal 0 0 -1
    outer loop
      vertex -1.22021 -2.74064 0
      vertex -1.22021 2.74064 0
      vertex -0.927051 2.85317 0
    endloop
  endfacet
  facet normal 0 0 -1
    outer loop
      vertex -1.5 -2.59808 0
      vertex -1.22021 2.74064 0
      vertex -1.22021 -2.74064 0
    endloop
  endfacet
  facet normal 0 0 -1
    outer loop
      vertex -1.5 -2.59808 0
      vertex -1.5 2.59808 0
      vertex -1.22021 2.74064 0
    endloop
  endfacet
  facet normal 0 0 -1
    outer loop
      vertex -1.76336 -2.42705 0
      vertex -1.5 2.59808 0
      vertex -1.5 -2.59808 0
    endloop
  endfacet
  facet normal 0 0 -1
    outer loop
      vertex -1.76336 -2.42705 0
      vertex -1.76336 2.42705 0
      vertex -1.5 2.59808 0
    endloop
  endfacet
  facet normal 0 0 -1
    outer loop
      vertex -2.00739 -2.22943 0
      vertex -1.76336 2.42705 0
      vertex -1.76336 -2.42705 0
    endloop
  endfacet
  facet normal 0 0 -1
    outer loop
      vertex -2.00739 -2.22943 0
      vertex -2.00739 2.22943 0
      vertex -1.76336 2.42705 0
    endloop
  endfacet
  facet normal 0 0 -1
    outer loop
      vertex -2.22943 -2.00739 0
      vertex -2.00739 2.22943 0
      vertex -2.00739 -2.22943 0
    endloop
  endfacet
  facet normal 0 0 -1
    outer loop
      vertex -2.22943 -2.00739 0
      vertex -2.22943 2.00739 0
      vertex -2.00739 2.22943 0
    endloop
  endfacet
  facet normal 0 0 -1
    outer loop
      vertex -2.42705 -1.76336 0
      vertex -2.22943 2.00739 0
      vertex -2.22943 -2.00739 0
    endloop
  endfacet
  facet normal 0 0 -1
    outer loop
      vertex -2.42705 -1.76336 0
      vertex -2.42705 1.76336 0
      vertex -2.22943 2.00739 0
    endloop
  endfacet
  facet normal 0 0 -1
    outer loop
      vertex -2.59808 -1.5 0
      vertex -2.42705 1.76336 0
      vertex -2.42705 -1.76336 0
    endloop
  endfacet
  facet normal 0 0 -1
    outer loop
      vertex -2.59808 -1.5 0
      vertex -2.59808 1.5 0
      vertex -2.42705 1.76336 0
    endloop
  endfacet
  facet normal 0 0 -1
    outer loop
      vertex -2.74064 -1.22021 0
      vertex -2.59808 1.5 0
      vertex -2.59808 -1.5 0
    endloop
  endfacet
  facet normal 0 0 -1
    outer loop
      vertex -2.74064 -1.22021 0
      vertex -2.74064 1.22021 0
      vertex -2.59808 1.5 0
    endloop
  endfacet
  facet normal 0 0 -1
    outer loop
      vertex -2.85317 -0.927051 0
      vertex -2.74064 1.22021 0
      vertex -2.74064 -1.22021 0
    endloop
  endfacet
  facet normal 0 0 -1
    outer loop
      vertex -2.85317 -0.927051 0
      vertex -2.85317 0.927051 0
      vertex -2.74064 1.22021 0
    endloop
  endfacet
  facet normal 0 0 -1
    outer loop
      vertex -2.93444 -0.623734 0
      vertex -2.85317 0.927051 0
      vertex -2.85317 -0.927051 0
    endloop
  endfacet
  facet normal 0 0 -1
    outer loop
      vertex -2.93444 -0.623734 0
      vertex -2.93444 0.623734 0
      vertex -2.85317 0.927051 0
    endloop
  endfacet
  facet normal 0 0 -1
    outer loop
      vertex -2.98357 -0.313585 0
      vertex -2.93444 0.623734 0
      vertex -2.93444 -0.623734 0
    endloop
  endfacet
  facet normal 0 0 -1
    outer loop
      vertex -2.98357 -0.313585 0
      vertex -2.98357 0.313585 0
      vertex -2.93444 0.623734 0
    endloop
  endfacet
  facet normal 0 -0 -1
    outer loop
      vertex -2.98357 0.313585 0
      vertex -2.98357 -0.313585 0
      vertex -3 0 0
    endloop
  endfacet
  facet normal -0.875515 0.234616 0.422407
    outer loop
      vertex -1.52169 0.494427 3
      vertex -2.93444 0.623734 0
      vertex -1.56504 0.332658 3
    endloop
  endfacet
  facet normal -0.846197 0.324838 0.422411
    outer loop
      vertex -1.46167 0.650778 3
      vertex -2.74064 1.22021 0
      vertex -1.52169 0.494427 3
    endloop
  endfacet
  facet normal -0.570434 -0.704397 0.422409
    outer loop
      vertex -0.940456 -1.29443 3
      vertex -2.00739 -2.22943 0
      vertex -1.76336 -2.42705 0
    endloop
  endfacet
  facet normal -0.411499 -0.807613 0.42241
    outer loop
      vertex -0.799999 -1.38564 3
      vertex -1.5 -2.59808 0
      vertex -1.22021 -2.74064 0
    endloop
  endfacet
  facet normal 0.324818 0.846205 0.42241
    outer loop
      vertex 0.927051 2.85317 0
      vertex 0.494427 1.52169 3
      vertex 1.22021 2.74064 0
    endloop
  endfacet
  facet normal 0.57043 0.7044 0.422409
    outer loop
      vertex 2.00739 2.22943 0
      vertex 0.940456 1.29443 3
      vertex 1.07061 1.18903 3
    endloop
  endfacet
  facet normal 0.807613 0.411499 0.42241
    outer loop
      vertex 2.59808 1.5 0
      vertex 1.38564 0.799999 3
      vertex 2.74064 1.22021 0
    endloop
  endfacet
  facet normal 0.875523 0.234585 0.422409
    outer loop
      vertex 2.85317 0.927051 0
      vertex 1.52169 0.494427 3
      vertex 2.93444 0.623734 0
    endloop
  endfacet
  facet normal 0.846197 0.324838 0.422411
    outer loop
      vertex 2.74064 1.22021 0
      vertex 1.46167 0.650778 3
      vertex 1.52169 0.494427 3
    endloop
  endfacet
  facet normal 0.895252 0.141746 0.422413
    outer loop
      vertex 2.98357 0.313585 0
      vertex 1.56504 0.332658 3
      vertex 1.59123 0.167245 3
    endloop
  endfacet
  facet normal 0.704397 0.570434 0.422409
    outer loop
      vertex 2.22943 2.00739 0
      vertex 1.29443 0.940456 3
      vertex 2.42705 1.76336 0
    endloop
  endfacet
  facet normal 0.141746 -0.895252 0.422413
    outer loop
      vertex 0.332658 -1.56504 3
      vertex 0.167245 -1.59123 3
      vertex 0.313585 -2.98357 0
    endloop
  endfacet
  facet normal 0.411499 -0.807613 0.42241
    outer loop
      vertex 1.5 -2.59808 0
      vertex 0.799999 -1.38564 3
      vertex 1.22021 -2.74064 0
    endloop
  endfacet
  facet normal 0.324818 -0.846205 0.42241
    outer loop
      vertex 1.22021 -2.74064 0
      vertex 0.494427 -1.52169 3
      vertex 0.927051 -2.85317 0
    endloop
  endfacet
  facet normal 0.324838 -0.846197 0.422411
    outer loop
      vertex 0.650778 -1.46167 3
      vertex 0.494427 -1.52169 3
      vertex 1.22021 -2.74064 0
    endloop
  endfacet
  facet normal 0.570434 -0.704397 0.422409
    outer loop
      vertex 2.00739 -2.22943 0
      vertex 0.940456 -1.29443 3
      vertex 1.76336 -2.42705 0
    endloop
  endfacet
  facet normal 0.846197 -0.324838 0.422411
    outer loop
      vertex 1.52169 -0.494427 3
      vertex 1.46167 -0.650778 3
      vertex 2.74064 -1.22021 0
    endloop
  endfacet
  facet normal 0.704397 -0.570434 0.422409
    outer loop
      vertex 2.42705 -1.76336 0
      vertex 1.29443 -0.940456 3
      vertex 2.22943 -2.00739 0
    endloop
  endfacet
  facet normal 0.875515 -0.234616 0.422407
    outer loop
      vertex 1.56504 -0.332658 3
      vertex 1.52169 -0.494427 3
      vertex 2.93444 -0.623734 0
    endloop
  endfacet
  facet normal -0.0474252 0.905163 0.42241
    outer loop
      vertex 0 3 0
      vertex -0.313585 2.98357 0
      vertex 0 1.6 3
    endloop
  endfacet
  facet normal -0.234616 0.875515 0.422407
    outer loop
      vertex -0.332658 1.56504 3
      vertex -0.623734 2.93444 0
      vertex -0.494427 1.52169 3
    endloop
  endfacet
  facet normal -0.234585 0.875523 0.422409
    outer loop
      vertex -0.623734 2.93444 0
      vertex -0.927051 2.85317 0
      vertex -0.494427 1.52169 3
    endloop
  endfacet
  facet normal -0.324838 0.846197 0.422411
    outer loop
      vertex -0.494427 1.52169 3
      vertex -1.22021 2.74064 0
      vertex -0.650778 1.46167 3
    endloop
  endfacet
  facet normal -0.324818 0.846205 0.42241
    outer loop
      vertex -0.927051 2.85317 0
      vertex -1.22021 2.74064 0
      vertex -0.494427 1.52169 3
    endloop
  endfacet
  facet normal -0.570434 0.704397 0.422409
    outer loop
      vertex -1.76336 2.42705 0
      vertex -2.00739 2.22943 0
      vertex -0.940456 1.29443 3
    endloop
  endfacet
  facet normal -0.57043 0.7044 0.422409
    outer loop
      vertex -0.940456 1.29443 3
      vertex -2.00739 2.22943 0
      vertex -1.07061 1.18903 3
    endloop
  endfacet
  facet normal 0.234616 0.875515 0.422407
    outer loop
      vertex 0.623734 2.93444 0
      vertex 0.332658 1.56504 3
      vertex 0.494427 1.52169 3
    endloop
  endfacet
  facet normal -0.875515 -0.234616 0.422407
    outer loop
      vertex -1.56504 -0.332658 3
      vertex -2.93444 -0.623734 0
      vertex -1.52169 -0.494427 3
    endloop
  endfacet
  facet normal -0.895243 -0.141813 0.422408
    outer loop
      vertex -1.56504 -0.332658 3
      vertex -2.98357 -0.313585 0
      vertex -2.93444 -0.623734 0
    endloop
  endfacet
  facet normal -0.895252 -0.141746 0.422413
    outer loop
      vertex -1.59123 -0.167245 3
      vertex -2.98357 -0.313585 0
      vertex -1.56504 -0.332658 3
    endloop
  endfacet
  facet normal -0.7044 0.57043 0.422409
    outer loop
      vertex -1.18903 1.07061 3
      vertex -2.22943 2.00739 0
      vertex -1.29443 0.940456 3
    endloop
  endfacet
  facet normal -0.760173 0.493668 0.422409
    outer loop
      vertex -2.42705 1.76336 0
      vertex -2.59808 1.5 0
      vertex -1.29443 0.940456 3
    endloop
  endfacet
  facet normal -0.875523 0.234585 0.422409
    outer loop
      vertex -2.85317 0.927051 0
      vertex -2.93444 0.623734 0
      vertex -1.52169 0.494427 3
    endloop
  endfacet
  facet normal -0.846205 0.324818 0.42241
    outer loop
      vertex -2.74064 1.22021 0
      vertex -2.85317 0.927051 0
      vertex -1.52169 0.494427 3
    endloop
  endfacet
  facet normal -0.895243 0.141813 0.422408
    outer loop
      vertex -2.93444 0.623734 0
      vertex -2.98357 0.313585 0
      vertex -1.56504 0.332658 3
    endloop
  endfacet
  facet normal 0 0 1
    outer loop
      vertex 1.5 0 3
      vertex 1.6 0 3
      vertex 1.59123 0.167245 3
    endloop
  endfacet
  facet normal 0 0 1
    outer loop
      vertex 1.49178 0.156793 3
      vertex 1.59123 0.167245 3
      vertex 1.56504 0.332658 3
    endloop
  endfacet
  facet normal 0 0 1
    outer loop
      vertex 1.6 0 3
      vertex 1.5 0 3
      vertex 1.59123 -0.167245 3
    endloop
  endfacet
  facet normal 0 0 1
    outer loop
      vertex 1.46722 0.311867 3
      vertex 1.56504 0.332658 3
      vertex 1.52169 0.494427 3
    endloop
  endfacet
  facet normal -0 0 1
    outer loop
      vertex 1.49178 -0.156793 3
      vertex 1.59123 -0.167245 3
      vertex 1.5 0 3
    endloop
  endfacet
  facet normal 0 0 1
    outer loop
      vertex 1.59123 -0.167245 3
      vertex 1.49178 -0.156793 3
      vertex 1.56504 -0.332658 3
    endloop
  endfacet
  facet normal 0 0 1
    outer loop
      vertex 1.59123 0.167245 3
      vertex 1.49178 0.156793 3
      vertex 1.5 0 3
    endloop
  endfacet
  facet normal 0 0 1
    outer loop
      vertex 1.56504 0.332658 3
      vertex 1.46722 0.311867 3
      vertex 1.49178 0.156793 3
    endloop
  endfacet
  facet normal 0 0 1
    outer loop
      vertex 1.42658 0.463525 3
      vertex 1.52169 0.494427 3
      vertex 1.46167 0.650778 3
    endloop
  endfacet
  facet normal 0 0 1
    outer loop
      vertex 1.52169 0.494427 3
      vertex 1.42658 0.463525 3
      vertex 1.46722 0.311867 3
    endloop
  endfacet
  facet normal 0 0 1
    outer loop
      vertex 1.37032 0.610105 3
      vertex 1.46167 0.650778 3
      vertex 1.38564 0.799999 3
    endloop
  endfacet
  facet normal 0 0 1
    outer loop
      vertex 1.46167 0.650778 3
      vertex 1.37032 0.610105 3
      vertex 1.42658 0.463525 3
    endloop
  endfacet
  facet normal 0 0 1
    outer loop
      vertex 1.38564 0.799999 3
      vertex 1.29904 0.75 3
      vertex 1.37032 0.610105 3
    endloop
  endfacet
  facet normal 0 0 1
    outer loop
      vertex 1.29443 0.940456 3
      vertex 1.29904 0.75 3
      vertex 1.38564 0.799999 3
    endloop
  endfacet
  facet normal 0 0 1
    outer loop
      vertex 1.29443 0.940456 3
      vertex 1.21352 0.881678 3
      vertex 1.29904 0.75 3
    endloop
  endfacet
  facet normal 0 0 1
    outer loop
      vertex 1.18903 1.07061 3
      vertex 1.21352 0.881678 3
      vertex 1.29443 0.940456 3
    endloop
  endfacet
  facet normal 0 0 1
    outer loop
      vertex 1.18903 1.07061 3
      vertex 1.11472 1.0037 3
      vertex 1.21352 0.881678 3
    endloop
  endfacet
  facet normal 0 0 1
    outer loop
      vertex 1.07061 1.18903 3
      vertex 1.11472 1.0037 3
      vertex 1.18903 1.07061 3
    endloop
  endfacet
  facet normal 0 0 1
    outer loop
      vertex 1.07061 1.18903 3
      vertex 1.0037 1.11472 3
      vertex 1.11472 1.0037 3
    endloop
  endfacet
  facet normal 0 0 1
    outer loop
      vertex 0.940456 1.29443 3
      vertex 1.0037 1.11472 3
      vertex 1.07061 1.18903 3
    endloop
  endfacet
  facet normal 0 0 1
    outer loop
      vertex 0.940456 1.29443 3
      vertex 0.881678 1.21352 3
      vertex 1.0037 1.11472 3
    endloop
  endfacet
  facet normal 0 0 1
    outer loop
      vertex 0.799999 1.38564 3
      vertex 0.881678 1.21352 3
      vertex 0.940456 1.29443 3
    endloop
  endfacet
  facet normal 0 0 1
    outer loop
      vertex 0.799999 1.38564 3
      vertex 0.75 1.29904 3
      vertex 0.881678 1.21352 3
    endloop
  endfacet
  facet normal 0 0 1
    outer loop
      vertex 0.650778 1.46167 3
      vertex 0.75 1.29904 3
      vertex 0.799999 1.38564 3
    endloop
  endfacet
  facet normal 0 0 1
    outer loop
      vertex 0.650778 1.46167 3
      vertex 0.610105 1.37032 3
      vertex 0.75 1.29904 3
    endloop
  endfacet
  facet normal 0 0 1
    outer loop
      vertex 0.494427 1.52169 3
      vertex 0.610105 1.37032 3
      vertex 0.650778 1.46167 3
    endloop
  endfacet
  facet normal 0 0 1
    outer loop
      vertex 0.494427 1.52169 3
      vertex 0.463525 1.42658 3
      vertex 0.610105 1.37032 3
    endloop
  endfacet
  facet normal 0 0 1
    outer loop
      vertex 0.332658 1.56504 3
      vertex 0.463525 1.42658 3
      vertex 0.494427 1.52169 3
    endloop
  endfacet
  facet normal 0 0 1
    outer loop
      vertex 0.332658 1.56504 3
      vertex 0.311867 1.46722 3
      vertex 0.463525 1.42658 3
    endloop
  endfacet
  facet normal 0 0 1
    outer loop
      vertex 0.167245 1.59123 3
      vertex 0.311867 1.46722 3
      vertex 0.332658 1.56504 3
    endloop
  endfacet
  facet normal 0 0 1
    outer loop
      vertex 0.167245 1.59123 3
      vertex 0.156793 1.49178 3
      vertex 0.311867 1.46722 3
    endloop
  endfacet
  facet normal 0 0 1
    outer loop
      vertex 0 1.6 3
      vertex 0.156793 1.49178 3
      vertex 0.167245 1.59123 3
    endloop
  endfacet
  facet normal 0 0 1
    outer loop
      vertex 0 1.6 3
      vertex 0 1.5 3
      vertex 0.156793 1.49178 3
    endloop
  endfacet
  facet normal 0 0 1
    outer loop
      vertex 0 1.6 3
      vertex -0.156793 1.49178 3
      vertex 0 1.5 3
    endloop
  endfacet
  facet normal -0 0 1
    outer loop
      vertex -0.167245 1.59123 3
      vertex -0.156793 1.49178 3
      vertex 0 1.6 3
    endloop
  endfacet
  facet normal 0 0 1
    outer loop
      vertex -0.167245 1.59123 3
      vertex -0.311867 1.46722 3
      vertex -0.156793 1.49178 3
    endloop
  endfacet
  facet normal -0 0 1
    outer loop
      vertex -0.332658 1.56504 3
      vertex -0.311867 1.46722 3
      vertex -0.167245 1.59123 3
    endloop
  endfacet
  facet normal 0 0 1
    outer loop
      vertex -0.332658 1.56504 3
      vertex -0.463525 1.42658 3
      vertex -0.311867 1.46722 3
    endloop
  endfacet
  facet normal -0 0 1
    outer loop
      vertex -0.494427 1.52169 3
      vertex -0.463525 1.42658 3
      vertex -0.332658 1.56504 3
    endloop
  endfacet
  facet normal 0 0 1
    outer loop
      vertex -0.494427 1.52169 3
      vertex -0.610105 1.37032 3
      vertex -0.463525 1.42658 3
    endloop
  endfacet
  facet normal -0 0 1
    outer loop
      vertex -0.650778 1.46167 3
      vertex -0.610105 1.37032 3
      vertex -0.494427 1.52169 3
    endloop
  endfacet
  facet normal 0 0 1
    outer loop
      vertex -0.650778 1.46167 3
      vertex -0.75 1.29904 3
      vertex -0.610105 1.37032 3
    endloop
  endfacet
  facet normal -0 0 1
    outer loop
      vertex -0.799999 1.38564 3
      vertex -0.75 1.29904 3
      vertex -0.650778 1.46167 3
    endloop
  endfacet
  facet normal 0 0 1
    outer loop
      vertex -0.799999 1.38564 3
      vertex -0.881678 1.21352 3
      vertex -0.75 1.29904 3
    endloop
  endfacet
  facet normal -0 0 1
    outer loop
      vertex -0.940456 1.29443 3
      vertex -0.881678 1.21352 3
      vertex -0.799999 1.38564 3
    endloop
  endfacet
  facet normal 0 0 1
    outer loop
      vertex -0.940456 1.29443 3
      vertex -1.0037 1.11472 3
      vertex -0.881678 1.21352 3
    endloop
  endfacet
  facet normal -0 0 1
    outer loop
      vertex -1.07061 1.18903 3
      vertex -1.0037 1.11472 3
      vertex -0.940456 1.29443 3
    endloop
  endfacet
  facet normal 0 0 1
    outer loop
      vertex -1.07061 1.18903 3
      vertex -1.11472 1.0037 3
      vertex -1.0037 1.11472 3
    endloop
  endfacet
  facet normal -0 0 1
    outer loop
      vertex -1.18903 1.07061 3
      vertex -1.11472 1.0037 3
      vertex -1.07061 1.18903 3
    endloop
  endfacet
  facet normal 0 0 1
    outer loop
      vertex -1.18903 1.07061 3
      vertex -1.21352 0.881678 3
      vertex -1.11472 1.0037 3
    endloop
  endfacet
  facet normal -0 0 1
    outer loop
      vertex -1.29443 0.940456 3
      vertex -1.21352 0.881678 3
      vertex -1.18903 1.07061 3
    endloop
  endfacet
  facet normal 0 0 1
    outer loop
      vertex -1.29443 0.940456 3
      vertex -1.29904 0.75 3
      vertex -1.21352 0.881678 3
    endloop
  endfacet
  facet normal -0 0 1
    outer loop
      vertex -1.38564 0.799999 3
      vertex -1.29904 0.75 3
      vertex -1.29443 0.940456 3
    endloop
  endfacet
  facet normal 0 0 1
    outer loop
      vertex -1.29904 0.75 3
      vertex -1.38564 0.799999 3
      vertex -1.37032 0.610105 3
    endloop
  endfacet
  facet normal -0 0 1
    outer loop
      vertex -1.46167 0.650778 3
      vertex -1.37032 0.610105 3
      vertex -1.38564 0.799999 3
    endloop
  endfacet
  facet normal 0 0 1
    outer loop
      vertex -1.37032 0.610105 3
      vertex -1.46167 0.650778 3
      vertex -1.42658 0.463525 3
    endloop
  endfacet
  facet normal -0 0 1
    outer loop
      vertex -1.52169 0.494427 3
      vertex -1.42658 0.463525 3
      vertex -1.46167 0.650778 3
    endloop
  endfacet
  facet normal 0 0 1
    outer loop
      vertex -1.42658 0.463525 3
      vertex -1.52169 0.494427 3
      vertex -1.46722 0.311867 3
    endloop
  endfacet
  facet normal 0 0 1
    outer loop
      vertex -1.46722 0.311867 3
      vertex -1.56504 0.332658 3
      vertex -1.49178 0.156793 3
    endloop
  endfacet
  facet normal -0 0 1
    outer loop
      vertex -1.56504 0.332658 3
      vertex -1.46722 0.311867 3
      vertex -1.52169 0.494427 3
    endloop
  endfacet
  facet normal -0 0 1
    outer loop
      vertex 1.46722 -0.311867 3
      vertex 1.56504 -0.332658 3
      vertex 1.49178 -0.156793 3
    endloop
  endfacet
  facet normal 0 0 1
    outer loop
      vertex 1.56504 -0.332658 3
      vertex 1.46722 -0.311867 3
      vertex 1.52169 -0.494427 3
    endloop
  endfacet
  facet normal -0 0 1
    outer loop
      vertex 1.42658 -0.463525 3
      vertex 1.52169 -0.494427 3
      vertex 1.46722 -0.311867 3
    endloop
  endfacet
  facet normal 0 0 1
    outer loop
      vertex 1.52169 -0.494427 3
      vertex 1.42658 -0.463525 3
      vertex 1.46167 -0.650778 3
    endloop
  endfacet
  facet normal -0 0 1
    outer loop
      vertex 1.37032 -0.610105 3
      vertex 1.46167 -0.650778 3
      vertex 1.42658 -0.463525 3
    endloop
  endfacet
  facet normal 0 0 1
    outer loop
      vertex 1.46167 -0.650778 3
      vertex 1.37032 -0.610105 3
      vertex 1.38564 -0.799999 3
    endloop
  endfacet
  facet normal -0 0 1
    outer loop
      vertex 1.29904 -0.75 3
      vertex 1.38564 -0.799999 3
      vertex 1.37032 -0.610105 3
    endloop
  endfacet
  facet normal 0 0 1
    outer loop
      vertex 1.29904 -0.75 3
      vertex 1.29443 -0.940456 3
      vertex 1.38564 -0.799999 3
    endloop
  endfacet
  facet normal -0 0 1
    outer loop
      vertex 1.21352 -0.881678 3
      vertex 1.29443 -0.940456 3
      vertex 1.29904 -0.75 3
    endloop
  endfacet
  facet normal 0 0 1
    outer loop
      vertex 1.21352 -0.881678 3
      vertex 1.18903 -1.07061 3
      vertex 1.29443 -0.940456 3
    endloop
  endfacet
  facet normal -0 0 1
    outer loop
      vertex 1.11472 -1.0037 3
      vertex 1.18903 -1.07061 3
      vertex 1.21352 -0.881678 3
    endloop
  endfacet
  facet normal 0 0 1
    outer loop
      vertex 1.11472 -1.0037 3
      vertex 1.07061 -1.18903 3
      vertex 1.18903 -1.07061 3
    endloop
  endfacet
  facet normal -0 0 1
    outer loop
      vertex 1.0037 -1.11472 3
      vertex 1.07061 -1.18903 3
      vertex 1.11472 -1.0037 3
    endloop
  endfacet
  facet normal 0 0 1
    outer loop
      vertex 1.0037 -1.11472 3
      vertex 0.940456 -1.29443 3
      vertex 1.07061 -1.18903 3
    endloop
  endfacet
  facet normal -0 0 1
    outer loop
      vertex 0.881678 -1.21352 3
      vertex 0.940456 -1.29443 3
      vertex 1.0037 -1.11472 3
    endloop
  endfacet
  facet normal 0 0 1
    outer loop
      vertex 0.881678 -1.21352 3
      vertex 0.799999 -1.38564 3
      vertex 0.940456 -1.29443 3
    endloop
  endfacet
  facet normal -0 0 1
    outer loop
      vertex 0.75 -1.29904 3
      vertex 0.799999 -1.38564 3
      vertex 0.881678 -1.21352 3
    endloop
  endfacet
  facet normal 0 0 1
    outer loop
      vertex 0.75 -1.29904 3
      vertex 0.650778 -1.46167 3
      vertex 0.799999 -1.38564 3
    endloop
  endfacet
  facet normal -0 0 1
    outer loop
      vertex 0.610105 -1.37032 3
      vertex 0.650778 -1.46167 3
      vertex 0.75 -1.29904 3
    endloop
  endfacet
  facet normal 0 0 1
    outer loop
      vertex 0.610105 -1.37032 3
      vertex 0.494427 -1.52169 3
      vertex 0.650778 -1.46167 3
    endloop
  endfacet
  facet normal -0 0 1
    outer loop
      vertex 0.463525 -1.42658 3
      vertex 0.494427 -1.52169 3
      vertex 0.610105 -1.37032 3
    endloop
  endfacet
  facet normal 0 0 1
    outer loop
      vertex 0.463525 -1.42658 3
      vertex 0.332658 -1.56504 3
      vertex 0.494427 -1.52169 3
    endloop
  endfacet
  facet normal -0 0 1
    outer loop
      vertex 0.311867 -1.46722 3
      vertex 0.332658 -1.56504 3
      vertex 0.463525 -1.42658 3
    endloop
  endfacet
  facet normal 0 0 1
    outer loop
      vertex 0.311867 -1.46722 3
      vertex 0.167245 -1.59123 3
      vertex 0.332658 -1.56504 3
    endloop
  endfacet
  facet normal -0 0 1
    outer loop
      vertex 0.156793 -1.49178 3
      vertex 0.167245 -1.59123 3
      vertex 0.311867 -1.46722 3
    endloop
  endfacet
  facet normal -0 0 1
    outer loop
      vertex 0 -1.5 3
      vertex 0.167245 -1.59123 3
      vertex 0.156793 -1.49178 3
    endloop
  endfacet
  facet normal 0 0 1
    outer loop
      vertex 0 -1.5 3
      vertex 0 -1.6 3
      vertex 0.167245 -1.59123 3
    endloop
  endfacet
  facet normal 0 0 1
    outer loop
      vertex -0.156793 -1.49178 3
      vertex 0 -1.6 3
      vertex 0 -1.5 3
    endloop
  endfacet
  facet normal 0 0 1
    outer loop
      vertex -0.156793 -1.49178 3
      vertex -0.167245 -1.59123 3
      vertex 0 -1.6 3
    endloop
  endfacet
  facet normal 0 0 1
    outer loop
      vertex -0.311867 -1.46722 3
      vertex -0.167245 -1.59123 3
      vertex -0.156793 -1.49178 3
    endloop
  endfacet
  facet normal 0 0 1
    outer loop
      vertex -0.311867 -1.46722 3
      vertex -0.332658 -1.56504 3
      vertex -0.167245 -1.59123 3
    endloop
  endfacet
  facet normal 0 0 1
    outer loop
      vertex -0.463525 -1.42658 3
      vertex -0.332658 -1.56504 3
      vertex -0.311867 -1.46722 3
    endloop
  endfacet
  facet normal 0 0 1
    outer loop
      vertex -0.463525 -1.42658 3
      vertex -0.494427 -1.52169 3
      vertex -0.332658 -1.56504 3
    endloop
  endfacet
  facet normal 0 0 1
    outer loop
      vertex -0.610105 -1.37032 3
      vertex -0.494427 -1.52169 3
      vertex -0.463525 -1.42658 3
    endloop
  endfacet
  facet normal 0 0 1
    outer loop
      vertex -0.610105 -1.37032 3
      vertex -0.650778 -1.46167 3
      vertex -0.494427 -1.52169 3
    endloop
  endfacet
  facet normal 0 0 1
    outer loop
      vertex -0.75 -1.29904 3
      vertex -0.650778 -1.46167 3
      vertex -0.610105 -1.37032 3
    endloop
  endfacet
  facet normal 0 0 1
    outer loop
      vertex -0.75 -1.29904 3
      vertex -0.799999 -1.38564 3
      vertex -0.650778 -1.46167 3
    endloop
  endfacet
  facet normal 0 0 1
    outer loop
      vertex -0.881678 -1.21352 3
      vertex -0.799999 -1.38564 3
      vertex -0.75 -1.29904 3
    endloop
  endfacet
  facet normal 0 0 1
    outer loop
      vertex -0.881678 -1.21352 3
      vertex -0.940456 -1.29443 3
      vertex -0.799999 -1.38564 3
    endloop
  endfacet
  facet normal 0 0 1
    outer loop
      vertex -1.0037 -1.11472 3
      vertex -0.940456 -1.29443 3
      vertex -0.881678 -1.21352 3
    endloop
  endfacet
  facet normal 0 0 1
    outer loop
      vertex -1.0037 -1.11472 3
      vertex -1.07061 -1.18903 3
      vertex -0.940456 -1.29443 3
    endloop
  endfacet
  facet normal 0 0 1
    outer loop
      vertex -1.11472 -1.0037 3
      vertex -1.07061 -1.18903 3
      vertex -1.0037 -1.11472 3
    endloop
  endfacet
  facet normal 0 0 1
    outer loop
      vertex -1.11472 -1.0037 3
      vertex -1.18903 -1.07061 3
      vertex -1.07061 -1.18903 3
    endloop
  endfacet
  facet normal 0 0 1
    outer loop
      vertex -1.21352 -0.881678 3
      vertex -1.18903 -1.07061 3
      vertex -1.11472 -1.0037 3
    endloop
  endfacet
  facet normal 0 0 1
    outer loop
      vertex -1.21352 -0.881678 3
      vertex -1.29443 -0.940456 3
      vertex -1.18903 -1.07061 3
    endloop
  endfacet
  facet normal 0 0 1
    outer loop
      vertex -1.29904 -0.75 3
      vertex -1.29443 -0.940456 3
      vertex -1.21352 -0.881678 3
    endloop
  endfacet
  facet normal 0 0 1
    outer loop
      vertex -1.38564 -0.799999 3
      vertex -1.29904 -0.75 3
      vertex -1.37032 -0.610105 3
    endloop
  endfacet
  facet normal 0 0 1
    outer loop
      vertex -1.29904 -0.75 3
      vertex -1.38564 -0.799999 3
      vertex -1.29443 -0.940456 3
    endloop
  endfacet
  facet normal 0 0 1
    outer loop
      vertex -1.46167 -0.650778 3
      vertex -1.37032 -0.610105 3
      vertex -1.42658 -0.463525 3
    endloop
  endfacet
  facet normal 0 0 1
    outer loop
      vertex -1.37032 -0.610105 3
      vertex -1.46167 -0.650778 3
      vertex -1.38564 -0.799999 3
    endloop
  endfacet
  facet normal 0 0 1
    outer loop
      vertex -1.52169 -0.494427 3
      vertex -1.42658 -0.463525 3
      vertex -1.46722 -0.311867 3
    endloop
  endfacet
  facet normal 0 0 1
    outer loop
      vertex -1.56504 -0.332658 3
      vertex -1.46722 -0.311867 3
      vertex -1.49178 -0.156793 3
    endloop
  endfacet
  facet normal 0 0 1
    outer loop
      vertex -1.42658 -0.463525 3
      vertex -1.52169 -0.494427 3
      vertex -1.46167 -0.650778 3
    endloop
  endfacet
  facet normal 0 0 1
    outer loop
      vertex -1.59123 -0.167245 3
      vertex -1.49178 -0.156793 3
      vertex -1.5 0 3
    endloop
  endfacet
  facet normal -0 0 1
    outer loop
      vertex -1.59123 0.167245 3
      vertex -1.49178 0.156793 3
      vertex -1.56504 0.332658 3
    endloop
  endfacet
  facet normal 0 0 1
    outer loop
      vertex -1.49178 0.156793 3
      vertex -1.59123 0.167245 3
      vertex -1.5 0 3
    endloop
  endfacet
  facet normal 0 0 1
    outer loop
      vertex -1.46722 -0.311867 3
      vertex -1.56504 -0.332658 3
      vertex -1.52169 -0.494427 3
    endloop
  endfacet
  facet normal 0 0 1
    outer loop
      vertex -1.6 0 3
      vertex -1.5 0 3
      vertex -1.59123 0.167245 3
    endloop
  endfacet
  facet normal 0 0 1
    outer loop
      vertex -1.49178 -0.156793 3
      vertex -1.59123 -0.167245 3
      vertex -1.56504 -0.332658 3
    endloop
  endfacet
  facet normal 0 0 1
    outer loop
      vertex -1.5 0 3
      vertex -1.6 0 3
      vertex -1.59123 -0.167245 3
    endloop
  endfacet
  facet normal -0.0474252 -0.905163 0.42241
    outer loop
      vertex 0 -1.6 3
      vertex -0.313585 -2.98357 0
      vertex 0 -3 0
    endloop
  endfacet
  facet normal -0.324818 -0.846205 0.42241
    outer loop
      vertex -0.494427 -1.52169 3
      vertex -1.22021 -2.74064 0
      vertex -0.927051 -2.85317 0
    endloop
  endfacet
  facet normal 0.411491 0.807616 0.422411
    outer loop
      vertex 1.22021 2.74064 0
      vertex 0.650778 1.46167 3
      vertex 0.799999 1.38564 3
    endloop
  endfacet
  facet normal 0.324838 0.846197 0.422411
    outer loop
      vertex 1.22021 2.74064 0
      vertex 0.494427 1.52169 3
      vertex 0.650778 1.46167 3
    endloop
  endfacet
  facet normal 0.493668 0.760173 0.422409
    outer loop
      vertex 1.5 2.59808 0
      vertex 0.940456 1.29443 3
      vertex 1.76336 2.42705 0
    endloop
  endfacet
  facet normal 0.570434 0.704397 0.422409
    outer loop
      vertex 1.76336 2.42705 0
      vertex 0.940456 1.29443 3
      vertex 2.00739 2.22943 0
    endloop
  endfacet
  facet normal 0.7044 0.57043 0.422409
    outer loop
      vertex 2.22943 2.00739 0
      vertex 1.18903 1.07061 3
      vertex 1.29443 0.940456 3
    endloop
  endfacet
  facet normal 0.846205 0.324818 0.42241
    outer loop
      vertex 2.74064 1.22021 0
      vertex 1.52169 0.494427 3
      vertex 2.85317 0.927051 0
    endloop
  endfacet
  facet normal 0.875515 0.234616 0.422407
    outer loop
      vertex 2.93444 0.623734 0
      vertex 1.52169 0.494427 3
      vertex 1.56504 0.332658 3
    endloop
  endfacet
  facet normal 0.895243 0.141813 0.422408
    outer loop
      vertex 2.93444 0.623734 0
      vertex 1.56504 0.332658 3
      vertex 2.98357 0.313585 0
    endloop
  endfacet
  facet normal 0.90516 0.0474648 0.422412
    outer loop
      vertex 2.98357 0.313585 0
      vertex 1.59123 0.167245 3
      vertex 1.6 0 3
    endloop
  endfacet
  facet normal 0.640926 -0.640926 0.422408
    outer loop
      vertex 1.07061 -1.18903 3
      vertex 2.22943 -2.00739 0
      vertex 1.18903 -1.07061 3
    endloop
  endfacet
  facet normal 0.640926 -0.640926 0.422408
    outer loop
      vertex 2.22943 -2.00739 0
      vertex 1.07061 -1.18903 3
      vertex 2.00739 -2.22943 0
    endloop
  endfacet
  facet normal 0.493649 -0.760184 0.422411
    outer loop
      vertex 0.940456 -1.29443 3
      vertex 0.799999 -1.38564 3
      vertex 1.5 -2.59808 0
    endloop
  endfacet
  facet normal 0.493668 -0.760173 0.422409
    outer loop
      vertex 1.76336 -2.42705 0
      vertex 0.940456 -1.29443 3
      vertex 1.5 -2.59808 0
    endloop
  endfacet
  facet normal 0.760173 -0.493668 0.422409
    outer loop
      vertex 2.59808 -1.5 0
      vertex 1.29443 -0.940456 3
      vertex 2.42705 -1.76336 0
    endloop
  endfacet
  facet normal 0.875523 -0.234585 0.422409
    outer loop
      vertex 2.93444 -0.623734 0
      vertex 1.52169 -0.494427 3
      vertex 2.85317 -0.927051 0
    endloop
  endfacet
  facet normal 0.846205 -0.324818 0.42241
    outer loop
      vertex 2.85317 -0.927051 0
      vertex 1.52169 -0.494427 3
      vertex 2.74064 -1.22021 0
    endloop
  endfacet
  facet normal 0.895243 -0.141813 0.422408
    outer loop
      vertex 2.98357 -0.313585 0
      vertex 1.56504 -0.332658 3
      vertex 2.93444 -0.623734 0
    endloop
  endfacet
  facet normal -0.0474648 0.90516 0.422412
    outer loop
      vertex 0 1.6 3
      vertex -0.313585 2.98357 0
      vertex -0.167245 1.59123 3
    endloop
  endfacet
  facet normal -0.141746 0.895252 0.422413
    outer loop
      vertex -0.313585 2.98357 0
      vertex -0.332658 1.56504 3
      vertex -0.167245 1.59123 3
    endloop
  endfacet
  facet normal -0.411491 0.807616 0.422411
    outer loop
      vertex -0.650778 1.46167 3
      vertex -1.22021 2.74064 0
      vertex -0.799999 1.38564 3
    endloop
  endfacet
  facet normal -0.411499 0.807613 0.42241
    outer loop
      vertex -1.22021 2.74064 0
      vertex -1.5 2.59808 0
      vertex -0.799999 1.38564 3
    endloop
  endfacet
  facet normal 0.141813 0.895243 0.422408
    outer loop
      vertex 0.623734 2.93444 0
      vertex 0.313585 2.98357 0
      vertex 0.332658 1.56504 3
    endloop
  endfacet
  facet normal -0.760184 -0.493649 0.422411
    outer loop
      vertex -1.38564 -0.799999 3
      vertex -2.59808 -1.5 0
      vertex -1.29443 -0.940456 3
    endloop
  endfacet
  facet normal -0.807613 -0.411499 0.42241
    outer loop
      vertex -1.38564 -0.799999 3
      vertex -2.74064 -1.22021 0
      vertex -2.59808 -1.5 0
    endloop
  endfacet
  facet normal -0.846197 -0.324838 0.422411
    outer loop
      vertex -1.52169 -0.494427 3
      vertex -2.74064 -1.22021 0
      vertex -1.46167 -0.650778 3
    endloop
  endfacet
  facet normal -0.760173 -0.493668 0.422409
    outer loop
      vertex -1.29443 -0.940456 3
      vertex -2.59808 -1.5 0
      vertex -2.42705 -1.76336 0
    endloop
  endfacet
  facet normal -0.90516 -0.0474648 0.422412
    outer loop
      vertex -1.6 0 3
      vertex -2.98357 -0.313585 0
      vertex -1.59123 -0.167245 3
    endloop
  endfacet
  facet normal -0.905163 -0.0474252 0.42241
    outer loop
      vertex -1.6 0 3
      vertex -3 0 0
      vertex -2.98357 -0.313585 0
    endloop
  endfacet
  facet normal -0.760184 0.493649 0.422411
    outer loop
      vertex -1.29443 0.940456 3
      vertex -2.59808 1.5 0
      vertex -1.38564 0.799999 3
    endloop
  endfacet
  facet normal -0.807613 0.411499 0.42241
    outer loop
      vertex -2.59808 1.5 0
      vertex -2.74064 1.22021 0
      vertex -1.38564 0.799999 3
    endloop
  endfacet
  facet normal -0.895252 0.141746 0.422413
    outer loop
      vertex -1.56504 0.332658 3
      vertex -2.98357 0.313585 0
      vertex -1.59123 0.167245 3
    endloop
  endfacet
  facet normal -0.90516 0.0474648 0.422412
    outer loop
      vertex -1.59123 0.167245 3
      vertex -2.98357 0.313585 0
      vertex -1.6 0 3
    endloop
  endfacet
  facet normal 0.141813 -0.895243 0.422408
    outer loop
      vertex 0.332658 -1.56504 3
      vertex 0.313585 -2.98357 0
      vertex 0.623734 -2.93444 0
    endloop
  endfacet
  facet normal 0.234616 -0.875515 0.422407
    outer loop
      vertex 0.494427 -1.52169 3
      vertex 0.332658 -1.56504 3
      vertex 0.623734 -2.93444 0
    endloop
  endfacet
  facet normal -0.141746 -0.895252 0.422413
    outer loop
      vertex -0.167245 -1.59123 3
      vertex -0.332658 -1.56504 3
      vertex -0.313585 -2.98357 0
    endloop
  endfacet
  facet normal -0.0474648 -0.90516 0.422412
    outer loop
      vertex -0.167245 -1.59123 3
      vertex -0.313585 -2.98357 0
      vertex 0 -1.6 3
    endloop
  endfacet
  facet normal -0.234585 -0.875523 0.422409
    outer loop
      vertex -0.494427 -1.52169 3
      vertex -0.927051 -2.85317 0
      vertex -0.623734 -2.93444 0
    endloop
  endfacet
  facet normal -0.234616 -0.875515 0.422407
    outer loop
      vertex -0.494427 -1.52169 3
      vertex -0.623734 -2.93444 0
      vertex -0.332658 -1.56504 3
    endloop
  endfacet
  facet normal -0.493649 -0.760184 0.422411
    outer loop
      vertex -0.940456 -1.29443 3
      vertex -1.5 -2.59808 0
      vertex -0.799999 -1.38564 3
    endloop
  endfacet
  facet normal -0.493668 -0.760173 0.422409
    outer loop
      vertex -0.940456 -1.29443 3
      vertex -1.76336 -2.42705 0
      vertex -1.5 -2.59808 0
    endloop
  endfacet
  facet normal 0.493649 0.760184 0.422411
    outer loop
      vertex 1.5 2.59808 0
      vertex 0.799999 1.38564 3
      vertex 0.940456 1.29443 3
    endloop
  endfacet
  facet normal 0.640926 0.640926 0.422408
    outer loop
      vertex 1.07061 1.18903 3
      vertex 2.22943 2.00739 0
      vertex 2.00739 2.22943 0
    endloop
  endfacet
  facet normal 0.640926 0.640926 0.422408
    outer loop
      vertex 2.22943 2.00739 0
      vertex 1.07061 1.18903 3
      vertex 1.18903 1.07061 3
    endloop
  endfacet
  facet normal 0.807616 0.411491 0.422411
    outer loop
      vertex 2.74064 1.22021 0
      vertex 1.38564 0.799999 3
      vertex 1.46167 0.650778 3
    endloop
  endfacet
  facet normal 0.7044 -0.57043 0.422409
    outer loop
      vertex 1.29443 -0.940456 3
      vertex 1.18903 -1.07061 3
      vertex 2.22943 -2.00739 0
    endloop
  endfacet
  facet normal 0.57043 -0.7044 0.422409
    outer loop
      vertex 1.07061 -1.18903 3
      vertex 0.940456 -1.29443 3
      vertex 2.00739 -2.22943 0
    endloop
  endfacet
  facet normal 0.411491 -0.807616 0.422411
    outer loop
      vertex 0.799999 -1.38564 3
      vertex 0.650778 -1.46167 3
      vertex 1.22021 -2.74064 0
    endloop
  endfacet
  facet normal 0.760184 -0.493649 0.422411
    outer loop
      vertex 1.38564 -0.799999 3
      vertex 1.29443 -0.940456 3
      vertex 2.59808 -1.5 0
    endloop
  endfacet
  facet normal 0.807613 -0.411499 0.42241
    outer loop
      vertex 2.74064 -1.22021 0
      vertex 1.38564 -0.799999 3
      vertex 2.59808 -1.5 0
    endloop
  endfacet
  facet normal 0.895252 -0.141746 0.422413
    outer loop
      vertex 1.59123 -0.167245 3
      vertex 1.56504 -0.332658 3
      vertex 2.98357 -0.313585 0
    endloop
  endfacet
  facet normal 0.90516 -0.0474648 0.422412
    outer loop
      vertex 1.6 0 3
      vertex 1.59123 -0.167245 3
      vertex 2.98357 -0.313585 0
    endloop
  endfacet
  facet normal 0.141746 0.895252 0.422413
    outer loop
      vertex 0.313585 2.98357 0
      vertex 0.167245 1.59123 3
      vertex 0.332658 1.56504 3
    endloop
  endfacet
  facet normal 0.0474648 0.90516 0.422412
    outer loop
      vertex 0.313585 2.98357 0
      vertex 0 1.6 3
      vertex 0.167245 1.59123 3
    endloop
  endfacet
  facet normal -0.807616 -0.411491 0.422411
    outer loop
      vertex -1.46167 -0.650778 3
      vertex -2.74064 -1.22021 0
      vertex -1.38564 -0.799999 3
    endloop
  endfacet
  facet normal -0.704397 -0.570434 0.422409
    outer loop
      vertex -1.29443 -0.940456 3
      vertex -2.42705 -1.76336 0
      vertex -2.22943 -2.00739 0
    endloop
  endfacet
  facet normal -0.7044 -0.57043 0.422409
    outer loop
      vertex -1.29443 -0.940456 3
      vertex -2.22943 -2.00739 0
      vertex -1.18903 -1.07061 3
    endloop
  endfacet
  facet normal 0.0474648 -0.90516 0.422412
    outer loop
      vertex 0.167245 -1.59123 3
      vertex 0 -1.6 3
      vertex 0.313585 -2.98357 0
    endloop
  endfacet
  facet normal -0.141813 -0.895243 0.422408
    outer loop
      vertex -0.332658 -1.56504 3
      vertex -0.623734 -2.93444 0
      vertex -0.313585 -2.98357 0
    endloop
  endfacet
  facet normal -0.324838 -0.846197 0.422411
    outer loop
      vertex -0.650778 -1.46167 3
      vertex -1.22021 -2.74064 0
      vertex -0.494427 -1.52169 3
    endloop
  endfacet
  facet normal -0.57043 -0.7044 0.422409
    outer loop
      vertex -1.07061 -1.18903 3
      vertex -2.00739 -2.22943 0
      vertex -0.940456 -1.29443 3
    endloop
  endfacet
  facet normal 0.807616 -0.411491 0.422411
    outer loop
      vertex 1.46167 -0.650778 3
      vertex 1.38564 -0.799999 3
      vertex 2.74064 -1.22021 0
    endloop
  endfacet
  facet normal -0.411491 -0.807616 0.422411
    outer loop
      vertex -0.799999 -1.38564 3
      vertex -1.22021 -2.74064 0
      vertex -0.650778 -1.46167 3
    endloop
  endfacet
  facet normal 0.998629 0.0523539 0
    outer loop
      vertex 1.5 0 7
      vertex 1.49178 0.156793 3
      vertex 1.49178 0.156793 7
    endloop
  endfacet
  facet normal 0.998629 0.0523539 0
    outer loop
      vertex 1.49178 0.156793 3
      vertex 1.5 0 7
      vertex 1.5 0 3
    endloop
  endfacet
  facet normal -0.998629 0.0523539 0
    outer loop
      vertex -1.5 0 3
      vertex -1.49178 0.156793 7
      vertex -1.49178 0.156793 3
    endloop
  endfacet
  facet normal -0.998629 0.0523539 0
    outer loop
      vertex -1.49178 0.156793 7
      vertex -1.5 0 3
      vertex -1.5 0 7
    endloop
  endfacet
  facet normal 0.0523539 0.998629 -0
    outer loop
      vertex 0.156793 1.49178 3
      vertex 0 1.5 7
      vertex 0.156793 1.49178 7
    endloop
  endfacet
  facet normal 0.0523539 0.998629 0
    outer loop
      vertex 0 1.5 7
      vertex 0.156793 1.49178 3
      vertex 0 1.5 3
    endloop
  endfacet
  facet normal -0.0523539 -0.998629 0
    outer loop
      vertex -0.156793 -1.49178 3
      vertex 0 -1.5 7
      vertex -0.156793 -1.49178 7
    endloop
  endfacet
  facet normal -0.0523539 -0.998629 -0
    outer loop
      vertex 0 -1.5 7
      vertex -0.156793 -1.49178 3
      vertex 0 -1.5 3
    endloop
  endfacet
  facet normal -0.777182 -0.629276 0
    outer loop
      vertex -1.11472 -1.0037 3
      vertex -1.21352 -0.881678 7
      vertex -1.21352 -0.881678 3
    endloop
  endfacet
  facet normal -0.777182 -0.629276 0
    outer loop
      vertex -1.21352 -0.881678 7
      vertex -1.11472 -1.0037 3
      vertex -1.11472 -1.0037 7
    endloop
  endfacet
  facet normal 0.707107 0.707107 0
    outer loop
      vertex 1.11472 1.0037 7
      vertex 1.0037 1.11472 3
      vertex 1.0037 1.11472 7
    endloop
  endfacet
  facet normal 0.707107 0.707107 0
    outer loop
      vertex 1.0037 1.11472 3
      vertex 1.11472 1.0037 7
      vertex 1.11472 1.0037 3
    endloop
  endfacet
  facet normal -0.629276 0.777182 0
    outer loop
      vertex -0.881678 1.21352 3
      vertex -1.0037 1.11472 7
      vertex -0.881678 1.21352 7
    endloop
  endfacet
  facet normal -0.629276 0.777182 0
    outer loop
      vertex -1.0037 1.11472 7
      vertex -0.881678 1.21352 3
      vertex -1.0037 1.11472 3
    endloop
  endfacet
  facet normal -0.35833 0.933595 0
    outer loop
      vertex -0.463525 1.42658 3
      vertex -0.610105 1.37032 7
      vertex -0.463525 1.42658 7
    endloop
  endfacet
  facet normal -0.35833 0.933595 0
    outer loop
      vertex -0.610105 1.37032 7
      vertex -0.463525 1.42658 3
      vertex -0.610105 1.37032 3
    endloop
  endfacet
  facet normal 0.891007 0.45399 0
    outer loop
      vertex 1.37032 0.610105 7
      vertex 1.29904 0.75 3
      vertex 1.29904 0.75 7
    endloop
  endfacet
  facet normal 0.891007 0.45399 0
    outer loop
      vertex 1.29904 0.75 3
      vertex 1.37032 0.610105 7
      vertex 1.37032 0.610105 3
    endloop
  endfacet
  facet normal 0.45399 0.891007 -0
    outer loop
      vertex 0.75 1.29904 3
      vertex 0.610105 1.37032 7
      vertex 0.75 1.29904 7
    endloop
  endfacet
  facet normal 0.45399 0.891007 0
    outer loop
      vertex 0.610105 1.37032 7
      vertex 0.75 1.29904 3
      vertex 0.610105 1.37032 3
    endloop
  endfacet
  facet normal 0.544672 0.838649 -0
    outer loop
      vertex 0.881678 1.21352 3
      vertex 0.75 1.29904 7
      vertex 0.881678 1.21352 7
    endloop
  endfacet
  facet normal 0.544672 0.838649 0
    outer loop
      vertex 0.75 1.29904 7
      vertex 0.881678 1.21352 3
      vertex 0.75 1.29904 3
    endloop
  endfacet
  facet normal -0.891007 0.45399 0
    outer loop
      vertex -1.37032 0.610105 3
      vertex -1.29904 0.75 7
      vertex -1.29904 0.75 3
    endloop
  endfacet
  facet normal -0.891007 0.45399 0
    outer loop
      vertex -1.29904 0.75 7
      vertex -1.37032 0.610105 3
      vertex -1.37032 0.610105 7
    endloop
  endfacet
  facet normal -0.45399 0.891007 0
    outer loop
      vertex -0.610105 1.37032 3
      vertex -0.75 1.29904 7
      vertex -0.610105 1.37032 7
    endloop
  endfacet
  facet normal -0.45399 0.891007 0
    outer loop
      vertex -0.75 1.29904 7
      vertex -0.610105 1.37032 3
      vertex -0.75 1.29904 3
    endloop
  endfacet
  facet normal -0.156426 0.98769 0
    outer loop
      vertex -0.156793 1.49178 3
      vertex -0.311867 1.46722 7
      vertex -0.156793 1.49178 7
    endloop
  endfacet
  facet normal -0.156426 0.98769 0
    outer loop
      vertex -0.311867 1.46722 7
      vertex -0.156793 1.49178 3
      vertex -0.311867 1.46722 3
    endloop
  endfacet
  facet normal 0.933595 -0.35833 0
    outer loop
      vertex 1.37032 -0.610105 7
      vertex 1.42658 -0.463525 3
      vertex 1.42658 -0.463525 7
    endloop
  endfacet
  facet normal 0.933595 -0.35833 0
    outer loop
      vertex 1.42658 -0.463525 3
      vertex 1.37032 -0.610105 7
      vertex 1.37032 -0.610105 3
    endloop
  endfacet
  facet normal -0.891007 -0.45399 0
    outer loop
      vertex -1.29904 -0.75 3
      vertex -1.37032 -0.610105 7
      vertex -1.37032 -0.610105 3
    endloop
  endfacet
  facet normal -0.891007 -0.45399 0
    outer loop
      vertex -1.37032 -0.610105 7
      vertex -1.29904 -0.75 3
      vertex -1.29904 -0.75 7
    endloop
  endfacet
  facet normal 0.96592 0.258839 0
    outer loop
      vertex 1.46722 0.311867 7
      vertex 1.42658 0.463525 3
      vertex 1.42658 0.463525 7
    endloop
  endfacet
  facet normal 0.96592 0.258839 0
    outer loop
      vertex 1.42658 0.463525 3
      vertex 1.46722 0.311867 7
      vertex 1.46722 0.311867 3
    endloop
  endfacet
  facet normal 0.98769 0.156426 0
    outer loop
      vertex 1.49178 0.156793 7
      vertex 1.46722 0.311867 3
      vertex 1.46722 0.311867 7
    endloop
  endfacet
  facet normal 0.98769 0.156426 0
    outer loop
      vertex 1.46722 0.311867 3
      vertex 1.49178 0.156793 7
      vertex 1.49178 0.156793 3
    endloop
  endfacet
  facet normal 0.933595 0.35833 0
    outer loop
      vertex 1.42658 0.463525 7
      vertex 1.37032 0.610105 3
      vertex 1.37032 0.610105 7
    endloop
  endfacet
  facet normal 0.933595 0.35833 0
    outer loop
      vertex 1.37032 0.610105 3
      vertex 1.42658 0.463525 7
      vertex 1.42658 0.463525 3
    endloop
  endfacet
  facet normal 0.777182 0.629276 0
    outer loop
      vertex 1.21352 0.881678 7
      vertex 1.11472 1.0037 3
      vertex 1.11472 1.0037 7
    endloop
  endfacet
  facet normal 0.777182 0.629276 0
    outer loop
      vertex 1.11472 1.0037 3
      vertex 1.21352 0.881678 7
      vertex 1.21352 0.881678 3
    endloop
  endfacet
  facet normal 0.838649 0.544672 0
    outer loop
      vertex 1.29904 0.75 7
      vertex 1.21352 0.881678 3
      vertex 1.21352 0.881678 7
    endloop
  endfacet
  facet normal 0.838649 0.544672 0
    outer loop
      vertex 1.21352 0.881678 3
      vertex 1.29904 0.75 7
      vertex 1.29904 0.75 3
    endloop
  endfacet
  facet normal 0.258839 0.96592 -0
    outer loop
      vertex 0.463525 1.42658 3
      vertex 0.311867 1.46722 7
      vertex 0.463525 1.42658 7
    endloop
  endfacet
  facet normal 0.258839 0.96592 0
    outer loop
      vertex 0.311867 1.46722 7
      vertex 0.463525 1.42658 3
      vertex 0.311867 1.46722 3
    endloop
  endfacet
  facet normal 0.35833 0.933595 -0
    outer loop
      vertex 0.610105 1.37032 3
      vertex 0.463525 1.42658 7
      vertex 0.610105 1.37032 7
    endloop
  endfacet
  facet normal 0.35833 0.933595 0
    outer loop
      vertex 0.463525 1.42658 7
      vertex 0.610105 1.37032 3
      vertex 0.463525 1.42658 3
    endloop
  endfacet
  facet normal 0.156426 0.98769 -0
    outer loop
      vertex 0.311867 1.46722 3
      vertex 0.156793 1.49178 7
      vertex 0.311867 1.46722 7
    endloop
  endfacet
  facet normal 0.156426 0.98769 0
    outer loop
      vertex 0.156793 1.49178 7
      vertex 0.311867 1.46722 3
      vertex 0.156793 1.49178 3
    endloop
  endfacet
  facet normal 0.629276 0.777182 -0
    outer loop
      vertex 1.0037 1.11472 3
      vertex 0.881678 1.21352 7
      vertex 1.0037 1.11472 7
    endloop
  endfacet
  facet normal 0.629276 0.777182 0
    outer loop
      vertex 0.881678 1.21352 7
      vertex 1.0037 1.11472 3
      vertex 0.881678 1.21352 3
    endloop
  endfacet
  facet normal -0.96592 0.258839 0
    outer loop
      vertex -1.46722 0.311867 3
      vertex -1.42658 0.463525 7
      vertex -1.42658 0.463525 3
    endloop
  endfacet
  facet normal -0.96592 0.258839 0
    outer loop
      vertex -1.42658 0.463525 7
      vertex -1.46722 0.311867 3
      vertex -1.46722 0.311867 7
    endloop
  endfacet
  facet normal -0.777182 0.629276 0
    outer loop
      vertex -1.21352 0.881678 3
      vertex -1.11472 1.0037 7
      vertex -1.11472 1.0037 3
    endloop
  endfacet
  facet normal -0.777182 0.629276 0
    outer loop
      vertex -1.11472 1.0037 7
      vertex -1.21352 0.881678 3
      vertex -1.21352 0.881678 7
    endloop
  endfacet
  facet normal -0.707107 0.707107 0
    outer loop
      vertex -1.11472 1.0037 3
      vertex -1.0037 1.11472 7
      vertex -1.0037 1.11472 3
    endloop
  endfacet
  facet normal -0.707107 0.707107 0
    outer loop
      vertex -1.0037 1.11472 7
      vertex -1.11472 1.0037 3
      vertex -1.11472 1.0037 7
    endloop
  endfacet
  facet normal -0.838649 0.544672 0
    outer loop
      vertex -1.29904 0.75 3
      vertex -1.21352 0.881678 7
      vertex -1.21352 0.881678 3
    endloop
  endfacet
  facet normal -0.838649 0.544672 0
    outer loop
      vertex -1.21352 0.881678 7
      vertex -1.29904 0.75 3
      vertex -1.29904 0.75 7
    endloop
  endfacet
  facet normal -0.933595 0.35833 0
    outer loop
      vertex -1.42658 0.463525 3
      vertex -1.37032 0.610105 7
      vertex -1.37032 0.610105 3
    endloop
  endfacet
  facet normal -0.933595 0.35833 0
    outer loop
      vertex -1.37032 0.610105 7
      vertex -1.42658 0.463525 3
      vertex -1.42658 0.463525 7
    endloop
  endfacet
  facet normal -0.98769 0.156426 0
    outer loop
      vertex -1.49178 0.156793 3
      vertex -1.46722 0.311867 7
      vertex -1.46722 0.311867 3
    endloop
  endfacet
  facet normal -0.98769 0.156426 0
    outer loop
      vertex -1.46722 0.311867 7
      vertex -1.49178 0.156793 3
      vertex -1.49178 0.156793 7
    endloop
  endfacet
  facet normal 0 0 1
    outer loop
      vertex 1.49178 0.156793 7
      vertex 1.49178 -0.156793 7
      vertex 1.5 0 7
    endloop
  endfacet
  facet normal 0 0 1
    outer loop
      vertex 1.46722 0.311867 7
      vertex 1.49178 -0.156793 7
      vertex 1.49178 0.156793 7
    endloop
  endfacet
  facet normal 0 0 1
    outer loop
      vertex 1.46722 0.311867 7
      vertex 1.46722 -0.311867 7
      vertex 1.49178 -0.156793 7
    endloop
  endfacet
  facet normal 0 0 1
    outer loop
      vertex 1.42658 0.463525 7
      vertex 1.46722 -0.311867 7
      vertex 1.46722 0.311867 7
    endloop
  endfacet
  facet normal 0 0 1
    outer loop
      vertex 1.42658 0.463525 7
      vertex 1.42658 -0.463525 7
      vertex 1.46722 -0.311867 7
    endloop
  endfacet
  facet normal 0 0 1
    outer loop
      vertex 1.37032 0.610105 7
      vertex 1.42658 -0.463525 7
      vertex 1.42658 0.463525 7
    endloop
  endfacet
  facet normal 0 0 1
    outer loop
      vertex 1.37032 0.610105 7
      vertex 1.37032 -0.610105 7
      vertex 1.42658 -0.463525 7
    endloop
  endfacet
  facet normal 0 0 1
    outer loop
      vertex 1.29904 0.75 7
      vertex 1.37032 -0.610105 7
      vertex 1.37032 0.610105 7
    endloop
  endfacet
  facet normal 0 0 1
    outer loop
      vertex 1.29904 0.75 7
      vertex 1.29904 -0.75 7
      vertex 1.37032 -0.610105 7
    endloop
  endfacet
  facet normal 0 0 1
    outer loop
      vertex 1.21352 0.881678 7
      vertex 1.29904 -0.75 7
      vertex 1.29904 0.75 7
    endloop
  endfacet
  facet normal 0 0 1
    outer loop
      vertex 1.21352 0.881678 7
      vertex 1.21352 -0.881678 7
      vertex 1.29904 -0.75 7
    endloop
  endfacet
  facet normal 0 0 1
    outer loop
      vertex 1.11472 1.0037 7
      vertex 1.21352 -0.881678 7
      vertex 1.21352 0.881678 7
    endloop
  endfacet
  facet normal 0 0 1
    outer loop
      vertex 1.11472 1.0037 7
      vertex 1.11472 -1.0037 7
      vertex 1.21352 -0.881678 7
    endloop
  endfacet
  facet normal 0 0 1
    outer loop
      vertex 1.0037 1.11472 7
      vertex 1.11472 -1.0037 7
      vertex 1.11472 1.0037 7
    endloop
  endfacet
  facet normal 0 0 1
    outer loop
      vertex 1.0037 1.11472 7
      vertex 1.0037 -1.11472 7
      vertex 1.11472 -1.0037 7
    endloop
  endfacet
  facet normal 0 0 1
    outer loop
      vertex 0.881678 1.21352 7
      vertex 1.0037 -1.11472 7
      vertex 1.0037 1.11472 7
    endloop
  endfacet
  facet normal 0 0 1
    outer loop
      vertex 0.881678 1.21352 7
      vertex 0.881678 -1.21352 7
      vertex 1.0037 -1.11472 7
    endloop
  endfacet
  facet normal 0 0 1
    outer loop
      vertex 0.75 1.29904 7
      vertex 0.881678 -1.21352 7
      vertex 0.881678 1.21352 7
    endloop
  endfacet
  facet normal 0 0 1
    outer loop
      vertex 0.75 1.29904 7
      vertex 0.75 -1.29904 7
      vertex 0.881678 -1.21352 7
    endloop
  endfacet
  facet normal 0 0 1
    outer loop
      vertex 0.610105 1.37032 7
      vertex 0.75 -1.29904 7
      vertex 0.75 1.29904 7
    endloop
  endfacet
  facet normal 0 0 1
    outer loop
      vertex 0.610105 1.37032 7
      vertex 0.610105 -1.37032 7
      vertex 0.75 -1.29904 7
    endloop
  endfacet
  facet normal 0 0 1
    outer loop
      vertex 0.463525 1.42658 7
      vertex 0.610105 -1.37032 7
      vertex 0.610105 1.37032 7
    endloop
  endfacet
  facet normal 0 0 1
    outer loop
      vertex 0.463525 1.42658 7
      vertex 0.463525 -1.42658 7
      vertex 0.610105 -1.37032 7
    endloop
  endfacet
  facet normal 0 0 1
    outer loop
      vertex 0.311867 1.46722 7
      vertex 0.463525 -1.42658 7
      vertex 0.463525 1.42658 7
    endloop
  endfacet
  facet normal 0 0 1
    outer loop
      vertex 0.311867 1.46722 7
      vertex 0.311867 -1.46722 7
      vertex 0.463525 -1.42658 7
    endloop
  endfacet
  facet normal 0 0 1
    outer loop
      vertex 0.156793 1.49178 7
      vertex 0.311867 -1.46722 7
      vertex 0.311867 1.46722 7
    endloop
  endfacet
  facet normal 0 0 1
    outer loop
      vertex 0.156793 1.49178 7
      vertex 0.156793 -1.49178 7
      vertex 0.311867 -1.46722 7
    endloop
  endfacet
  facet normal 0 0 1
    outer loop
      vertex 0 1.5 7
      vertex 0.156793 -1.49178 7
      vertex 0.156793 1.49178 7
    endloop
  endfacet
  facet normal 0 0 1
    outer loop
      vertex 0 1.5 7
      vertex 0 -1.5 7
      vertex 0.156793 -1.49178 7
    endloop
  endfacet
  facet normal -0 0 1
    outer loop
      vertex -0.156793 1.49178 7
      vertex 0 -1.5 7
      vertex 0 1.5 7
    endloop
  endfacet
  facet normal 0 0 1
    outer loop
      vertex -0.156793 1.49178 7
      vertex -0.156793 -1.49178 7
      vertex 0 -1.5 7
    endloop
  endfacet
  facet normal -0 0 1
    outer loop
      vertex -0.311867 1.46722 7
      vertex -0.156793 -1.49178 7
      vertex -0.156793 1.49178 7
    endloop
  endfacet
  facet normal 0 0 1
    outer loop
      vertex -0.311867 1.46722 7
      vertex -0.311867 -1.46722 7
      vertex -0.156793 -1.49178 7
    endloop
  endfacet
  facet normal -0 0 1
    outer loop
      vertex -0.463525 1.42658 7
      vertex -0.311867 -1.46722 7
      vertex -0.311867 1.46722 7
    endloop
  endfacet
  facet normal 0 0 1
    outer loop
      vertex -0.463525 1.42658 7
      vertex -0.463525 -1.42658 7
      vertex -0.311867 -1.46722 7
    endloop
  endfacet
  facet normal -0 0 1
    outer loop
      vertex -0.610105 1.37032 7
      vertex -0.463525 -1.42658 7
      vertex -0.463525 1.42658 7
    endloop
  endfacet
  facet normal 0 0 1
    outer loop
      vertex -0.610105 1.37032 7
      vertex -0.610105 -1.37032 7
      vertex -0.463525 -1.42658 7
    endloop
  endfacet
  facet normal -0 0 1
    outer loop
      vertex -0.75 1.29904 7
      vertex -0.610105 -1.37032 7
      vertex -0.610105 1.37032 7
    endloop
  endfacet
  facet normal 0 0 1
    outer loop
      vertex -0.75 1.29904 7
      vertex -0.75 -1.29904 7
      vertex -0.610105 -1.37032 7
    endloop
  endfacet
  facet normal -0 0 1
    outer loop
      vertex -0.881678 1.21352 7
      vertex -0.75 -1.29904 7
      vertex -0.75 1.29904 7
    endloop
  endfacet
  facet normal 0 0 1
    outer loop
      vertex -0.881678 1.21352 7
      vertex -0.881678 -1.21352 7
      vertex -0.75 -1.29904 7
    endloop
  endfacet
  facet normal -0 0 1
    outer loop
      vertex -1.0037 1.11472 7
      vertex -0.881678 -1.21352 7
      vertex -0.881678 1.21352 7
    endloop
  endfacet
  facet normal 0 0 1
    outer loop
      vertex -1.0037 1.11472 7
      vertex -1.0037 -1.11472 7
      vertex -0.881678 -1.21352 7
    endloop
  endfacet
  facet normal -0 0 1
    outer loop
      vertex -1.11472 1.0037 7
      vertex -1.0037 -1.11472 7
      vertex -1.0037 1.11472 7
    endloop
  endfacet
  facet normal 0 0 1
    outer loop
      vertex -1.11472 1.0037 7
      vertex -1.11472 -1.0037 7
      vertex -1.0037 -1.11472 7
    endloop
  endfacet
  facet normal -0 0 1
    outer loop
      vertex -1.21352 0.881678 7
      vertex -1.11472 -1.0037 7
      vertex -1.11472 1.0037 7
    endloop
  endfacet
  facet normal 0 0 1
    outer loop
      vertex -1.21352 0.881678 7
      vertex -1.21352 -0.881678 7
      vertex -1.11472 -1.0037 7
    endloop
  endfacet
  facet normal -0 0 1
    outer loop
      vertex -1.29904 0.75 7
      vertex -1.21352 -0.881678 7
      vertex -1.21352 0.881678 7
    endloop
  endfacet
  facet normal 0 0 1
    outer loop
      vertex -1.29904 0.75 7
      vertex -1.29904 -0.75 7
      vertex -1.21352 -0.881678 7
    endloop
  endfacet
  facet normal -0 0 1
    outer loop
      vertex -1.37032 0.610105 7
      vertex -1.29904 -0.75 7
      vertex -1.29904 0.75 7
    endloop
  endfacet
  facet normal 0 0 1
    outer loop
      vertex -1.37032 0.610105 7
      vertex -1.37032 -0.610105 7
      vertex -1.29904 -0.75 7
    endloop
  endfacet
  facet normal -0 0 1
    outer loop
      vertex -1.42658 0.463525 7
      vertex -1.37032 -0.610105 7
      vertex -1.37032 0.610105 7
    endloop
  endfacet
  facet normal 0 0 1
    outer loop
      vertex -1.42658 0.463525 7
      vertex -1.42658 -0.463525 7
      vertex -1.37032 -0.610105 7
    endloop
  endfacet
  facet normal -0 0 1
    outer loop
      vertex -1.46722 0.311867 7
      vertex -1.42658 -0.463525 7
      vertex -1.42658 0.463525 7
    endloop
  endfacet
  facet normal 0 0 1
    outer loop
      vertex -1.46722 0.311867 7
      vertex -1.46722 -0.311867 7
      vertex -1.42658 -0.463525 7
    endloop
  endfacet
  facet normal -0 0 1
    outer loop
      vertex -1.49178 0.156793 7
      vertex -1.46722 -0.311867 7
      vertex -1.46722 0.311867 7
    endloop
  endfacet
  facet normal 0 0 1
    outer loop
      vertex -1.49178 0.156793 7
      vertex -1.49178 -0.156793 7
      vertex -1.46722 -0.311867 7
    endloop
  endfacet
  facet normal 0 -0 1
    outer loop
      vertex -1.49178 -0.156793 7
      vertex -1.49178 0.156793 7
      vertex -1.5 0 7
    endloop
  endfacet
  facet normal -0.544672 0.838649 0
    outer loop
      vertex -0.75 1.29904 3
      vertex -0.881678 1.21352 7
      vertex -0.75 1.29904 7
    endloop
  endfacet
  facet normal -0.544672 0.838649 0
    outer loop
      vertex -0.881678 1.21352 7
      vertex -0.75 1.29904 3
      vertex -0.881678 1.21352 3
    endloop
  endfacet
  facet normal -0.258839 0.96592 0
    outer loop
      vertex -0.311867 1.46722 3
      vertex -0.463525 1.42658 7
      vertex -0.311867 1.46722 7
    endloop
  endfacet
  facet normal -0.258839 0.96592 0
    outer loop
      vertex -0.463525 1.42658 7
      vertex -0.311867 1.46722 3
      vertex -0.463525 1.42658 3
    endloop
  endfacet
  facet normal -0.0523539 0.998629 0
    outer loop
      vertex 0 1.5 3
      vertex -0.156793 1.49178 7
      vertex 0 1.5 7
    endloop
  endfacet
  facet normal -0.0523539 0.998629 0
    outer loop
      vertex -0.156793 1.49178 7
      vertex 0 1.5 3
      vertex -0.156793 1.49178 3
    endloop
  endfacet
  facet normal 0.0523539 -0.998629 0
    outer loop
      vertex 0 -1.5 3
      vertex 0.156793 -1.49178 7
      vertex 0 -1.5 7
    endloop
  endfacet
  facet normal 0.0523539 -0.998629 0
    outer loop
      vertex 0.156793 -1.49178 7
      vertex 0 -1.5 3
      vertex 0.156793 -1.49178 3
    endloop
  endfacet
  facet normal 0.258839 -0.96592 0
    outer loop
      vertex 0.311867 -1.46722 3
      vertex 0.463525 -1.42658 7
      vertex 0.311867 -1.46722 7
    endloop
  endfacet
  facet normal 0.258839 -0.96592 0
    outer loop
      vertex 0.463525 -1.42658 7
      vertex 0.311867 -1.46722 3
      vertex 0.463525 -1.42658 3
    endloop
  endfacet
  facet normal 0.629276 -0.777182 0
    outer loop
      vertex 0.881678 -1.21352 3
      vertex 1.0037 -1.11472 7
      vertex 0.881678 -1.21352 7
    endloop
  endfacet
  facet normal 0.629276 -0.777182 0
    outer loop
      vertex 1.0037 -1.11472 7
      vertex 0.881678 -1.21352 3
      vertex 1.0037 -1.11472 3
    endloop
  endfacet
  facet normal 0.45399 -0.891007 0
    outer loop
      vertex 0.610105 -1.37032 3
      vertex 0.75 -1.29904 7
      vertex 0.610105 -1.37032 7
    endloop
  endfacet
  facet normal 0.45399 -0.891007 0
    outer loop
      vertex 0.75 -1.29904 7
      vertex 0.610105 -1.37032 3
      vertex 0.75 -1.29904 3
    endloop
  endfacet
  facet normal 0.777182 -0.629276 0
    outer loop
      vertex 1.11472 -1.0037 7
      vertex 1.21352 -0.881678 3
      vertex 1.21352 -0.881678 7
    endloop
  endfacet
  facet normal 0.777182 -0.629276 0
    outer loop
      vertex 1.21352 -0.881678 3
      vertex 1.11472 -1.0037 7
      vertex 1.11472 -1.0037 3
    endloop
  endfacet
  facet normal 0.891007 -0.45399 0
    outer loop
      vertex 1.29904 -0.75 7
      vertex 1.37032 -0.610105 3
      vertex 1.37032 -0.610105 7
    endloop
  endfacet
  facet normal 0.891007 -0.45399 0
    outer loop
      vertex 1.37032 -0.610105 3
      vertex 1.29904 -0.75 7
      vertex 1.29904 -0.75 3
    endloop
  endfacet
  facet normal -0.707107 -0.707107 0
    outer loop
      vertex -1.0037 -1.11472 3
      vertex -1.11472 -1.0037 7
      vertex -1.11472 -1.0037 3
    endloop
  endfacet
  facet normal -0.707107 -0.707107 0
    outer loop
      vertex -1.11472 -1.0037 7
      vertex -1.0037 -1.11472 3
      vertex -1.0037 -1.11472 7
    endloop
  endfacet
  facet normal -0.544672 -0.838649 0
    outer loop
      vertex -0.881678 -1.21352 3
      vertex -0.75 -1.29904 7
      vertex -0.881678 -1.21352 7
    endloop
  endfacet
  facet normal -0.544672 -0.838649 -0
    outer loop
      vertex -0.75 -1.29904 7
      vertex -0.881678 -1.21352 3
      vertex -0.75 -1.29904 3
    endloop
  endfacet
  facet normal -0.35833 -0.933595 0
    outer loop
      vertex -0.610105 -1.37032 3
      vertex -0.463525 -1.42658 7
      vertex -0.610105 -1.37032 7
    endloop
  endfacet
  facet normal -0.35833 -0.933595 -0
    outer loop
      vertex -0.463525 -1.42658 7
      vertex -0.610105 -1.37032 3
      vertex -0.463525 -1.42658 3
    endloop
  endfacet
  facet normal -0.156426 -0.98769 0
    outer loop
      vertex -0.311867 -1.46722 3
      vertex -0.156793 -1.49178 7
      vertex -0.311867 -1.46722 7
    endloop
  endfacet
  facet normal -0.156426 -0.98769 -0
    outer loop
      vertex -0.156793 -1.49178 7
      vertex -0.311867 -1.46722 3
      vertex -0.156793 -1.49178 3
    endloop
  endfacet
  facet normal -0.838649 -0.544672 0
    outer loop
      vertex -1.21352 -0.881678 3
      vertex -1.29904 -0.75 7
      vertex -1.29904 -0.75 3
    endloop
  endfacet
  facet normal -0.838649 -0.544672 0
    outer loop
      vertex -1.29904 -0.75 7
      vertex -1.21352 -0.881678 3
      vertex -1.21352 -0.881678 7
    endloop
  endfacet
  facet normal -0.96592 -0.258839 0
    outer loop
      vertex -1.42658 -0.463525 3
      vertex -1.46722 -0.311867 7
      vertex -1.46722 -0.311867 3
    endloop
  endfacet
  facet normal -0.96592 -0.258839 0
    outer loop
      vertex -1.46722 -0.311867 7
      vertex -1.42658 -0.463525 3
      vertex -1.42658 -0.463525 7
    endloop
  endfacet
  facet normal -0.998629 -0.0523539 0
    outer loop
      vertex -1.49178 -0.156793 3
      vertex -1.5 0 7
      vertex -1.5 0 3
    endloop
  endfacet
  facet normal -0.998629 -0.0523539 0
    outer loop
      vertex -1.5 0 7
      vertex -1.49178 -0.156793 3
      vertex -1.49178 -0.156793 7
    endloop
  endfacet
  facet normal 0.156426 -0.98769 0
    outer loop
      vertex 0.156793 -1.49178 3
      vertex 0.311867 -1.46722 7
      vertex 0.156793 -1.49178 7
    endloop
  endfacet
  facet normal 0.156426 -0.98769 0
    outer loop
      vertex 0.311867 -1.46722 7
      vertex 0.156793 -1.49178 3
      vertex 0.311867 -1.46722 3
    endloop
  endfacet
  facet normal 0.35833 -0.933595 0
    outer loop
      vertex 0.463525 -1.42658 3
      vertex 0.610105 -1.37032 7
      vertex 0.463525 -1.42658 7
    endloop
  endfacet
  facet normal 0.35833 -0.933595 0
    outer loop
      vertex 0.610105 -1.37032 7
      vertex 0.463525 -1.42658 3
      vertex 0.610105 -1.37032 3
    endloop
  endfacet
  facet normal 0.707107 -0.707107 0
    outer loop
      vertex 1.0037 -1.11472 7
      vertex 1.11472 -1.0037 3
      vertex 1.11472 -1.0037 7
    endloop
  endfacet
  facet normal 0.707107 -0.707107 0
    outer loop
      vertex 1.11472 -1.0037 3
      vertex 1.0037 -1.11472 7
      vertex 1.0037 -1.11472 3
    endloop
  endfacet
  facet normal 0.544672 -0.838649 0
    outer loop
      vertex 0.75 -1.29904 3
      vertex 0.881678 -1.21352 7
      vertex 0.75 -1.29904 7
    endloop
  endfacet
  facet normal 0.544672 -0.838649 0
    outer loop
      vertex 0.881678 -1.21352 7
      vertex 0.75 -1.29904 3
      vertex 0.881678 -1.21352 3
    endloop
  endfacet
  facet normal 0.838649 -0.544672 0
    outer loop
      vertex 1.21352 -0.881678 7
      vertex 1.29904 -0.75 3
      vertex 1.29904 -0.75 7
    endloop
  endfacet
  facet normal 0.838649 -0.544672 0
    outer loop
      vertex 1.29904 -0.75 3
      vertex 1.21352 -0.881678 7
      vertex 1.21352 -0.881678 3
    endloop
  endfacet
  facet normal 0.98769 -0.156426 0
    outer loop
      vertex 1.46722 -0.311867 7
      vertex 1.49178 -0.156793 3
      vertex 1.49178 -0.156793 7
    endloop
  endfacet
  facet normal 0.98769 -0.156426 0
    outer loop
      vertex 1.49178 -0.156793 3
      vertex 1.46722 -0.311867 7
      vertex 1.46722 -0.311867 3
    endloop
  endfacet
  facet normal 0.96592 -0.258839 0
    outer loop
      vertex 1.42658 -0.463525 7
      vertex 1.46722 -0.311867 3
      vertex 1.46722 -0.311867 7
    endloop
  endfacet
  facet normal 0.96592 -0.258839 0
    outer loop
      vertex 1.46722 -0.311867 3
      vertex 1.42658 -0.463525 7
      vertex 1.42658 -0.463525 3
    endloop
  endfacet
  facet normal 0.998629 -0.0523539 0
    outer loop
      vertex 1.49178 -0.156793 7
      vertex 1.5 0 3
      vertex 1.5 0 7
    endloop
  endfacet
  facet normal 0.998629 -0.0523539 0
    outer loop
      vertex 1.5 0 3
      vertex 1.49178 -0.156793 7
      vertex 1.49178 -0.156793 3
    endloop
  endfacet
  facet normal -0.629276 -0.777182 0
    outer loop
      vertex -1.0037 -1.11472 3
      vertex -0.881678 -1.21352 7
      vertex -1.0037 -1.11472 7
    endloop
  endfacet
  facet normal -0.629276 -0.777182 -0
    outer loop
      vertex -0.881678 -1.21352 7
      vertex -1.0037 -1.11472 3
      vertex -0.881678 -1.21352 3
    endloop
  endfacet
  facet normal -0.45399 -0.891007 0
    outer loop
      vertex -0.75 -1.29904 3
      vertex -0.610105 -1.37032 7
      vertex -0.75 -1.29904 7
    endloop
  endfacet
  facet normal -0.45399 -0.891007 -0
    outer loop
      vertex -0.610105 -1.37032 7
      vertex -0.75 -1.29904 3
      vertex -0.610105 -1.37032 3
    endloop
  endfacet
  facet normal -0.258839 -0.96592 0
    outer loop
      vertex -0.463525 -1.42658 3
      vertex -0.311867 -1.46722 7
      vertex -0.463525 -1.42658 7
    endloop
  endfacet
  facet normal -0.258839 -0.96592 -0
    outer loop
      vertex -0.311867 -1.46722 7
      vertex -0.463525 -1.42658 3
      vertex -0.311867 -1.46722 3
    endloop
  endfacet
  facet normal -0.933595 -0.35833 0
    outer loop
      vertex -1.37032 -0.610105 3
      vertex -1.42658 -0.463525 7
      vertex -1.42658 -0.463525 3
    endloop
  endfacet
  facet normal -0.933595 -0.35833 0
    outer loop
      vertex -1.42658 -0.463525 7
      vertex -1.37032 -0.610105 3
      vertex -1.37032 -0.610105 7
    endloop
  endfacet
  facet normal -0.98769 -0.156426 0
    outer loop
      vertex -1.46722 -0.311867 3
      vertex -1.49178 -0.156793 7
      vertex -1.49178 -0.156793 3
    endloop
  endfacet
  facet normal -0.98769 -0.156426 0
    outer loop
      vertex -1.49178 -0.156793 7
      vertex -1.46722 -0.311867 3
      vertex -1.46722 -0.311867 7
    endloop
  endfacet
endsolid OpenSCAD_Model
