ISO-10303-21;
HEADER;
/* Generated by software containing ST-Developer
 * from STEP Tools, Inc. (www.steptools.com) 
 */

FILE_DESCRIPTION(
/* description */ (''),
/* implementation_level */ '2;1');

FILE_NAME(
/* name */ 'mini dc dc boost module.step',
/* time_stamp */ '2023-01-25T22:28:50+10:00',
/* author */ (''),
/* organization */ (''),
/* preprocessor_version */ 'ST-DEVELOPER v19.2',
/* originating_system */ 'Autodesk Translation Framework v11.17.0.187',

/* authorisation */ '');

FILE_SCHEMA (('AUTOMOTIVE_DESIGN { 1 0 10303 214 3 1 1 }'));
ENDSEC;

DATA;
#10=MECHANICAL_DESIGN_GEOMETRIC_PRESENTATION_REPRESENTATION('',(#14,#15,
#16,#17,#18,#19,#20,#21,#22,#23),#2203);
#11=SHAPE_REPRESENTATION_RELATIONSHIP('SRR','None',#2210,#12);
#12=ADVANCED_BREP_SHAPE_REPRESENTATION('',(#24,#25,#26,#27,#28,#29,#30,
#31,#32,#33),#2202);
#13=TOROIDAL_SURFACE('',#1438,1.8,0.2);
#14=STYLED_ITEM('',(#2220),#24);
#15=STYLED_ITEM('',(#2221),#25);
#16=STYLED_ITEM('',(#2221),#26);
#17=STYLED_ITEM('',(#2221),#27);
#18=STYLED_ITEM('',(#2221),#28);
#19=STYLED_ITEM('',(#2222),#29);
#20=STYLED_ITEM('',(#2222),#30);
#21=STYLED_ITEM('',(#2223),#31);
#22=STYLED_ITEM('',(#2223),#32);
#23=STYLED_ITEM('',(#2223),#33);
#24=MANIFOLD_SOLID_BREP('Body1',#1313);
#25=MANIFOLD_SOLID_BREP('Body2',#1314);
#26=MANIFOLD_SOLID_BREP('Body3',#1315);
#27=MANIFOLD_SOLID_BREP('Body4',#1316);
#28=MANIFOLD_SOLID_BREP('Body5',#1317);
#29=MANIFOLD_SOLID_BREP('Body6',#1318);
#30=MANIFOLD_SOLID_BREP('Body7',#1319);
#31=MANIFOLD_SOLID_BREP('Body8',#1320);
#32=MANIFOLD_SOLID_BREP('Body9',#1321);
#33=MANIFOLD_SOLID_BREP('Body10',#1322);
#34=FACE_BOUND('',#214,.T.);
#35=FACE_BOUND('',#215,.T.);
#36=FACE_BOUND('',#216,.T.);
#37=FACE_BOUND('',#217,.T.);
#38=FACE_BOUND('',#219,.T.);
#39=FACE_BOUND('',#220,.T.);
#40=FACE_BOUND('',#221,.T.);
#41=FACE_BOUND('',#222,.T.);
#42=FACE_BOUND('',#229,.T.);
#43=FACE_BOUND('',#231,.T.);
#44=FACE_BOUND('',#238,.T.);
#45=FACE_BOUND('',#240,.T.);
#46=FACE_BOUND('',#247,.T.);
#47=FACE_BOUND('',#249,.T.);
#48=FACE_BOUND('',#256,.T.);
#49=FACE_BOUND('',#258,.T.);
#50=CIRCLE('',#1338,1.4142135623731);
#51=CIRCLE('',#1339,1.4142135623731);
#52=CIRCLE('',#1342,1.41421356237309);
#53=CIRCLE('',#1343,1.41421356237309);
#54=CIRCLE('',#1346,1.41421356237309);
#55=CIRCLE('',#1347,1.41421356237309);
#56=CIRCLE('',#1350,1.4142135623731);
#57=CIRCLE('',#1351,1.4142135623731);
#58=CIRCLE('',#1354,1.41421356237309);
#59=CIRCLE('',#1355,1.41421356237309);
#60=CIRCLE('',#1358,1.4142135623731);
#61=CIRCLE('',#1359,1.4142135623731);
#62=CIRCLE('',#1362,1.4142135623731);
#63=CIRCLE('',#1363,1.4142135623731);
#64=CIRCLE('',#1366,1.41421356237309);
#65=CIRCLE('',#1367,1.41421356237309);
#66=CIRCLE('',#1375,0.499999999999999);
#67=CIRCLE('',#1376,0.499999999999999);
#68=CIRCLE('',#1379,1.4142135623731);
#69=CIRCLE('',#1380,1.4142135623731);
#70=CIRCLE('',#1383,1.41421356237309);
#71=CIRCLE('',#1384,1.41421356237309);
#72=CIRCLE('',#1388,0.5);
#73=CIRCLE('',#1389,0.5);
#74=CIRCLE('',#1392,1.41421356237309);
#75=CIRCLE('',#1393,1.41421356237309);
#76=CIRCLE('',#1396,1.4142135623731);
#77=CIRCLE('',#1397,1.4142135623731);
#78=CIRCLE('',#1401,0.5);
#79=CIRCLE('',#1402,0.5);
#80=CIRCLE('',#1405,1.41421356237309);
#81=CIRCLE('',#1406,1.41421356237309);
#82=CIRCLE('',#1409,1.4142135623731);
#83=CIRCLE('',#1410,1.4142135623731);
#84=CIRCLE('',#1414,0.5);
#85=CIRCLE('',#1415,0.5);
#86=CIRCLE('',#1418,1.4142135623731);
#87=CIRCLE('',#1419,1.4142135623731);
#88=CIRCLE('',#1422,1.41421356237309);
#89=CIRCLE('',#1423,1.41421356237309);
#90=CIRCLE('',#1439,1.8);
#91=CIRCLE('',#1440,0.2);
#92=CIRCLE('',#1441,2.);
#93=CIRCLE('',#1443,2.);
#94=CYLINDRICAL_SURFACE('',#1337,1.4142135623731);
#95=CYLINDRICAL_SURFACE('',#1341,1.41421356237309);
#96=CYLINDRICAL_SURFACE('',#1345,1.41421356237309);
#97=CYLINDRICAL_SURFACE('',#1349,1.4142135623731);
#98=CYLINDRICAL_SURFACE('',#1353,1.41421356237309);
#99=CYLINDRICAL_SURFACE('',#1357,1.4142135623731);
#100=CYLINDRICAL_SURFACE('',#1361,1.4142135623731);
#101=CYLINDRICAL_SURFACE('',#1365,1.41421356237309);
#102=CYLINDRICAL_SURFACE('',#1374,0.499999999999999);
#103=CYLINDRICAL_SURFACE('',#1378,1.4142135623731);
#104=CYLINDRICAL_SURFACE('',#1382,1.41421356237309);
#105=CYLINDRICAL_SURFACE('',#1387,0.5);
#106=CYLINDRICAL_SURFACE('',#1391,1.41421356237309);
#107=CYLINDRICAL_SURFACE('',#1395,1.4142135623731);
#108=CYLINDRICAL_SURFACE('',#1400,0.5);
#109=CYLINDRICAL_SURFACE('',#1404,1.41421356237309);
#110=CYLINDRICAL_SURFACE('',#1408,1.4142135623731);
#111=CYLINDRICAL_SURFACE('',#1413,0.5);
#112=CYLINDRICAL_SURFACE('',#1417,1.4142135623731);
#113=CYLINDRICAL_SURFACE('',#1421,1.41421356237309);
#114=CYLINDRICAL_SURFACE('',#1442,2.);
#115=FACE_OUTER_BOUND('',#193,.T.);
#116=FACE_OUTER_BOUND('',#194,.T.);
#117=FACE_OUTER_BOUND('',#195,.T.);
#118=FACE_OUTER_BOUND('',#196,.T.);
#119=FACE_OUTER_BOUND('',#197,.T.);
#120=FACE_OUTER_BOUND('',#198,.T.);
#121=FACE_OUTER_BOUND('',#199,.T.);
#122=FACE_OUTER_BOUND('',#200,.T.);
#123=FACE_OUTER_BOUND('',#201,.T.);
#124=FACE_OUTER_BOUND('',#202,.T.);
#125=FACE_OUTER_BOUND('',#203,.T.);
#126=FACE_OUTER_BOUND('',#204,.T.);
#127=FACE_OUTER_BOUND('',#205,.T.);
#128=FACE_OUTER_BOUND('',#206,.T.);
#129=FACE_OUTER_BOUND('',#207,.T.);
#130=FACE_OUTER_BOUND('',#208,.T.);
#131=FACE_OUTER_BOUND('',#209,.T.);
#132=FACE_OUTER_BOUND('',#210,.T.);
#133=FACE_OUTER_BOUND('',#211,.T.);
#134=FACE_OUTER_BOUND('',#212,.T.);
#135=FACE_OUTER_BOUND('',#213,.T.);
#136=FACE_OUTER_BOUND('',#218,.T.);
#137=FACE_OUTER_BOUND('',#223,.T.);
#138=FACE_OUTER_BOUND('',#224,.T.);
#139=FACE_OUTER_BOUND('',#225,.T.);
#140=FACE_OUTER_BOUND('',#226,.T.);
#141=FACE_OUTER_BOUND('',#227,.T.);
#142=FACE_OUTER_BOUND('',#228,.T.);
#143=FACE_OUTER_BOUND('',#230,.T.);
#144=FACE_OUTER_BOUND('',#232,.T.);
#145=FACE_OUTER_BOUND('',#233,.T.);
#146=FACE_OUTER_BOUND('',#234,.T.);
#147=FACE_OUTER_BOUND('',#235,.T.);
#148=FACE_OUTER_BOUND('',#236,.T.);
#149=FACE_OUTER_BOUND('',#237,.T.);
#150=FACE_OUTER_BOUND('',#239,.T.);
#151=FACE_OUTER_BOUND('',#241,.T.);
#152=FACE_OUTER_BOUND('',#242,.T.);
#153=FACE_OUTER_BOUND('',#243,.T.);
#154=FACE_OUTER_BOUND('',#244,.T.);
#155=FACE_OUTER_BOUND('',#245,.T.);
#156=FACE_OUTER_BOUND('',#246,.T.);
#157=FACE_OUTER_BOUND('',#248,.T.);
#158=FACE_OUTER_BOUND('',#250,.T.);
#159=FACE_OUTER_BOUND('',#251,.T.);
#160=FACE_OUTER_BOUND('',#252,.T.);
#161=FACE_OUTER_BOUND('',#253,.T.);
#162=FACE_OUTER_BOUND('',#254,.T.);
#163=FACE_OUTER_BOUND('',#255,.T.);
#164=FACE_OUTER_BOUND('',#257,.T.);
#165=FACE_OUTER_BOUND('',#259,.T.);
#166=FACE_OUTER_BOUND('',#260,.T.);
#167=FACE_OUTER_BOUND('',#261,.T.);
#168=FACE_OUTER_BOUND('',#262,.T.);
#169=FACE_OUTER_BOUND('',#263,.T.);
#170=FACE_OUTER_BOUND('',#264,.T.);
#171=FACE_OUTER_BOUND('',#265,.T.);
#172=FACE_OUTER_BOUND('',#266,.T.);
#173=FACE_OUTER_BOUND('',#267,.T.);
#174=FACE_OUTER_BOUND('',#268,.T.);
#175=FACE_OUTER_BOUND('',#269,.T.);
#176=FACE_OUTER_BOUND('',#270,.T.);
#177=FACE_OUTER_BOUND('',#271,.T.);
#178=FACE_OUTER_BOUND('',#272,.T.);
#179=FACE_OUTER_BOUND('',#273,.T.);
#180=FACE_OUTER_BOUND('',#274,.T.);
#181=FACE_OUTER_BOUND('',#275,.T.);
#182=FACE_OUTER_BOUND('',#276,.T.);
#183=FACE_OUTER_BOUND('',#277,.T.);
#184=FACE_OUTER_BOUND('',#278,.T.);
#185=FACE_OUTER_BOUND('',#279,.T.);
#186=FACE_OUTER_BOUND('',#280,.T.);
#187=FACE_OUTER_BOUND('',#281,.T.);
#188=FACE_OUTER_BOUND('',#282,.T.);
#189=FACE_OUTER_BOUND('',#283,.T.);
#190=FACE_OUTER_BOUND('',#284,.T.);
#191=FACE_OUTER_BOUND('',#285,.T.);
#192=FACE_OUTER_BOUND('',#286,.T.);
#193=EDGE_LOOP('',(#833,#834,#835,#836));
#194=EDGE_LOOP('',(#837,#838,#839,#840));
#195=EDGE_LOOP('',(#841,#842,#843,#844));
#196=EDGE_LOOP('',(#845,#846,#847,#848));
#197=EDGE_LOOP('',(#849,#850,#851,#852));
#198=EDGE_LOOP('',(#853,#854,#855,#856));
#199=EDGE_LOOP('',(#857,#858,#859,#860));
#200=EDGE_LOOP('',(#861,#862,#863,#864));
#201=EDGE_LOOP('',(#865,#866,#867,#868));
#202=EDGE_LOOP('',(#869,#870,#871,#872));
#203=EDGE_LOOP('',(#873,#874,#875,#876));
#204=EDGE_LOOP('',(#877,#878,#879,#880));
#205=EDGE_LOOP('',(#881,#882,#883,#884));
#206=EDGE_LOOP('',(#885,#886,#887,#888));
#207=EDGE_LOOP('',(#889,#890,#891,#892));
#208=EDGE_LOOP('',(#893,#894,#895,#896));
#209=EDGE_LOOP('',(#897,#898,#899,#900));
#210=EDGE_LOOP('',(#901,#902,#903,#904));
#211=EDGE_LOOP('',(#905,#906,#907,#908));
#212=EDGE_LOOP('',(#909,#910,#911,#912));
#213=EDGE_LOOP('',(#913,#914,#915,#916));
#214=EDGE_LOOP('',(#917,#918,#919,#920));
#215=EDGE_LOOP('',(#921,#922,#923,#924));
#216=EDGE_LOOP('',(#925,#926,#927,#928));
#217=EDGE_LOOP('',(#929,#930,#931,#932));
#218=EDGE_LOOP('',(#933,#934,#935,#936));
#219=EDGE_LOOP('',(#937,#938,#939,#940));
#220=EDGE_LOOP('',(#941,#942,#943,#944));
#221=EDGE_LOOP('',(#945,#946,#947,#948));
#222=EDGE_LOOP('',(#949,#950,#951,#952));
#223=EDGE_LOOP('',(#953,#954,#955,#956));
#224=EDGE_LOOP('',(#957,#958,#959,#960));
#225=EDGE_LOOP('',(#961,#962,#963,#964));
#226=EDGE_LOOP('',(#965,#966,#967,#968));
#227=EDGE_LOOP('',(#969,#970,#971,#972));
#228=EDGE_LOOP('',(#973,#974,#975,#976));
#229=EDGE_LOOP('',(#977));
#230=EDGE_LOOP('',(#978,#979,#980,#981));
#231=EDGE_LOOP('',(#982));
#232=EDGE_LOOP('',(#983,#984,#985,#986));
#233=EDGE_LOOP('',(#987,#988,#989,#990));
#234=EDGE_LOOP('',(#991,#992,#993,#994));
#235=EDGE_LOOP('',(#995,#996,#997,#998));
#236=EDGE_LOOP('',(#999,#1000,#1001,#1002));
#237=EDGE_LOOP('',(#1003,#1004,#1005,#1006));
#238=EDGE_LOOP('',(#1007));
#239=EDGE_LOOP('',(#1008,#1009,#1010,#1011));
#240=EDGE_LOOP('',(#1012));
#241=EDGE_LOOP('',(#1013,#1014,#1015,#1016));
#242=EDGE_LOOP('',(#1017,#1018,#1019,#1020));
#243=EDGE_LOOP('',(#1021,#1022,#1023,#1024));
#244=EDGE_LOOP('',(#1025,#1026,#1027,#1028));
#245=EDGE_LOOP('',(#1029,#1030,#1031,#1032));
#246=EDGE_LOOP('',(#1033,#1034,#1035,#1036));
#247=EDGE_LOOP('',(#1037));
#248=EDGE_LOOP('',(#1038,#1039,#1040,#1041));
#249=EDGE_LOOP('',(#1042));
#250=EDGE_LOOP('',(#1043,#1044,#1045,#1046));
#251=EDGE_LOOP('',(#1047,#1048,#1049,#1050));
#252=EDGE_LOOP('',(#1051,#1052,#1053,#1054));
#253=EDGE_LOOP('',(#1055,#1056,#1057,#1058));
#254=EDGE_LOOP('',(#1059,#1060,#1061,#1062));
#255=EDGE_LOOP('',(#1063,#1064,#1065,#1066));
#256=EDGE_LOOP('',(#1067));
#257=EDGE_LOOP('',(#1068,#1069,#1070,#1071));
#258=EDGE_LOOP('',(#1072));
#259=EDGE_LOOP('',(#1073,#1074,#1075,#1076));
#260=EDGE_LOOP('',(#1077,#1078,#1079,#1080));
#261=EDGE_LOOP('',(#1081,#1082,#1083,#1084));
#262=EDGE_LOOP('',(#1085,#1086,#1087,#1088));
#263=EDGE_LOOP('',(#1089,#1090,#1091,#1092));
#264=EDGE_LOOP('',(#1093,#1094,#1095,#1096));
#265=EDGE_LOOP('',(#1097,#1098,#1099,#1100));
#266=EDGE_LOOP('',(#1101,#1102,#1103,#1104));
#267=EDGE_LOOP('',(#1105,#1106,#1107,#1108));
#268=EDGE_LOOP('',(#1109,#1110,#1111,#1112));
#269=EDGE_LOOP('',(#1113,#1114,#1115,#1116));
#270=EDGE_LOOP('',(#1117,#1118,#1119,#1120));
#271=EDGE_LOOP('',(#1121,#1122,#1123,#1124));
#272=EDGE_LOOP('',(#1125,#1126,#1127,#1128));
#273=EDGE_LOOP('',(#1129));
#274=EDGE_LOOP('',(#1130));
#275=EDGE_LOOP('',(#1131,#1132,#1133,#1134));
#276=EDGE_LOOP('',(#1135,#1136,#1137,#1138));
#277=EDGE_LOOP('',(#1139,#1140,#1141,#1142));
#278=EDGE_LOOP('',(#1143,#1144,#1145,#1146));
#279=EDGE_LOOP('',(#1147,#1148,#1149,#1150));
#280=EDGE_LOOP('',(#1151,#1152,#1153,#1154));
#281=EDGE_LOOP('',(#1155,#1156,#1157,#1158));
#282=EDGE_LOOP('',(#1159,#1160,#1161,#1162));
#283=EDGE_LOOP('',(#1163,#1164,#1165,#1166));
#284=EDGE_LOOP('',(#1167,#1168,#1169,#1170));
#285=EDGE_LOOP('',(#1171,#1172,#1173,#1174));
#286=EDGE_LOOP('',(#1175,#1176,#1177,#1178));
#287=LINE('',#1837,#416);
#288=LINE('',#1839,#417);
#289=LINE('',#1841,#418);
#290=LINE('',#1842,#419);
#291=LINE('',#1848,#420);
#292=LINE('',#1851,#421);
#293=LINE('',#1853,#422);
#294=LINE('',#1854,#423);
#295=LINE('',#1861,#424);
#296=LINE('',#1863,#425);
#297=LINE('',#1865,#426);
#298=LINE('',#1866,#427);
#299=LINE('',#1872,#428);
#300=LINE('',#1875,#429);
#301=LINE('',#1877,#430);
#302=LINE('',#1878,#431);
#303=LINE('',#1885,#432);
#304=LINE('',#1887,#433);
#305=LINE('',#1889,#434);
#306=LINE('',#1890,#435);
#307=LINE('',#1896,#436);
#308=LINE('',#1899,#437);
#309=LINE('',#1901,#438);
#310=LINE('',#1902,#439);
#311=LINE('',#1909,#440);
#312=LINE('',#1911,#441);
#313=LINE('',#1913,#442);
#314=LINE('',#1914,#443);
#315=LINE('',#1920,#444);
#316=LINE('',#1923,#445);
#317=LINE('',#1925,#446);
#318=LINE('',#1926,#447);
#319=LINE('',#1933,#448);
#320=LINE('',#1935,#449);
#321=LINE('',#1937,#450);
#322=LINE('',#1938,#451);
#323=LINE('',#1941,#452);
#324=LINE('',#1943,#453);
#325=LINE('',#1944,#454);
#326=LINE('',#1947,#455);
#327=LINE('',#1949,#456);
#328=LINE('',#1950,#457);
#329=LINE('',#1952,#458);
#330=LINE('',#1953,#459);
#331=LINE('',#1960,#460);
#332=LINE('',#1965,#461);
#333=LINE('',#1967,#462);
#334=LINE('',#1969,#463);
#335=LINE('',#1970,#464);
#336=LINE('',#1976,#465);
#337=LINE('',#1979,#466);
#338=LINE('',#1981,#467);
#339=LINE('',#1982,#468);
#340=LINE('',#1992,#469);
#341=LINE('',#1997,#470);
#342=LINE('',#1999,#471);
#343=LINE('',#2001,#472);
#344=LINE('',#2002,#473);
#345=LINE('',#2008,#474);
#346=LINE('',#2011,#475);
#347=LINE('',#2013,#476);
#348=LINE('',#2014,#477);
#349=LINE('',#2024,#478);
#350=LINE('',#2029,#479);
#351=LINE('',#2031,#480);
#352=LINE('',#2033,#481);
#353=LINE('',#2034,#482);
#354=LINE('',#2040,#483);
#355=LINE('',#2043,#484);
#356=LINE('',#2045,#485);
#357=LINE('',#2046,#486);
#358=LINE('',#2056,#487);
#359=LINE('',#2061,#488);
#360=LINE('',#2063,#489);
#361=LINE('',#2065,#490);
#362=LINE('',#2066,#491);
#363=LINE('',#2072,#492);
#364=LINE('',#2075,#493);
#365=LINE('',#2077,#494);
#366=LINE('',#2078,#495);
#367=LINE('',#2087,#496);
#368=LINE('',#2089,#497);
#369=LINE('',#2091,#498);
#370=LINE('',#2092,#499);
#371=LINE('',#2095,#500);
#372=LINE('',#2097,#501);
#373=LINE('',#2098,#502);
#374=LINE('',#2101,#503);
#375=LINE('',#2103,#504);
#376=LINE('',#2104,#505);
#377=LINE('',#2106,#506);
#378=LINE('',#2107,#507);
#379=LINE('',#2113,#508);
#380=LINE('',#2115,#509);
#381=LINE('',#2117,#510);
#382=LINE('',#2118,#511);
#383=LINE('',#2121,#512);
#384=LINE('',#2123,#513);
#385=LINE('',#2124,#514);
#386=LINE('',#2127,#515);
#387=LINE('',#2129,#516);
#388=LINE('',#2130,#517);
#389=LINE('',#2132,#518);
#390=LINE('',#2133,#519);
#391=LINE('',#2144,#520);
#392=LINE('',#2151,#521);
#393=LINE('',#2153,#522);
#394=LINE('',#2155,#523);
#395=LINE('',#2156,#524);
#396=LINE('',#2159,#525);
#397=LINE('',#2161,#526);
#398=LINE('',#2162,#527);
#399=LINE('',#2165,#528);
#400=LINE('',#2167,#529);
#401=LINE('',#2168,#530);
#402=LINE('',#2170,#531);
#403=LINE('',#2171,#532);
#404=LINE('',#2177,#533);
#405=LINE('',#2179,#534);
#406=LINE('',#2181,#535);
#407=LINE('',#2182,#536);
#408=LINE('',#2185,#537);
#409=LINE('',#2187,#538);
#410=LINE('',#2188,#539);
#411=LINE('',#2191,#540);
#412=LINE('',#2193,#541);
#413=LINE('',#2194,#542);
#414=LINE('',#2196,#543);
#415=LINE('',#2197,#544);
#416=VECTOR('',#1462,10.);
#417=VECTOR('',#1463,10.);
#418=VECTOR('',#1464,10.);
#419=VECTOR('',#1465,10.);
#420=VECTOR('',#1472,10.);
#421=VECTOR('',#1475,10.);
#422=VECTOR('',#1476,10.);
#423=VECTOR('',#1477,10.);
#424=VECTOR('',#1486,10.);
#425=VECTOR('',#1487,10.);
#426=VECTOR('',#1488,10.);
#427=VECTOR('',#1489,10.);
#428=VECTOR('',#1496,10.);
#429=VECTOR('',#1499,10.);
#430=VECTOR('',#1500,10.);
#431=VECTOR('',#1501,10.);
#432=VECTOR('',#1510,10.);
#433=VECTOR('',#1511,10.);
#434=VECTOR('',#1512,10.);
#435=VECTOR('',#1513,10.);
#436=VECTOR('',#1520,10.);
#437=VECTOR('',#1523,10.);
#438=VECTOR('',#1524,10.);
#439=VECTOR('',#1525,10.);
#440=VECTOR('',#1534,10.);
#441=VECTOR('',#1535,10.);
#442=VECTOR('',#1536,10.);
#443=VECTOR('',#1537,10.);
#444=VECTOR('',#1544,10.);
#445=VECTOR('',#1547,10.);
#446=VECTOR('',#1548,10.);
#447=VECTOR('',#1549,10.);
#448=VECTOR('',#1558,10.);
#449=VECTOR('',#1559,10.);
#450=VECTOR('',#1560,10.);
#451=VECTOR('',#1561,10.);
#452=VECTOR('',#1564,10.);
#453=VECTOR('',#1565,10.);
#454=VECTOR('',#1566,10.);
#455=VECTOR('',#1569,10.);
#456=VECTOR('',#1570,10.);
#457=VECTOR('',#1571,10.);
#458=VECTOR('',#1574,10.);
#459=VECTOR('',#1575,10.);
#460=VECTOR('',#1584,0.499999999999999);
#461=VECTOR('',#1589,10.);
#462=VECTOR('',#1590,10.);
#463=VECTOR('',#1591,10.);
#464=VECTOR('',#1592,10.);
#465=VECTOR('',#1599,10.);
#466=VECTOR('',#1602,10.);
#467=VECTOR('',#1603,10.);
#468=VECTOR('',#1604,10.);
#469=VECTOR('',#1619,0.5);
#470=VECTOR('',#1624,10.);
#471=VECTOR('',#1625,10.);
#472=VECTOR('',#1626,10.);
#473=VECTOR('',#1627,10.);
#474=VECTOR('',#1634,10.);
#475=VECTOR('',#1637,10.);
#476=VECTOR('',#1638,10.);
#477=VECTOR('',#1639,10.);
#478=VECTOR('',#1654,0.5);
#479=VECTOR('',#1659,10.);
#480=VECTOR('',#1660,10.);
#481=VECTOR('',#1661,10.);
#482=VECTOR('',#1662,10.);
#483=VECTOR('',#1669,10.);
#484=VECTOR('',#1672,10.);
#485=VECTOR('',#1673,10.);
#486=VECTOR('',#1674,10.);
#487=VECTOR('',#1689,0.5);
#488=VECTOR('',#1694,10.);
#489=VECTOR('',#1695,10.);
#490=VECTOR('',#1696,10.);
#491=VECTOR('',#1697,10.);
#492=VECTOR('',#1704,10.);
#493=VECTOR('',#1707,10.);
#494=VECTOR('',#1708,10.);
#495=VECTOR('',#1709,10.);
#496=VECTOR('',#1722,10.);
#497=VECTOR('',#1723,10.);
#498=VECTOR('',#1724,10.);
#499=VECTOR('',#1725,10.);
#500=VECTOR('',#1728,10.);
#501=VECTOR('',#1729,10.);
#502=VECTOR('',#1730,10.);
#503=VECTOR('',#1733,10.);
#504=VECTOR('',#1734,10.);
#505=VECTOR('',#1735,10.);
#506=VECTOR('',#1738,10.);
#507=VECTOR('',#1739,10.);
#508=VECTOR('',#1746,10.);
#509=VECTOR('',#1747,10.);
#510=VECTOR('',#1748,10.);
#511=VECTOR('',#1749,10.);
#512=VECTOR('',#1752,10.);
#513=VECTOR('',#1753,10.);
#514=VECTOR('',#1754,10.);
#515=VECTOR('',#1757,10.);
#516=VECTOR('',#1758,10.);
#517=VECTOR('',#1759,10.);
#518=VECTOR('',#1762,10.);
#519=VECTOR('',#1763,10.);
#520=VECTOR('',#1778,2.);
#521=VECTOR('',#1787,10.);
#522=VECTOR('',#1788,10.);
#523=VECTOR('',#1789,10.);
#524=VECTOR('',#1790,10.);
#525=VECTOR('',#1793,10.);
#526=VECTOR('',#1794,10.);
#527=VECTOR('',#1795,10.);
#528=VECTOR('',#1798,10.);
#529=VECTOR('',#1799,10.);
#530=VECTOR('',#1800,10.);
#531=VECTOR('',#1803,10.);
#532=VECTOR('',#1804,10.);
#533=VECTOR('',#1811,10.);
#534=VECTOR('',#1812,10.);
#535=VECTOR('',#1813,10.);
#536=VECTOR('',#1814,10.);
#537=VECTOR('',#1817,10.);
#538=VECTOR('',#1818,10.);
#539=VECTOR('',#1819,10.);
#540=VECTOR('',#1822,10.);
#541=VECTOR('',#1823,10.);
#542=VECTOR('',#1824,10.);
#543=VECTOR('',#1827,10.);
#544=VECTOR('',#1828,10.);
#545=VERTEX_POINT('',#1835);
#546=VERTEX_POINT('',#1836);
#547=VERTEX_POINT('',#1838);
#548=VERTEX_POINT('',#1840);
#549=VERTEX_POINT('',#1844);
#550=VERTEX_POINT('',#1846);
#551=VERTEX_POINT('',#1850);
#552=VERTEX_POINT('',#1852);
#553=VERTEX_POINT('',#1859);
#554=VERTEX_POINT('',#1860);
#555=VERTEX_POINT('',#1862);
#556=VERTEX_POINT('',#1864);
#557=VERTEX_POINT('',#1868);
#558=VERTEX_POINT('',#1870);
#559=VERTEX_POINT('',#1874);
#560=VERTEX_POINT('',#1876);
#561=VERTEX_POINT('',#1883);
#562=VERTEX_POINT('',#1884);
#563=VERTEX_POINT('',#1886);
#564=VERTEX_POINT('',#1888);
#565=VERTEX_POINT('',#1892);
#566=VERTEX_POINT('',#1894);
#567=VERTEX_POINT('',#1898);
#568=VERTEX_POINT('',#1900);
#569=VERTEX_POINT('',#1907);
#570=VERTEX_POINT('',#1908);
#571=VERTEX_POINT('',#1910);
#572=VERTEX_POINT('',#1912);
#573=VERTEX_POINT('',#1916);
#574=VERTEX_POINT('',#1918);
#575=VERTEX_POINT('',#1922);
#576=VERTEX_POINT('',#1924);
#577=VERTEX_POINT('',#1931);
#578=VERTEX_POINT('',#1932);
#579=VERTEX_POINT('',#1934);
#580=VERTEX_POINT('',#1936);
#581=VERTEX_POINT('',#1940);
#582=VERTEX_POINT('',#1942);
#583=VERTEX_POINT('',#1946);
#584=VERTEX_POINT('',#1948);
#585=VERTEX_POINT('',#1957);
#586=VERTEX_POINT('',#1959);
#587=VERTEX_POINT('',#1963);
#588=VERTEX_POINT('',#1964);
#589=VERTEX_POINT('',#1966);
#590=VERTEX_POINT('',#1968);
#591=VERTEX_POINT('',#1972);
#592=VERTEX_POINT('',#1974);
#593=VERTEX_POINT('',#1978);
#594=VERTEX_POINT('',#1980);
#595=VERTEX_POINT('',#1989);
#596=VERTEX_POINT('',#1991);
#597=VERTEX_POINT('',#1995);
#598=VERTEX_POINT('',#1996);
#599=VERTEX_POINT('',#1998);
#600=VERTEX_POINT('',#2000);
#601=VERTEX_POINT('',#2004);
#602=VERTEX_POINT('',#2006);
#603=VERTEX_POINT('',#2010);
#604=VERTEX_POINT('',#2012);
#605=VERTEX_POINT('',#2021);
#606=VERTEX_POINT('',#2023);
#607=VERTEX_POINT('',#2027);
#608=VERTEX_POINT('',#2028);
#609=VERTEX_POINT('',#2030);
#610=VERTEX_POINT('',#2032);
#611=VERTEX_POINT('',#2036);
#612=VERTEX_POINT('',#2038);
#613=VERTEX_POINT('',#2042);
#614=VERTEX_POINT('',#2044);
#615=VERTEX_POINT('',#2053);
#616=VERTEX_POINT('',#2055);
#617=VERTEX_POINT('',#2059);
#618=VERTEX_POINT('',#2060);
#619=VERTEX_POINT('',#2062);
#620=VERTEX_POINT('',#2064);
#621=VERTEX_POINT('',#2068);
#622=VERTEX_POINT('',#2070);
#623=VERTEX_POINT('',#2074);
#624=VERTEX_POINT('',#2076);
#625=VERTEX_POINT('',#2085);
#626=VERTEX_POINT('',#2086);
#627=VERTEX_POINT('',#2088);
#628=VERTEX_POINT('',#2090);
#629=VERTEX_POINT('',#2094);
#630=VERTEX_POINT('',#2096);
#631=VERTEX_POINT('',#2100);
#632=VERTEX_POINT('',#2102);
#633=VERTEX_POINT('',#2111);
#634=VERTEX_POINT('',#2112);
#635=VERTEX_POINT('',#2114);
#636=VERTEX_POINT('',#2116);
#637=VERTEX_POINT('',#2120);
#638=VERTEX_POINT('',#2122);
#639=VERTEX_POINT('',#2126);
#640=VERTEX_POINT('',#2128);
#641=VERTEX_POINT('',#2137);
#642=VERTEX_POINT('',#2139);
#643=VERTEX_POINT('',#2143);
#644=VERTEX_POINT('',#2149);
#645=VERTEX_POINT('',#2150);
#646=VERTEX_POINT('',#2152);
#647=VERTEX_POINT('',#2154);
#648=VERTEX_POINT('',#2158);
#649=VERTEX_POINT('',#2160);
#650=VERTEX_POINT('',#2164);
#651=VERTEX_POINT('',#2166);
#652=VERTEX_POINT('',#2175);
#653=VERTEX_POINT('',#2176);
#654=VERTEX_POINT('',#2178);
#655=VERTEX_POINT('',#2180);
#656=VERTEX_POINT('',#2184);
#657=VERTEX_POINT('',#2186);
#658=VERTEX_POINT('',#2190);
#659=VERTEX_POINT('',#2192);
#660=EDGE_CURVE('',#545,#546,#287,.T.);
#661=EDGE_CURVE('',#545,#547,#288,.T.);
#662=EDGE_CURVE('',#548,#547,#289,.T.);
#663=EDGE_CURVE('',#546,#548,#290,.T.);
#664=EDGE_CURVE('',#546,#549,#50,.T.);
#665=EDGE_CURVE('',#550,#548,#51,.T.);
#666=EDGE_CURVE('',#549,#550,#291,.T.);
#667=EDGE_CURVE('',#549,#551,#292,.T.);
#668=EDGE_CURVE('',#552,#550,#293,.T.);
#669=EDGE_CURVE('',#551,#552,#294,.T.);
#670=EDGE_CURVE('',#551,#545,#52,.T.);
#671=EDGE_CURVE('',#547,#552,#53,.T.);
#672=EDGE_CURVE('',#553,#554,#295,.T.);
#673=EDGE_CURVE('',#553,#555,#296,.T.);
#674=EDGE_CURVE('',#556,#555,#297,.T.);
#675=EDGE_CURVE('',#554,#556,#298,.T.);
#676=EDGE_CURVE('',#554,#557,#54,.T.);
#677=EDGE_CURVE('',#558,#556,#55,.T.);
#678=EDGE_CURVE('',#557,#558,#299,.T.);
#679=EDGE_CURVE('',#557,#559,#300,.T.);
#680=EDGE_CURVE('',#560,#558,#301,.T.);
#681=EDGE_CURVE('',#559,#560,#302,.T.);
#682=EDGE_CURVE('',#559,#553,#56,.T.);
#683=EDGE_CURVE('',#555,#560,#57,.T.);
#684=EDGE_CURVE('',#561,#562,#303,.T.);
#685=EDGE_CURVE('',#561,#563,#304,.T.);
#686=EDGE_CURVE('',#564,#563,#305,.T.);
#687=EDGE_CURVE('',#562,#564,#306,.T.);
#688=EDGE_CURVE('',#562,#565,#58,.T.);
#689=EDGE_CURVE('',#566,#564,#59,.T.);
#690=EDGE_CURVE('',#565,#566,#307,.T.);
#691=EDGE_CURVE('',#565,#567,#308,.T.);
#692=EDGE_CURVE('',#568,#566,#309,.T.);
#693=EDGE_CURVE('',#567,#568,#310,.T.);
#694=EDGE_CURVE('',#567,#561,#60,.T.);
#695=EDGE_CURVE('',#563,#568,#61,.T.);
#696=EDGE_CURVE('',#569,#570,#311,.T.);
#697=EDGE_CURVE('',#569,#571,#312,.T.);
#698=EDGE_CURVE('',#572,#571,#313,.T.);
#699=EDGE_CURVE('',#570,#572,#314,.T.);
#700=EDGE_CURVE('',#570,#573,#62,.T.);
#701=EDGE_CURVE('',#574,#572,#63,.T.);
#702=EDGE_CURVE('',#573,#574,#315,.T.);
#703=EDGE_CURVE('',#573,#575,#316,.T.);
#704=EDGE_CURVE('',#576,#574,#317,.T.);
#705=EDGE_CURVE('',#575,#576,#318,.T.);
#706=EDGE_CURVE('',#575,#569,#64,.T.);
#707=EDGE_CURVE('',#571,#576,#65,.T.);
#708=EDGE_CURVE('',#577,#578,#319,.T.);
#709=EDGE_CURVE('',#577,#579,#320,.T.);
#710=EDGE_CURVE('',#580,#579,#321,.T.);
#711=EDGE_CURVE('',#578,#580,#322,.T.);
#712=EDGE_CURVE('',#578,#581,#323,.T.);
#713=EDGE_CURVE('',#582,#580,#324,.T.);
#714=EDGE_CURVE('',#581,#582,#325,.T.);
#715=EDGE_CURVE('',#581,#583,#326,.T.);
#716=EDGE_CURVE('',#584,#582,#327,.T.);
#717=EDGE_CURVE('',#583,#584,#328,.T.);
#718=EDGE_CURVE('',#583,#577,#329,.T.);
#719=EDGE_CURVE('',#579,#584,#330,.T.);
#720=EDGE_CURVE('',#585,#585,#66,.T.);
#721=EDGE_CURVE('',#585,#586,#331,.T.);
#722=EDGE_CURVE('',#586,#586,#67,.T.);
#723=EDGE_CURVE('',#587,#588,#332,.T.);
#724=EDGE_CURVE('',#587,#589,#333,.T.);
#725=EDGE_CURVE('',#590,#589,#334,.T.);
#726=EDGE_CURVE('',#588,#590,#335,.T.);
#727=EDGE_CURVE('',#588,#591,#68,.T.);
#728=EDGE_CURVE('',#592,#590,#69,.T.);
#729=EDGE_CURVE('',#591,#592,#336,.T.);
#730=EDGE_CURVE('',#591,#593,#337,.T.);
#731=EDGE_CURVE('',#594,#592,#338,.T.);
#732=EDGE_CURVE('',#593,#594,#339,.T.);
#733=EDGE_CURVE('',#593,#587,#70,.T.);
#734=EDGE_CURVE('',#589,#594,#71,.T.);
#735=EDGE_CURVE('',#595,#595,#72,.T.);
#736=EDGE_CURVE('',#595,#596,#340,.T.);
#737=EDGE_CURVE('',#596,#596,#73,.T.);
#738=EDGE_CURVE('',#597,#598,#341,.T.);
#739=EDGE_CURVE('',#597,#599,#342,.T.);
#740=EDGE_CURVE('',#600,#599,#343,.T.);
#741=EDGE_CURVE('',#598,#600,#344,.T.);
#742=EDGE_CURVE('',#598,#601,#74,.T.);
#743=EDGE_CURVE('',#602,#600,#75,.T.);
#744=EDGE_CURVE('',#601,#602,#345,.T.);
#745=EDGE_CURVE('',#601,#603,#346,.T.);
#746=EDGE_CURVE('',#604,#602,#347,.T.);
#747=EDGE_CURVE('',#603,#604,#348,.T.);
#748=EDGE_CURVE('',#603,#597,#76,.T.);
#749=EDGE_CURVE('',#599,#604,#77,.T.);
#750=EDGE_CURVE('',#605,#605,#78,.T.);
#751=EDGE_CURVE('',#605,#606,#349,.T.);
#752=EDGE_CURVE('',#606,#606,#79,.T.);
#753=EDGE_CURVE('',#607,#608,#350,.T.);
#754=EDGE_CURVE('',#608,#609,#351,.T.);
#755=EDGE_CURVE('',#610,#609,#352,.T.);
#756=EDGE_CURVE('',#607,#610,#353,.T.);
#757=EDGE_CURVE('',#607,#611,#80,.T.);
#758=EDGE_CURVE('',#612,#610,#81,.T.);
#759=EDGE_CURVE('',#611,#612,#354,.T.);
#760=EDGE_CURVE('',#613,#611,#355,.T.);
#761=EDGE_CURVE('',#614,#612,#356,.T.);
#762=EDGE_CURVE('',#613,#614,#357,.T.);
#763=EDGE_CURVE('',#613,#608,#82,.T.);
#764=EDGE_CURVE('',#609,#614,#83,.T.);
#765=EDGE_CURVE('',#615,#615,#84,.T.);
#766=EDGE_CURVE('',#615,#616,#358,.T.);
#767=EDGE_CURVE('',#616,#616,#85,.T.);
#768=EDGE_CURVE('',#617,#618,#359,.T.);
#769=EDGE_CURVE('',#617,#619,#360,.T.);
#770=EDGE_CURVE('',#620,#619,#361,.T.);
#771=EDGE_CURVE('',#618,#620,#362,.T.);
#772=EDGE_CURVE('',#618,#621,#86,.T.);
#773=EDGE_CURVE('',#622,#620,#87,.T.);
#774=EDGE_CURVE('',#621,#622,#363,.T.);
#775=EDGE_CURVE('',#621,#623,#364,.T.);
#776=EDGE_CURVE('',#624,#622,#365,.T.);
#777=EDGE_CURVE('',#623,#624,#366,.T.);
#778=EDGE_CURVE('',#623,#617,#88,.T.);
#779=EDGE_CURVE('',#619,#624,#89,.T.);
#780=EDGE_CURVE('',#625,#626,#367,.T.);
#781=EDGE_CURVE('',#625,#627,#368,.T.);
#782=EDGE_CURVE('',#628,#627,#369,.T.);
#783=EDGE_CURVE('',#626,#628,#370,.T.);
#784=EDGE_CURVE('',#626,#629,#371,.T.);
#785=EDGE_CURVE('',#630,#628,#372,.T.);
#786=EDGE_CURVE('',#629,#630,#373,.T.);
#787=EDGE_CURVE('',#629,#631,#374,.T.);
#788=EDGE_CURVE('',#632,#630,#375,.T.);
#789=EDGE_CURVE('',#631,#632,#376,.T.);
#790=EDGE_CURVE('',#631,#625,#377,.T.);
#791=EDGE_CURVE('',#627,#632,#378,.T.);
#792=EDGE_CURVE('',#633,#634,#379,.T.);
#793=EDGE_CURVE('',#633,#635,#380,.T.);
#794=EDGE_CURVE('',#636,#635,#381,.T.);
#795=EDGE_CURVE('',#634,#636,#382,.T.);
#796=EDGE_CURVE('',#634,#637,#383,.T.);
#797=EDGE_CURVE('',#638,#636,#384,.T.);
#798=EDGE_CURVE('',#637,#638,#385,.T.);
#799=EDGE_CURVE('',#637,#639,#386,.T.);
#800=EDGE_CURVE('',#640,#638,#387,.T.);
#801=EDGE_CURVE('',#639,#640,#388,.T.);
#802=EDGE_CURVE('',#639,#633,#389,.T.);
#803=EDGE_CURVE('',#635,#640,#390,.T.);
#804=EDGE_CURVE('',#641,#641,#90,.T.);
#805=EDGE_CURVE('',#641,#642,#91,.T.);
#806=EDGE_CURVE('',#642,#642,#92,.T.);
#807=EDGE_CURVE('',#642,#643,#391,.T.);
#808=EDGE_CURVE('',#643,#643,#93,.T.);
#809=EDGE_CURVE('',#644,#645,#392,.T.);
#810=EDGE_CURVE('',#644,#646,#393,.T.);
#811=EDGE_CURVE('',#647,#646,#394,.T.);
#812=EDGE_CURVE('',#645,#647,#395,.T.);
#813=EDGE_CURVE('',#645,#648,#396,.T.);
#814=EDGE_CURVE('',#649,#647,#397,.T.);
#815=EDGE_CURVE('',#648,#649,#398,.T.);
#816=EDGE_CURVE('',#648,#650,#399,.T.);
#817=EDGE_CURVE('',#651,#649,#400,.T.);
#818=EDGE_CURVE('',#650,#651,#401,.T.);
#819=EDGE_CURVE('',#650,#644,#402,.T.);
#820=EDGE_CURVE('',#646,#651,#403,.T.);
#821=EDGE_CURVE('',#652,#653,#404,.T.);
#822=EDGE_CURVE('',#652,#654,#405,.T.);
#823=EDGE_CURVE('',#655,#654,#406,.T.);
#824=EDGE_CURVE('',#653,#655,#407,.T.);
#825=EDGE_CURVE('',#653,#656,#408,.T.);
#826=EDGE_CURVE('',#657,#655,#409,.T.);
#827=EDGE_CURVE('',#656,#657,#410,.T.);
#828=EDGE_CURVE('',#656,#658,#411,.T.);
#829=EDGE_CURVE('',#659,#657,#412,.T.);
#830=EDGE_CURVE('',#658,#659,#413,.T.);
#831=EDGE_CURVE('',#658,#652,#414,.T.);
#832=EDGE_CURVE('',#654,#659,#415,.T.);
#833=ORIENTED_EDGE('',*,*,#660,.F.);
#834=ORIENTED_EDGE('',*,*,#661,.T.);
#835=ORIENTED_EDGE('',*,*,#662,.F.);
#836=ORIENTED_EDGE('',*,*,#663,.F.);
#837=ORIENTED_EDGE('',*,*,#664,.F.);
#838=ORIENTED_EDGE('',*,*,#663,.T.);
#839=ORIENTED_EDGE('',*,*,#665,.F.);
#840=ORIENTED_EDGE('',*,*,#666,.F.);
#841=ORIENTED_EDGE('',*,*,#667,.F.);
#842=ORIENTED_EDGE('',*,*,#666,.T.);
#843=ORIENTED_EDGE('',*,*,#668,.F.);
#844=ORIENTED_EDGE('',*,*,#669,.F.);
#845=ORIENTED_EDGE('',*,*,#670,.F.);
#846=ORIENTED_EDGE('',*,*,#669,.T.);
#847=ORIENTED_EDGE('',*,*,#671,.F.);
#848=ORIENTED_EDGE('',*,*,#661,.F.);
#849=ORIENTED_EDGE('',*,*,#672,.F.);
#850=ORIENTED_EDGE('',*,*,#673,.T.);
#851=ORIENTED_EDGE('',*,*,#674,.F.);
#852=ORIENTED_EDGE('',*,*,#675,.F.);
#853=ORIENTED_EDGE('',*,*,#676,.F.);
#854=ORIENTED_EDGE('',*,*,#675,.T.);
#855=ORIENTED_EDGE('',*,*,#677,.F.);
#856=ORIENTED_EDGE('',*,*,#678,.F.);
#857=ORIENTED_EDGE('',*,*,#679,.F.);
#858=ORIENTED_EDGE('',*,*,#678,.T.);
#859=ORIENTED_EDGE('',*,*,#680,.F.);
#860=ORIENTED_EDGE('',*,*,#681,.F.);
#861=ORIENTED_EDGE('',*,*,#682,.F.);
#862=ORIENTED_EDGE('',*,*,#681,.T.);
#863=ORIENTED_EDGE('',*,*,#683,.F.);
#864=ORIENTED_EDGE('',*,*,#673,.F.);
#865=ORIENTED_EDGE('',*,*,#684,.F.);
#866=ORIENTED_EDGE('',*,*,#685,.T.);
#867=ORIENTED_EDGE('',*,*,#686,.F.);
#868=ORIENTED_EDGE('',*,*,#687,.F.);
#869=ORIENTED_EDGE('',*,*,#688,.F.);
#870=ORIENTED_EDGE('',*,*,#687,.T.);
#871=ORIENTED_EDGE('',*,*,#689,.F.);
#872=ORIENTED_EDGE('',*,*,#690,.F.);
#873=ORIENTED_EDGE('',*,*,#691,.F.);
#874=ORIENTED_EDGE('',*,*,#690,.T.);
#875=ORIENTED_EDGE('',*,*,#692,.F.);
#876=ORIENTED_EDGE('',*,*,#693,.F.);
#877=ORIENTED_EDGE('',*,*,#694,.F.);
#878=ORIENTED_EDGE('',*,*,#693,.T.);
#879=ORIENTED_EDGE('',*,*,#695,.F.);
#880=ORIENTED_EDGE('',*,*,#685,.F.);
#881=ORIENTED_EDGE('',*,*,#696,.F.);
#882=ORIENTED_EDGE('',*,*,#697,.T.);
#883=ORIENTED_EDGE('',*,*,#698,.F.);
#884=ORIENTED_EDGE('',*,*,#699,.F.);
#885=ORIENTED_EDGE('',*,*,#700,.F.);
#886=ORIENTED_EDGE('',*,*,#699,.T.);
#887=ORIENTED_EDGE('',*,*,#701,.F.);
#888=ORIENTED_EDGE('',*,*,#702,.F.);
#889=ORIENTED_EDGE('',*,*,#703,.F.);
#890=ORIENTED_EDGE('',*,*,#702,.T.);
#891=ORIENTED_EDGE('',*,*,#704,.F.);
#892=ORIENTED_EDGE('',*,*,#705,.F.);
#893=ORIENTED_EDGE('',*,*,#706,.F.);
#894=ORIENTED_EDGE('',*,*,#705,.T.);
#895=ORIENTED_EDGE('',*,*,#707,.F.);
#896=ORIENTED_EDGE('',*,*,#697,.F.);
#897=ORIENTED_EDGE('',*,*,#708,.F.);
#898=ORIENTED_EDGE('',*,*,#709,.T.);
#899=ORIENTED_EDGE('',*,*,#710,.F.);
#900=ORIENTED_EDGE('',*,*,#711,.F.);
#901=ORIENTED_EDGE('',*,*,#712,.F.);
#902=ORIENTED_EDGE('',*,*,#711,.T.);
#903=ORIENTED_EDGE('',*,*,#713,.F.);
#904=ORIENTED_EDGE('',*,*,#714,.F.);
#905=ORIENTED_EDGE('',*,*,#715,.F.);
#906=ORIENTED_EDGE('',*,*,#714,.T.);
#907=ORIENTED_EDGE('',*,*,#716,.F.);
#908=ORIENTED_EDGE('',*,*,#717,.F.);
#909=ORIENTED_EDGE('',*,*,#718,.F.);
#910=ORIENTED_EDGE('',*,*,#717,.T.);
#911=ORIENTED_EDGE('',*,*,#719,.F.);
#912=ORIENTED_EDGE('',*,*,#709,.F.);
#913=ORIENTED_EDGE('',*,*,#718,.T.);
#914=ORIENTED_EDGE('',*,*,#708,.T.);
#915=ORIENTED_EDGE('',*,*,#712,.T.);
#916=ORIENTED_EDGE('',*,*,#715,.T.);
#917=ORIENTED_EDGE('',*,*,#706,.T.);
#918=ORIENTED_EDGE('',*,*,#696,.T.);
#919=ORIENTED_EDGE('',*,*,#700,.T.);
#920=ORIENTED_EDGE('',*,*,#703,.T.);
#921=ORIENTED_EDGE('',*,*,#694,.T.);
#922=ORIENTED_EDGE('',*,*,#684,.T.);
#923=ORIENTED_EDGE('',*,*,#688,.T.);
#924=ORIENTED_EDGE('',*,*,#691,.T.);
#925=ORIENTED_EDGE('',*,*,#682,.T.);
#926=ORIENTED_EDGE('',*,*,#672,.T.);
#927=ORIENTED_EDGE('',*,*,#676,.T.);
#928=ORIENTED_EDGE('',*,*,#679,.T.);
#929=ORIENTED_EDGE('',*,*,#670,.T.);
#930=ORIENTED_EDGE('',*,*,#660,.T.);
#931=ORIENTED_EDGE('',*,*,#664,.T.);
#932=ORIENTED_EDGE('',*,*,#667,.T.);
#933=ORIENTED_EDGE('',*,*,#719,.T.);
#934=ORIENTED_EDGE('',*,*,#716,.T.);
#935=ORIENTED_EDGE('',*,*,#713,.T.);
#936=ORIENTED_EDGE('',*,*,#710,.T.);
#937=ORIENTED_EDGE('',*,*,#707,.T.);
#938=ORIENTED_EDGE('',*,*,#704,.T.);
#939=ORIENTED_EDGE('',*,*,#701,.T.);
#940=ORIENTED_EDGE('',*,*,#698,.T.);
#941=ORIENTED_EDGE('',*,*,#695,.T.);
#942=ORIENTED_EDGE('',*,*,#692,.T.);
#943=ORIENTED_EDGE('',*,*,#689,.T.);
#944=ORIENTED_EDGE('',*,*,#686,.T.);
#945=ORIENTED_EDGE('',*,*,#683,.T.);
#946=ORIENTED_EDGE('',*,*,#680,.T.);
#947=ORIENTED_EDGE('',*,*,#677,.T.);
#948=ORIENTED_EDGE('',*,*,#674,.T.);
#949=ORIENTED_EDGE('',*,*,#671,.T.);
#950=ORIENTED_EDGE('',*,*,#668,.T.);
#951=ORIENTED_EDGE('',*,*,#665,.T.);
#952=ORIENTED_EDGE('',*,*,#662,.T.);
#953=ORIENTED_EDGE('',*,*,#720,.F.);
#954=ORIENTED_EDGE('',*,*,#721,.T.);
#955=ORIENTED_EDGE('',*,*,#722,.F.);
#956=ORIENTED_EDGE('',*,*,#721,.F.);
#957=ORIENTED_EDGE('',*,*,#723,.F.);
#958=ORIENTED_EDGE('',*,*,#724,.T.);
#959=ORIENTED_EDGE('',*,*,#725,.F.);
#960=ORIENTED_EDGE('',*,*,#726,.F.);
#961=ORIENTED_EDGE('',*,*,#727,.F.);
#962=ORIENTED_EDGE('',*,*,#726,.T.);
#963=ORIENTED_EDGE('',*,*,#728,.F.);
#964=ORIENTED_EDGE('',*,*,#729,.F.);
#965=ORIENTED_EDGE('',*,*,#730,.F.);
#966=ORIENTED_EDGE('',*,*,#729,.T.);
#967=ORIENTED_EDGE('',*,*,#731,.F.);
#968=ORIENTED_EDGE('',*,*,#732,.F.);
#969=ORIENTED_EDGE('',*,*,#733,.F.);
#970=ORIENTED_EDGE('',*,*,#732,.T.);
#971=ORIENTED_EDGE('',*,*,#734,.F.);
#972=ORIENTED_EDGE('',*,*,#724,.F.);
#973=ORIENTED_EDGE('',*,*,#733,.T.);
#974=ORIENTED_EDGE('',*,*,#723,.T.);
#975=ORIENTED_EDGE('',*,*,#727,.T.);
#976=ORIENTED_EDGE('',*,*,#730,.T.);
#977=ORIENTED_EDGE('',*,*,#722,.T.);
#978=ORIENTED_EDGE('',*,*,#734,.T.);
#979=ORIENTED_EDGE('',*,*,#731,.T.);
#980=ORIENTED_EDGE('',*,*,#728,.T.);
#981=ORIENTED_EDGE('',*,*,#725,.T.);
#982=ORIENTED_EDGE('',*,*,#720,.T.);
#983=ORIENTED_EDGE('',*,*,#735,.F.);
#984=ORIENTED_EDGE('',*,*,#736,.T.);
#985=ORIENTED_EDGE('',*,*,#737,.F.);
#986=ORIENTED_EDGE('',*,*,#736,.F.);
#987=ORIENTED_EDGE('',*,*,#738,.F.);
#988=ORIENTED_EDGE('',*,*,#739,.T.);
#989=ORIENTED_EDGE('',*,*,#740,.F.);
#990=ORIENTED_EDGE('',*,*,#741,.F.);
#991=ORIENTED_EDGE('',*,*,#742,.F.);
#992=ORIENTED_EDGE('',*,*,#741,.T.);
#993=ORIENTED_EDGE('',*,*,#743,.F.);
#994=ORIENTED_EDGE('',*,*,#744,.F.);
#995=ORIENTED_EDGE('',*,*,#745,.F.);
#996=ORIENTED_EDGE('',*,*,#744,.T.);
#997=ORIENTED_EDGE('',*,*,#746,.F.);
#998=ORIENTED_EDGE('',*,*,#747,.F.);
#999=ORIENTED_EDGE('',*,*,#748,.F.);
#1000=ORIENTED_EDGE('',*,*,#747,.T.);
#1001=ORIENTED_EDGE('',*,*,#749,.F.);
#1002=ORIENTED_EDGE('',*,*,#739,.F.);
#1003=ORIENTED_EDGE('',*,*,#748,.T.);
#1004=ORIENTED_EDGE('',*,*,#738,.T.);
#1005=ORIENTED_EDGE('',*,*,#742,.T.);
#1006=ORIENTED_EDGE('',*,*,#745,.T.);
#1007=ORIENTED_EDGE('',*,*,#737,.T.);
#1008=ORIENTED_EDGE('',*,*,#749,.T.);
#1009=ORIENTED_EDGE('',*,*,#746,.T.);
#1010=ORIENTED_EDGE('',*,*,#743,.T.);
#1011=ORIENTED_EDGE('',*,*,#740,.T.);
#1012=ORIENTED_EDGE('',*,*,#735,.T.);
#1013=ORIENTED_EDGE('',*,*,#750,.F.);
#1014=ORIENTED_EDGE('',*,*,#751,.T.);
#1015=ORIENTED_EDGE('',*,*,#752,.F.);
#1016=ORIENTED_EDGE('',*,*,#751,.F.);
#1017=ORIENTED_EDGE('',*,*,#753,.T.);
#1018=ORIENTED_EDGE('',*,*,#754,.T.);
#1019=ORIENTED_EDGE('',*,*,#755,.F.);
#1020=ORIENTED_EDGE('',*,*,#756,.F.);
#1021=ORIENTED_EDGE('',*,*,#757,.F.);
#1022=ORIENTED_EDGE('',*,*,#756,.T.);
#1023=ORIENTED_EDGE('',*,*,#758,.F.);
#1024=ORIENTED_EDGE('',*,*,#759,.F.);
#1025=ORIENTED_EDGE('',*,*,#760,.T.);
#1026=ORIENTED_EDGE('',*,*,#759,.T.);
#1027=ORIENTED_EDGE('',*,*,#761,.F.);
#1028=ORIENTED_EDGE('',*,*,#762,.F.);
#1029=ORIENTED_EDGE('',*,*,#763,.F.);
#1030=ORIENTED_EDGE('',*,*,#762,.T.);
#1031=ORIENTED_EDGE('',*,*,#764,.F.);
#1032=ORIENTED_EDGE('',*,*,#754,.F.);
#1033=ORIENTED_EDGE('',*,*,#763,.T.);
#1034=ORIENTED_EDGE('',*,*,#753,.F.);
#1035=ORIENTED_EDGE('',*,*,#757,.T.);
#1036=ORIENTED_EDGE('',*,*,#760,.F.);
#1037=ORIENTED_EDGE('',*,*,#752,.T.);
#1038=ORIENTED_EDGE('',*,*,#764,.T.);
#1039=ORIENTED_EDGE('',*,*,#761,.T.);
#1040=ORIENTED_EDGE('',*,*,#758,.T.);
#1041=ORIENTED_EDGE('',*,*,#755,.T.);
#1042=ORIENTED_EDGE('',*,*,#750,.T.);
#1043=ORIENTED_EDGE('',*,*,#765,.F.);
#1044=ORIENTED_EDGE('',*,*,#766,.T.);
#1045=ORIENTED_EDGE('',*,*,#767,.F.);
#1046=ORIENTED_EDGE('',*,*,#766,.F.);
#1047=ORIENTED_EDGE('',*,*,#768,.F.);
#1048=ORIENTED_EDGE('',*,*,#769,.T.);
#1049=ORIENTED_EDGE('',*,*,#770,.F.);
#1050=ORIENTED_EDGE('',*,*,#771,.F.);
#1051=ORIENTED_EDGE('',*,*,#772,.F.);
#1052=ORIENTED_EDGE('',*,*,#771,.T.);
#1053=ORIENTED_EDGE('',*,*,#773,.F.);
#1054=ORIENTED_EDGE('',*,*,#774,.F.);
#1055=ORIENTED_EDGE('',*,*,#775,.F.);
#1056=ORIENTED_EDGE('',*,*,#774,.T.);
#1057=ORIENTED_EDGE('',*,*,#776,.F.);
#1058=ORIENTED_EDGE('',*,*,#777,.F.);
#1059=ORIENTED_EDGE('',*,*,#778,.F.);
#1060=ORIENTED_EDGE('',*,*,#777,.T.);
#1061=ORIENTED_EDGE('',*,*,#779,.F.);
#1062=ORIENTED_EDGE('',*,*,#769,.F.);
#1063=ORIENTED_EDGE('',*,*,#778,.T.);
#1064=ORIENTED_EDGE('',*,*,#768,.T.);
#1065=ORIENTED_EDGE('',*,*,#772,.T.);
#1066=ORIENTED_EDGE('',*,*,#775,.T.);
#1067=ORIENTED_EDGE('',*,*,#767,.T.);
#1068=ORIENTED_EDGE('',*,*,#779,.T.);
#1069=ORIENTED_EDGE('',*,*,#776,.T.);
#1070=ORIENTED_EDGE('',*,*,#773,.T.);
#1071=ORIENTED_EDGE('',*,*,#770,.T.);
#1072=ORIENTED_EDGE('',*,*,#765,.T.);
#1073=ORIENTED_EDGE('',*,*,#780,.F.);
#1074=ORIENTED_EDGE('',*,*,#781,.T.);
#1075=ORIENTED_EDGE('',*,*,#782,.F.);
#1076=ORIENTED_EDGE('',*,*,#783,.F.);
#1077=ORIENTED_EDGE('',*,*,#784,.F.);
#1078=ORIENTED_EDGE('',*,*,#783,.T.);
#1079=ORIENTED_EDGE('',*,*,#785,.F.);
#1080=ORIENTED_EDGE('',*,*,#786,.F.);
#1081=ORIENTED_EDGE('',*,*,#787,.F.);
#1082=ORIENTED_EDGE('',*,*,#786,.T.);
#1083=ORIENTED_EDGE('',*,*,#788,.F.);
#1084=ORIENTED_EDGE('',*,*,#789,.F.);
#1085=ORIENTED_EDGE('',*,*,#790,.F.);
#1086=ORIENTED_EDGE('',*,*,#789,.T.);
#1087=ORIENTED_EDGE('',*,*,#791,.F.);
#1088=ORIENTED_EDGE('',*,*,#781,.F.);
#1089=ORIENTED_EDGE('',*,*,#791,.T.);
#1090=ORIENTED_EDGE('',*,*,#788,.T.);
#1091=ORIENTED_EDGE('',*,*,#785,.T.);
#1092=ORIENTED_EDGE('',*,*,#782,.T.);
#1093=ORIENTED_EDGE('',*,*,#790,.T.);
#1094=ORIENTED_EDGE('',*,*,#780,.T.);
#1095=ORIENTED_EDGE('',*,*,#784,.T.);
#1096=ORIENTED_EDGE('',*,*,#787,.T.);
#1097=ORIENTED_EDGE('',*,*,#792,.F.);
#1098=ORIENTED_EDGE('',*,*,#793,.T.);
#1099=ORIENTED_EDGE('',*,*,#794,.F.);
#1100=ORIENTED_EDGE('',*,*,#795,.F.);
#1101=ORIENTED_EDGE('',*,*,#796,.F.);
#1102=ORIENTED_EDGE('',*,*,#795,.T.);
#1103=ORIENTED_EDGE('',*,*,#797,.F.);
#1104=ORIENTED_EDGE('',*,*,#798,.F.);
#1105=ORIENTED_EDGE('',*,*,#799,.F.);
#1106=ORIENTED_EDGE('',*,*,#798,.T.);
#1107=ORIENTED_EDGE('',*,*,#800,.F.);
#1108=ORIENTED_EDGE('',*,*,#801,.F.);
#1109=ORIENTED_EDGE('',*,*,#802,.F.);
#1110=ORIENTED_EDGE('',*,*,#801,.T.);
#1111=ORIENTED_EDGE('',*,*,#803,.F.);
#1112=ORIENTED_EDGE('',*,*,#793,.F.);
#1113=ORIENTED_EDGE('',*,*,#803,.T.);
#1114=ORIENTED_EDGE('',*,*,#800,.T.);
#1115=ORIENTED_EDGE('',*,*,#797,.T.);
#1116=ORIENTED_EDGE('',*,*,#794,.T.);
#1117=ORIENTED_EDGE('',*,*,#802,.T.);
#1118=ORIENTED_EDGE('',*,*,#792,.T.);
#1119=ORIENTED_EDGE('',*,*,#796,.T.);
#1120=ORIENTED_EDGE('',*,*,#799,.T.);
#1121=ORIENTED_EDGE('',*,*,#804,.T.);
#1122=ORIENTED_EDGE('',*,*,#805,.T.);
#1123=ORIENTED_EDGE('',*,*,#806,.T.);
#1124=ORIENTED_EDGE('',*,*,#805,.F.);
#1125=ORIENTED_EDGE('',*,*,#806,.F.);
#1126=ORIENTED_EDGE('',*,*,#807,.T.);
#1127=ORIENTED_EDGE('',*,*,#808,.T.);
#1128=ORIENTED_EDGE('',*,*,#807,.F.);
#1129=ORIENTED_EDGE('',*,*,#804,.F.);
#1130=ORIENTED_EDGE('',*,*,#808,.F.);
#1131=ORIENTED_EDGE('',*,*,#809,.F.);
#1132=ORIENTED_EDGE('',*,*,#810,.T.);
#1133=ORIENTED_EDGE('',*,*,#811,.F.);
#1134=ORIENTED_EDGE('',*,*,#812,.F.);
#1135=ORIENTED_EDGE('',*,*,#813,.F.);
#1136=ORIENTED_EDGE('',*,*,#812,.T.);
#1137=ORIENTED_EDGE('',*,*,#814,.F.);
#1138=ORIENTED_EDGE('',*,*,#815,.F.);
#1139=ORIENTED_EDGE('',*,*,#816,.F.);
#1140=ORIENTED_EDGE('',*,*,#815,.T.);
#1141=ORIENTED_EDGE('',*,*,#817,.F.);
#1142=ORIENTED_EDGE('',*,*,#818,.F.);
#1143=ORIENTED_EDGE('',*,*,#819,.F.);
#1144=ORIENTED_EDGE('',*,*,#818,.T.);
#1145=ORIENTED_EDGE('',*,*,#820,.F.);
#1146=ORIENTED_EDGE('',*,*,#810,.F.);
#1147=ORIENTED_EDGE('',*,*,#820,.T.);
#1148=ORIENTED_EDGE('',*,*,#817,.T.);
#1149=ORIENTED_EDGE('',*,*,#814,.T.);
#1150=ORIENTED_EDGE('',*,*,#811,.T.);
#1151=ORIENTED_EDGE('',*,*,#819,.T.);
#1152=ORIENTED_EDGE('',*,*,#809,.T.);
#1153=ORIENTED_EDGE('',*,*,#813,.T.);
#1154=ORIENTED_EDGE('',*,*,#816,.T.);
#1155=ORIENTED_EDGE('',*,*,#821,.F.);
#1156=ORIENTED_EDGE('',*,*,#822,.T.);
#1157=ORIENTED_EDGE('',*,*,#823,.F.);
#1158=ORIENTED_EDGE('',*,*,#824,.F.);
#1159=ORIENTED_EDGE('',*,*,#825,.F.);
#1160=ORIENTED_EDGE('',*,*,#824,.T.);
#1161=ORIENTED_EDGE('',*,*,#826,.F.);
#1162=ORIENTED_EDGE('',*,*,#827,.F.);
#1163=ORIENTED_EDGE('',*,*,#828,.F.);
#1164=ORIENTED_EDGE('',*,*,#827,.T.);
#1165=ORIENTED_EDGE('',*,*,#829,.F.);
#1166=ORIENTED_EDGE('',*,*,#830,.F.);
#1167=ORIENTED_EDGE('',*,*,#831,.F.);
#1168=ORIENTED_EDGE('',*,*,#830,.T.);
#1169=ORIENTED_EDGE('',*,*,#832,.F.);
#1170=ORIENTED_EDGE('',*,*,#822,.F.);
#1171=ORIENTED_EDGE('',*,*,#832,.T.);
#1172=ORIENTED_EDGE('',*,*,#829,.T.);
#1173=ORIENTED_EDGE('',*,*,#826,.T.);
#1174=ORIENTED_EDGE('',*,*,#823,.T.);
#1175=ORIENTED_EDGE('',*,*,#831,.T.);
#1176=ORIENTED_EDGE('',*,*,#821,.T.);
#1177=ORIENTED_EDGE('',*,*,#825,.T.);
#1178=ORIENTED_EDGE('',*,*,#828,.T.);
#1179=PLANE('',#1336);
#1180=PLANE('',#1340);
#1181=PLANE('',#1344);
#1182=PLANE('',#1348);
#1183=PLANE('',#1352);
#1184=PLANE('',#1356);
#1185=PLANE('',#1360);
#1186=PLANE('',#1364);
#1187=PLANE('',#1368);
#1188=PLANE('',#1369);
#1189=PLANE('',#1370);
#1190=PLANE('',#1371);
#1191=PLANE('',#1372);
#1192=PLANE('',#1373);
#1193=PLANE('',#1377);
#1194=PLANE('',#1381);
#1195=PLANE('',#1385);
#1196=PLANE('',#1386);
#1197=PLANE('',#1390);
#1198=PLANE('',#1394);
#1199=PLANE('',#1398);
#1200=PLANE('',#1399);
#1201=PLANE('',#1403);
#1202=PLANE('',#1407);
#1203=PLANE('',#1411);
#1204=PLANE('',#1412);
#1205=PLANE('',#1416);
#1206=PLANE('',#1420);
#1207=PLANE('',#1424);
#1208=PLANE('',#1425);
#1209=PLANE('',#1426);
#1210=PLANE('',#1427);
#1211=PLANE('',#1428);
#1212=PLANE('',#1429);
#1213=PLANE('',#1430);
#1214=PLANE('',#1431);
#1215=PLANE('',#1432);
#1216=PLANE('',#1433);
#1217=PLANE('',#1434);
#1218=PLANE('',#1435);
#1219=PLANE('',#1436);
#1220=PLANE('',#1437);
#1221=PLANE('',#1444);
#1222=PLANE('',#1445);
#1223=PLANE('',#1446);
#1224=PLANE('',#1447);
#1225=PLANE('',#1448);
#1226=PLANE('',#1449);
#1227=PLANE('',#1450);
#1228=PLANE('',#1451);
#1229=PLANE('',#1452);
#1230=PLANE('',#1453);
#1231=PLANE('',#1454);
#1232=PLANE('',#1455);
#1233=PLANE('',#1456);
#1234=PLANE('',#1457);
#1235=ADVANCED_FACE('',(#115),#1179,.T.);
#1236=ADVANCED_FACE('',(#116),#94,.F.);
#1237=ADVANCED_FACE('',(#117),#1180,.T.);
#1238=ADVANCED_FACE('',(#118),#95,.F.);
#1239=ADVANCED_FACE('',(#119),#1181,.T.);
#1240=ADVANCED_FACE('',(#120),#96,.F.);
#1241=ADVANCED_FACE('',(#121),#1182,.T.);
#1242=ADVANCED_FACE('',(#122),#97,.F.);
#1243=ADVANCED_FACE('',(#123),#1183,.T.);
#1244=ADVANCED_FACE('',(#124),#98,.F.);
#1245=ADVANCED_FACE('',(#125),#1184,.T.);
#1246=ADVANCED_FACE('',(#126),#99,.F.);
#1247=ADVANCED_FACE('',(#127),#1185,.T.);
#1248=ADVANCED_FACE('',(#128),#100,.F.);
#1249=ADVANCED_FACE('',(#129),#1186,.T.);
#1250=ADVANCED_FACE('',(#130),#101,.F.);
#1251=ADVANCED_FACE('',(#131),#1187,.T.);
#1252=ADVANCED_FACE('',(#132),#1188,.T.);
#1253=ADVANCED_FACE('',(#133),#1189,.T.);
#1254=ADVANCED_FACE('',(#134),#1190,.T.);
#1255=ADVANCED_FACE('',(#135,#34,#35,#36,#37),#1191,.T.);
#1256=ADVANCED_FACE('',(#136,#38,#39,#40,#41),#1192,.F.);
#1257=ADVANCED_FACE('',(#137),#102,.F.);
#1258=ADVANCED_FACE('',(#138),#1193,.T.);
#1259=ADVANCED_FACE('',(#139),#103,.T.);
#1260=ADVANCED_FACE('',(#140),#1194,.T.);
#1261=ADVANCED_FACE('',(#141),#104,.T.);
#1262=ADVANCED_FACE('',(#142,#42),#1195,.T.);
#1263=ADVANCED_FACE('',(#143,#43),#1196,.F.);
#1264=ADVANCED_FACE('',(#144),#105,.F.);
#1265=ADVANCED_FACE('',(#145),#1197,.T.);
#1266=ADVANCED_FACE('',(#146),#106,.T.);
#1267=ADVANCED_FACE('',(#147),#1198,.T.);
#1268=ADVANCED_FACE('',(#148),#107,.T.);
#1269=ADVANCED_FACE('',(#149,#44),#1199,.T.);
#1270=ADVANCED_FACE('',(#150,#45),#1200,.F.);
#1271=ADVANCED_FACE('',(#151),#108,.F.);
#1272=ADVANCED_FACE('',(#152),#1201,.T.);
#1273=ADVANCED_FACE('',(#153),#109,.T.);
#1274=ADVANCED_FACE('',(#154),#1202,.T.);
#1275=ADVANCED_FACE('',(#155),#110,.T.);
#1276=ADVANCED_FACE('',(#156,#46),#1203,.T.);
#1277=ADVANCED_FACE('',(#157,#47),#1204,.F.);
#1278=ADVANCED_FACE('',(#158),#111,.F.);
#1279=ADVANCED_FACE('',(#159),#1205,.T.);
#1280=ADVANCED_FACE('',(#160),#112,.T.);
#1281=ADVANCED_FACE('',(#161),#1206,.T.);
#1282=ADVANCED_FACE('',(#162),#113,.T.);
#1283=ADVANCED_FACE('',(#163,#48),#1207,.T.);
#1284=ADVANCED_FACE('',(#164,#49),#1208,.F.);
#1285=ADVANCED_FACE('',(#165),#1209,.T.);
#1286=ADVANCED_FACE('',(#166),#1210,.T.);
#1287=ADVANCED_FACE('',(#167),#1211,.T.);
#1288=ADVANCED_FACE('',(#168),#1212,.T.);
#1289=ADVANCED_FACE('',(#169),#1213,.T.);
#1290=ADVANCED_FACE('',(#170),#1214,.F.);
#1291=ADVANCED_FACE('',(#171),#1215,.T.);
#1292=ADVANCED_FACE('',(#172),#1216,.T.);
#1293=ADVANCED_FACE('',(#173),#1217,.T.);
#1294=ADVANCED_FACE('',(#174),#1218,.T.);
#1295=ADVANCED_FACE('',(#175),#1219,.T.);
#1296=ADVANCED_FACE('',(#176),#1220,.F.);
#1297=ADVANCED_FACE('',(#177),#13,.T.);
#1298=ADVANCED_FACE('',(#178),#114,.T.);
#1299=ADVANCED_FACE('',(#179),#1221,.T.);
#1300=ADVANCED_FACE('',(#180),#1222,.F.);
#1301=ADVANCED_FACE('',(#181),#1223,.T.);
#1302=ADVANCED_FACE('',(#182),#1224,.T.);
#1303=ADVANCED_FACE('',(#183),#1225,.T.);
#1304=ADVANCED_FACE('',(#184),#1226,.T.);
#1305=ADVANCED_FACE('',(#185),#1227,.T.);
#1306=ADVANCED_FACE('',(#186),#1228,.F.);
#1307=ADVANCED_FACE('',(#187),#1229,.T.);
#1308=ADVANCED_FACE('',(#188),#1230,.T.);
#1309=ADVANCED_FACE('',(#189),#1231,.T.);
#1310=ADVANCED_FACE('',(#190),#1232,.T.);
#1311=ADVANCED_FACE('',(#191),#1233,.T.);
#1312=ADVANCED_FACE('',(#192),#1234,.F.);
#1313=CLOSED_SHELL('',(#1235,#1236,#1237,#1238,#1239,#1240,#1241,#1242,
#1243,#1244,#1245,#1246,#1247,#1248,#1249,#1250,#1251,#1252,#1253,#1254,
#1255,#1256));
#1314=CLOSED_SHELL('',(#1257,#1258,#1259,#1260,#1261,#1262,#1263));
#1315=CLOSED_SHELL('',(#1264,#1265,#1266,#1267,#1268,#1269,#1270));
#1316=CLOSED_SHELL('',(#1271,#1272,#1273,#1274,#1275,#1276,#1277));
#1317=CLOSED_SHELL('',(#1278,#1279,#1280,#1281,#1282,#1283,#1284));
#1318=CLOSED_SHELL('',(#1285,#1286,#1287,#1288,#1289,#1290));
#1319=CLOSED_SHELL('',(#1291,#1292,#1293,#1294,#1295,#1296));
#1320=CLOSED_SHELL('',(#1297,#1298,#1299,#1300));
#1321=CLOSED_SHELL('',(#1301,#1302,#1303,#1304,#1305,#1306));
#1322=CLOSED_SHELL('',(#1307,#1308,#1309,#1310,#1311,#1312));
#1323=DERIVED_UNIT_ELEMENT(#1325,1.);
#1324=DERIVED_UNIT_ELEMENT(#2205,-3.);
#1325=(
MASS_UNIT()
NAMED_UNIT(*)
SI_UNIT(.KILO.,.GRAM.)
);
#1326=DERIVED_UNIT((#1323,#1324));
#1327=MEASURE_REPRESENTATION_ITEM('density measure',
POSITIVE_RATIO_MEASURE(7850.),#1326);
#1328=PROPERTY_DEFINITION_REPRESENTATION(#1333,#1330);
#1329=PROPERTY_DEFINITION_REPRESENTATION(#1334,#1331);
#1330=REPRESENTATION('material name',(#1332),#2202);
#1331=REPRESENTATION('density',(#1327),#2202);
#1332=DESCRIPTIVE_REPRESENTATION_ITEM('Steel','Steel');
#1333=PROPERTY_DEFINITION('material property','material name',#2212);
#1334=PROPERTY_DEFINITION('material property','density of part',#2212);
#1335=AXIS2_PLACEMENT_3D('placement',#1833,#1458,#1459);
#1336=AXIS2_PLACEMENT_3D('',#1834,#1460,#1461);
#1337=AXIS2_PLACEMENT_3D('',#1843,#1466,#1467);
#1338=AXIS2_PLACEMENT_3D('',#1845,#1468,#1469);
#1339=AXIS2_PLACEMENT_3D('',#1847,#1470,#1471);
#1340=AXIS2_PLACEMENT_3D('',#1849,#1473,#1474);
#1341=AXIS2_PLACEMENT_3D('',#1855,#1478,#1479);
#1342=AXIS2_PLACEMENT_3D('',#1856,#1480,#1481);
#1343=AXIS2_PLACEMENT_3D('',#1857,#1482,#1483);
#1344=AXIS2_PLACEMENT_3D('',#1858,#1484,#1485);
#1345=AXIS2_PLACEMENT_3D('',#1867,#1490,#1491);
#1346=AXIS2_PLACEMENT_3D('',#1869,#1492,#1493);
#1347=AXIS2_PLACEMENT_3D('',#1871,#1494,#1495);
#1348=AXIS2_PLACEMENT_3D('',#1873,#1497,#1498);
#1349=AXIS2_PLACEMENT_3D('',#1879,#1502,#1503);
#1350=AXIS2_PLACEMENT_3D('',#1880,#1504,#1505);
#1351=AXIS2_PLACEMENT_3D('',#1881,#1506,#1507);
#1352=AXIS2_PLACEMENT_3D('',#1882,#1508,#1509);
#1353=AXIS2_PLACEMENT_3D('',#1891,#1514,#1515);
#1354=AXIS2_PLACEMENT_3D('',#1893,#1516,#1517);
#1355=AXIS2_PLACEMENT_3D('',#1895,#1518,#1519);
#1356=AXIS2_PLACEMENT_3D('',#1897,#1521,#1522);
#1357=AXIS2_PLACEMENT_3D('',#1903,#1526,#1527);
#1358=AXIS2_PLACEMENT_3D('',#1904,#1528,#1529);
#1359=AXIS2_PLACEMENT_3D('',#1905,#1530,#1531);
#1360=AXIS2_PLACEMENT_3D('',#1906,#1532,#1533);
#1361=AXIS2_PLACEMENT_3D('',#1915,#1538,#1539);
#1362=AXIS2_PLACEMENT_3D('',#1917,#1540,#1541);
#1363=AXIS2_PLACEMENT_3D('',#1919,#1542,#1543);
#1364=AXIS2_PLACEMENT_3D('',#1921,#1545,#1546);
#1365=AXIS2_PLACEMENT_3D('',#1927,#1550,#1551);
#1366=AXIS2_PLACEMENT_3D('',#1928,#1552,#1553);
#1367=AXIS2_PLACEMENT_3D('',#1929,#1554,#1555);
#1368=AXIS2_PLACEMENT_3D('',#1930,#1556,#1557);
#1369=AXIS2_PLACEMENT_3D('',#1939,#1562,#1563);
#1370=AXIS2_PLACEMENT_3D('',#1945,#1567,#1568);
#1371=AXIS2_PLACEMENT_3D('',#1951,#1572,#1573);
#1372=AXIS2_PLACEMENT_3D('',#1954,#1576,#1577);
#1373=AXIS2_PLACEMENT_3D('',#1955,#1578,#1579);
#1374=AXIS2_PLACEMENT_3D('',#1956,#1580,#1581);
#1375=AXIS2_PLACEMENT_3D('',#1958,#1582,#1583);
#1376=AXIS2_PLACEMENT_3D('',#1961,#1585,#1586);
#1377=AXIS2_PLACEMENT_3D('',#1962,#1587,#1588);
#1378=AXIS2_PLACEMENT_3D('',#1971,#1593,#1594);
#1379=AXIS2_PLACEMENT_3D('',#1973,#1595,#1596);
#1380=AXIS2_PLACEMENT_3D('',#1975,#1597,#1598);
#1381=AXIS2_PLACEMENT_3D('',#1977,#1600,#1601);
#1382=AXIS2_PLACEMENT_3D('',#1983,#1605,#1606);
#1383=AXIS2_PLACEMENT_3D('',#1984,#1607,#1608);
#1384=AXIS2_PLACEMENT_3D('',#1985,#1609,#1610);
#1385=AXIS2_PLACEMENT_3D('',#1986,#1611,#1612);
#1386=AXIS2_PLACEMENT_3D('',#1987,#1613,#1614);
#1387=AXIS2_PLACEMENT_3D('',#1988,#1615,#1616);
#1388=AXIS2_PLACEMENT_3D('',#1990,#1617,#1618);
#1389=AXIS2_PLACEMENT_3D('',#1993,#1620,#1621);
#1390=AXIS2_PLACEMENT_3D('',#1994,#1622,#1623);
#1391=AXIS2_PLACEMENT_3D('',#2003,#1628,#1629);
#1392=AXIS2_PLACEMENT_3D('',#2005,#1630,#1631);
#1393=AXIS2_PLACEMENT_3D('',#2007,#1632,#1633);
#1394=AXIS2_PLACEMENT_3D('',#2009,#1635,#1636);
#1395=AXIS2_PLACEMENT_3D('',#2015,#1640,#1641);
#1396=AXIS2_PLACEMENT_3D('',#2016,#1642,#1643);
#1397=AXIS2_PLACEMENT_3D('',#2017,#1644,#1645);
#1398=AXIS2_PLACEMENT_3D('',#2018,#1646,#1647);
#1399=AXIS2_PLACEMENT_3D('',#2019,#1648,#1649);
#1400=AXIS2_PLACEMENT_3D('',#2020,#1650,#1651);
#1401=AXIS2_PLACEMENT_3D('',#2022,#1652,#1653);
#1402=AXIS2_PLACEMENT_3D('',#2025,#1655,#1656);
#1403=AXIS2_PLACEMENT_3D('',#2026,#1657,#1658);
#1404=AXIS2_PLACEMENT_3D('',#2035,#1663,#1664);
#1405=AXIS2_PLACEMENT_3D('',#2037,#1665,#1666);
#1406=AXIS2_PLACEMENT_3D('',#2039,#1667,#1668);
#1407=AXIS2_PLACEMENT_3D('',#2041,#1670,#1671);
#1408=AXIS2_PLACEMENT_3D('',#2047,#1675,#1676);
#1409=AXIS2_PLACEMENT_3D('',#2048,#1677,#1678);
#1410=AXIS2_PLACEMENT_3D('',#2049,#1679,#1680);
#1411=AXIS2_PLACEMENT_3D('',#2050,#1681,#1682);
#1412=AXIS2_PLACEMENT_3D('',#2051,#1683,#1684);
#1413=AXIS2_PLACEMENT_3D('',#2052,#1685,#1686);
#1414=AXIS2_PLACEMENT_3D('',#2054,#1687,#1688);
#1415=AXIS2_PLACEMENT_3D('',#2057,#1690,#1691);
#1416=AXIS2_PLACEMENT_3D('',#2058,#1692,#1693);
#1417=AXIS2_PLACEMENT_3D('',#2067,#1698,#1699);
#1418=AXIS2_PLACEMENT_3D('',#2069,#1700,#1701);
#1419=AXIS2_PLACEMENT_3D('',#2071,#1702,#1703);
#1420=AXIS2_PLACEMENT_3D('',#2073,#1705,#1706);
#1421=AXIS2_PLACEMENT_3D('',#2079,#1710,#1711);
#1422=AXIS2_PLACEMENT_3D('',#2080,#1712,#1713);
#1423=AXIS2_PLACEMENT_3D('',#2081,#1714,#1715);
#1424=AXIS2_PLACEMENT_3D('',#2082,#1716,#1717);
#1425=AXIS2_PLACEMENT_3D('',#2083,#1718,#1719);
#1426=AXIS2_PLACEMENT_3D('',#2084,#1720,#1721);
#1427=AXIS2_PLACEMENT_3D('',#2093,#1726,#1727);
#1428=AXIS2_PLACEMENT_3D('',#2099,#1731,#1732);
#1429=AXIS2_PLACEMENT_3D('',#2105,#1736,#1737);
#1430=AXIS2_PLACEMENT_3D('',#2108,#1740,#1741);
#1431=AXIS2_PLACEMENT_3D('',#2109,#1742,#1743);
#1432=AXIS2_PLACEMENT_3D('',#2110,#1744,#1745);
#1433=AXIS2_PLACEMENT_3D('',#2119,#1750,#1751);
#1434=AXIS2_PLACEMENT_3D('',#2125,#1755,#1756);
#1435=AXIS2_PLACEMENT_3D('',#2131,#1760,#1761);
#1436=AXIS2_PLACEMENT_3D('',#2134,#1764,#1765);
#1437=AXIS2_PLACEMENT_3D('',#2135,#1766,#1767);
#1438=AXIS2_PLACEMENT_3D('',#2136,#1768,#1769);
#1439=AXIS2_PLACEMENT_3D('',#2138,#1770,#1771);
#1440=AXIS2_PLACEMENT_3D('',#2140,#1772,#1773);
#1441=AXIS2_PLACEMENT_3D('',#2141,#1774,#1775);
#1442=AXIS2_PLACEMENT_3D('',#2142,#1776,#1777);
#1443=AXIS2_PLACEMENT_3D('',#2145,#1779,#1780);
#1444=AXIS2_PLACEMENT_3D('',#2146,#1781,#1782);
#1445=AXIS2_PLACEMENT_3D('',#2147,#1783,#1784);
#1446=AXIS2_PLACEMENT_3D('',#2148,#1785,#1786);
#1447=AXIS2_PLACEMENT_3D('',#2157,#1791,#1792);
#1448=AXIS2_PLACEMENT_3D('',#2163,#1796,#1797);
#1449=AXIS2_PLACEMENT_3D('',#2169,#1801,#1802);
#1450=AXIS2_PLACEMENT_3D('',#2172,#1805,#1806);
#1451=AXIS2_PLACEMENT_3D('',#2173,#1807,#1808);
#1452=AXIS2_PLACEMENT_3D('',#2174,#1809,#1810);
#1453=AXIS2_PLACEMENT_3D('',#2183,#1815,#1816);
#1454=AXIS2_PLACEMENT_3D('',#2189,#1820,#1821);
#1455=AXIS2_PLACEMENT_3D('',#2195,#1825,#1826);
#1456=AXIS2_PLACEMENT_3D('',#2198,#1829,#1830);
#1457=AXIS2_PLACEMENT_3D('',#2199,#1831,#1832);
#1458=DIRECTION('axis',(0.,0.,1.));
#1459=DIRECTION('refdir',(1.,0.,0.));
#1460=DIRECTION('center_axis',(1.,0.,0.));
#1461=DIRECTION('ref_axis',(0.,-1.,0.));
#1462=DIRECTION('',(0.,1.,0.));
#1463=DIRECTION('',(0.,0.,-1.));
#1464=DIRECTION('',(0.,-1.,0.));
#1465=DIRECTION('',(0.,0.,-1.));
#1466=DIRECTION('center_axis',(0.,0.,-1.));
#1467=DIRECTION('ref_axis',(0.707106781186546,0.707106781186549,0.));
#1468=DIRECTION('center_axis',(0.,0.,-1.));
#1469=DIRECTION('ref_axis',(0.707106781186546,0.707106781186549,0.));
#1470=DIRECTION('center_axis',(0.,0.,1.));
#1471=DIRECTION('ref_axis',(0.707106781186546,0.707106781186549,0.));
#1472=DIRECTION('',(0.,0.,-1.));
#1473=DIRECTION('center_axis',(-1.,4.16333634234433E-16,0.));
#1474=DIRECTION('ref_axis',(4.16333634234433E-16,1.,0.));
#1475=DIRECTION('',(-4.16333634234433E-16,-1.,0.));
#1476=DIRECTION('',(4.16333634234433E-16,1.,0.));
#1477=DIRECTION('',(0.,0.,-1.));
#1478=DIRECTION('center_axis',(0.,0.,-1.));
#1479=DIRECTION('ref_axis',(-0.707106781186549,-0.707106781186546,0.));
#1480=DIRECTION('center_axis',(0.,0.,-1.));
#1481=DIRECTION('ref_axis',(-0.707106781186549,-0.707106781186546,0.));
#1482=DIRECTION('center_axis',(0.,0.,1.));
#1483=DIRECTION('ref_axis',(-0.707106781186549,-0.707106781186546,0.));
#1484=DIRECTION('center_axis',(1.,0.,0.));
#1485=DIRECTION('ref_axis',(0.,-1.,0.));
#1486=DIRECTION('',(0.,1.,0.));
#1487=DIRECTION('',(0.,0.,-1.));
#1488=DIRECTION('',(0.,-1.,0.));
#1489=DIRECTION('',(0.,0.,-1.));
#1490=DIRECTION('center_axis',(0.,0.,-1.));
#1491=DIRECTION('ref_axis',(0.707106781186549,0.707106781186546,0.));
#1492=DIRECTION('center_axis',(0.,0.,-1.));
#1493=DIRECTION('ref_axis',(0.707106781186549,0.707106781186546,0.));
#1494=DIRECTION('center_axis',(0.,0.,1.));
#1495=DIRECTION('ref_axis',(0.707106781186549,0.707106781186546,0.));
#1496=DIRECTION('',(0.,0.,-1.));
#1497=DIRECTION('center_axis',(-1.,0.,0.));
#1498=DIRECTION('ref_axis',(0.,1.,0.));
#1499=DIRECTION('',(0.,-1.,0.));
#1500=DIRECTION('',(0.,1.,0.));
#1501=DIRECTION('',(0.,0.,-1.));
#1502=DIRECTION('center_axis',(0.,0.,-1.));
#1503=DIRECTION('ref_axis',(-0.707106781186549,-0.707106781186546,0.));
#1504=DIRECTION('center_axis',(0.,0.,-1.));
#1505=DIRECTION('ref_axis',(-0.707106781186549,-0.707106781186546,0.));
#1506=DIRECTION('center_axis',(0.,0.,1.));
#1507=DIRECTION('ref_axis',(-0.707106781186549,-0.707106781186546,0.));
#1508=DIRECTION('center_axis',(-1.,0.,0.));
#1509=DIRECTION('ref_axis',(0.,1.,0.));
#1510=DIRECTION('',(0.,-1.,0.));
#1511=DIRECTION('',(0.,0.,-1.));
#1512=DIRECTION('',(0.,1.,0.));
#1513=DIRECTION('',(0.,0.,-1.));
#1514=DIRECTION('center_axis',(0.,0.,-1.));
#1515=DIRECTION('ref_axis',(-0.707106781186546,-0.707106781186549,0.));
#1516=DIRECTION('center_axis',(0.,0.,-1.));
#1517=DIRECTION('ref_axis',(-0.707106781186546,-0.707106781186549,0.));
#1518=DIRECTION('center_axis',(0.,0.,1.));
#1519=DIRECTION('ref_axis',(-0.707106781186546,-0.707106781186549,0.));
#1520=DIRECTION('',(0.,0.,-1.));
#1521=DIRECTION('center_axis',(1.,2.22044604925031E-15,0.));
#1522=DIRECTION('ref_axis',(2.22044604925031E-15,-1.,0.));
#1523=DIRECTION('',(-2.22044604925031E-15,1.,0.));
#1524=DIRECTION('',(2.22044604925031E-15,-1.,0.));
#1525=DIRECTION('',(0.,0.,-1.));
#1526=DIRECTION('center_axis',(0.,0.,-1.));
#1527=DIRECTION('ref_axis',(0.707106781186548,0.707106781186547,0.));
#1528=DIRECTION('center_axis',(0.,0.,-1.));
#1529=DIRECTION('ref_axis',(0.707106781186548,0.707106781186547,0.));
#1530=DIRECTION('center_axis',(0.,0.,1.));
#1531=DIRECTION('ref_axis',(0.707106781186548,0.707106781186547,0.));
#1532=DIRECTION('center_axis',(-1.,2.22044604925031E-15,0.));
#1533=DIRECTION('ref_axis',(2.22044604925031E-15,1.,0.));
#1534=DIRECTION('',(-2.22044604925031E-15,-1.,0.));
#1535=DIRECTION('',(0.,0.,-1.));
#1536=DIRECTION('',(2.22044604925031E-15,1.,0.));
#1537=DIRECTION('',(0.,0.,-1.));
#1538=DIRECTION('center_axis',(0.,0.,-1.));
#1539=DIRECTION('ref_axis',(-0.707106781186548,-0.707106781186547,0.));
#1540=DIRECTION('center_axis',(0.,0.,-1.));
#1541=DIRECTION('ref_axis',(-0.707106781186548,-0.707106781186547,0.));
#1542=DIRECTION('center_axis',(0.,0.,1.));
#1543=DIRECTION('ref_axis',(-0.707106781186548,-0.707106781186547,0.));
#1544=DIRECTION('',(0.,0.,-1.));
#1545=DIRECTION('center_axis',(1.,0.,0.));
#1546=DIRECTION('ref_axis',(0.,-1.,0.));
#1547=DIRECTION('',(0.,1.,0.));
#1548=DIRECTION('',(0.,-1.,0.));
#1549=DIRECTION('',(0.,0.,-1.));
#1550=DIRECTION('center_axis',(0.,0.,-1.));
#1551=DIRECTION('ref_axis',(0.707106781186548,0.707106781186547,0.));
#1552=DIRECTION('center_axis',(0.,0.,-1.));
#1553=DIRECTION('ref_axis',(0.707106781186548,0.707106781186547,0.));
#1554=DIRECTION('center_axis',(0.,0.,1.));
#1555=DIRECTION('ref_axis',(0.707106781186548,0.707106781186547,0.));
#1556=DIRECTION('center_axis',(0.,-1.,0.));
#1557=DIRECTION('ref_axis',(-1.,0.,0.));
#1558=DIRECTION('',(1.,0.,0.));
#1559=DIRECTION('',(0.,0.,-1.));
#1560=DIRECTION('',(-1.,0.,0.));
#1561=DIRECTION('',(0.,0.,-1.));
#1562=DIRECTION('center_axis',(1.,0.,0.));
#1563=DIRECTION('ref_axis',(0.,-1.,0.));
#1564=DIRECTION('',(0.,1.,0.));
#1565=DIRECTION('',(0.,-1.,0.));
#1566=DIRECTION('',(0.,0.,-1.));
#1567=DIRECTION('center_axis',(0.,1.,0.));
#1568=DIRECTION('ref_axis',(1.,0.,0.));
#1569=DIRECTION('',(-1.,0.,0.));
#1570=DIRECTION('',(1.,0.,0.));
#1571=DIRECTION('',(0.,0.,-1.));
#1572=DIRECTION('center_axis',(-1.,0.,0.));
#1573=DIRECTION('ref_axis',(0.,1.,0.));
#1574=DIRECTION('',(0.,-1.,0.));
#1575=DIRECTION('',(0.,1.,0.));
#1576=DIRECTION('center_axis',(0.,0.,1.));
#1577=DIRECTION('ref_axis',(1.,0.,0.));
#1578=DIRECTION('center_axis',(0.,0.,1.));
#1579=DIRECTION('ref_axis',(1.,0.,0.));
#1580=DIRECTION('center_axis',(0.,0.,-1.));
#1581=DIRECTION('ref_axis',(1.,0.,0.));
#1582=DIRECTION('center_axis',(0.,0.,1.));
#1583=DIRECTION('ref_axis',(1.,0.,0.));
#1584=DIRECTION('',(0.,0.,1.));
#1585=DIRECTION('center_axis',(0.,0.,-1.));
#1586=DIRECTION('ref_axis',(1.,0.,0.));
#1587=DIRECTION('center_axis',(-1.,0.,0.));
#1588=DIRECTION('ref_axis',(0.,1.,0.));
#1589=DIRECTION('',(0.,-1.,0.));
#1590=DIRECTION('',(0.,0.,-1.));
#1591=DIRECTION('',(0.,1.,0.));
#1592=DIRECTION('',(0.,0.,-1.));
#1593=DIRECTION('center_axis',(0.,0.,-1.));
#1594=DIRECTION('ref_axis',(-0.707106781186548,-0.707106781186547,0.));
#1595=DIRECTION('center_axis',(0.,0.,1.));
#1596=DIRECTION('ref_axis',(-0.707106781186548,-0.707106781186547,0.));
#1597=DIRECTION('center_axis',(0.,0.,-1.));
#1598=DIRECTION('ref_axis',(-0.707106781186548,-0.707106781186547,0.));
#1599=DIRECTION('',(0.,0.,-1.));
#1600=DIRECTION('center_axis',(1.,-2.22044604925031E-15,0.));
#1601=DIRECTION('ref_axis',(-2.22044604925031E-15,-1.,0.));
#1602=DIRECTION('',(2.22044604925031E-15,1.,0.));
#1603=DIRECTION('',(-2.22044604925031E-15,-1.,0.));
#1604=DIRECTION('',(0.,0.,-1.));
#1605=DIRECTION('center_axis',(0.,0.,-1.));
#1606=DIRECTION('ref_axis',(0.707106781186548,0.707106781186547,0.));
#1607=DIRECTION('center_axis',(0.,0.,1.));
#1608=DIRECTION('ref_axis',(0.707106781186548,0.707106781186547,0.));
#1609=DIRECTION('center_axis',(0.,0.,-1.));
#1610=DIRECTION('ref_axis',(0.707106781186548,0.707106781186547,0.));
#1611=DIRECTION('center_axis',(0.,0.,1.));
#1612=DIRECTION('ref_axis',(1.,0.,0.));
#1613=DIRECTION('center_axis',(0.,0.,1.));
#1614=DIRECTION('ref_axis',(1.,0.,0.));
#1615=DIRECTION('center_axis',(0.,0.,-1.));
#1616=DIRECTION('ref_axis',(1.,0.,0.));
#1617=DIRECTION('center_axis',(0.,0.,1.));
#1618=DIRECTION('ref_axis',(1.,0.,0.));
#1619=DIRECTION('',(0.,0.,1.));
#1620=DIRECTION('center_axis',(0.,0.,-1.));
#1621=DIRECTION('ref_axis',(1.,0.,0.));
#1622=DIRECTION('center_axis',(1.,0.,0.));
#1623=DIRECTION('ref_axis',(0.,-1.,0.));
#1624=DIRECTION('',(0.,1.,0.));
#1625=DIRECTION('',(0.,0.,-1.));
#1626=DIRECTION('',(0.,-1.,0.));
#1627=DIRECTION('',(0.,0.,-1.));
#1628=DIRECTION('center_axis',(0.,0.,-1.));
#1629=DIRECTION('ref_axis',(0.707106781186549,0.707106781186546,0.));
#1630=DIRECTION('center_axis',(0.,0.,1.));
#1631=DIRECTION('ref_axis',(0.707106781186549,0.707106781186546,0.));
#1632=DIRECTION('center_axis',(0.,0.,-1.));
#1633=DIRECTION('ref_axis',(0.707106781186549,0.707106781186546,0.));
#1634=DIRECTION('',(0.,0.,-1.));
#1635=DIRECTION('center_axis',(-1.,0.,0.));
#1636=DIRECTION('ref_axis',(0.,1.,0.));
#1637=DIRECTION('',(0.,-1.,0.));
#1638=DIRECTION('',(0.,1.,0.));
#1639=DIRECTION('',(0.,0.,-1.));
#1640=DIRECTION('center_axis',(0.,0.,-1.));
#1641=DIRECTION('ref_axis',(-0.707106781186549,-0.707106781186546,0.));
#1642=DIRECTION('center_axis',(0.,0.,1.));
#1643=DIRECTION('ref_axis',(-0.707106781186549,-0.707106781186546,0.));
#1644=DIRECTION('center_axis',(0.,0.,-1.));
#1645=DIRECTION('ref_axis',(-0.707106781186549,-0.707106781186546,0.));
#1646=DIRECTION('center_axis',(0.,0.,1.));
#1647=DIRECTION('ref_axis',(1.,0.,0.));
#1648=DIRECTION('center_axis',(0.,0.,1.));
#1649=DIRECTION('ref_axis',(1.,0.,0.));
#1650=DIRECTION('center_axis',(0.,0.,-1.));
#1651=DIRECTION('ref_axis',(1.,0.,0.));
#1652=DIRECTION('center_axis',(0.,0.,1.));
#1653=DIRECTION('ref_axis',(1.,0.,0.));
#1654=DIRECTION('',(0.,0.,1.));
#1655=DIRECTION('center_axis',(0.,0.,-1.));
#1656=DIRECTION('ref_axis',(1.,0.,0.));
#1657=DIRECTION('center_axis',(-1.,-2.22044604925031E-15,0.));
#1658=DIRECTION('ref_axis',(-2.22044604925031E-15,1.,0.));
#1659=DIRECTION('',(-2.22044604925031E-15,1.,0.));
#1660=DIRECTION('',(0.,0.,-1.));
#1661=DIRECTION('',(-2.22044604925031E-15,1.,0.));
#1662=DIRECTION('',(0.,0.,-1.));
#1663=DIRECTION('center_axis',(0.,0.,-1.));
#1664=DIRECTION('ref_axis',(-0.707106781186546,-0.707106781186549,0.));
#1665=DIRECTION('center_axis',(0.,0.,1.));
#1666=DIRECTION('ref_axis',(-0.707106781186546,-0.707106781186549,0.));
#1667=DIRECTION('center_axis',(0.,0.,-1.));
#1668=DIRECTION('ref_axis',(-0.707106781186546,-0.707106781186549,0.));
#1669=DIRECTION('',(0.,0.,-1.));
#1670=DIRECTION('center_axis',(1.,0.,0.));
#1671=DIRECTION('ref_axis',(0.,-1.,0.));
#1672=DIRECTION('',(0.,-1.,0.));
#1673=DIRECTION('',(0.,-1.,0.));
#1674=DIRECTION('',(0.,0.,-1.));
#1675=DIRECTION('center_axis',(0.,0.,-1.));
#1676=DIRECTION('ref_axis',(0.707106781186548,0.707106781186547,0.));
#1677=DIRECTION('center_axis',(0.,0.,1.));
#1678=DIRECTION('ref_axis',(0.707106781186548,0.707106781186547,0.));
#1679=DIRECTION('center_axis',(0.,0.,-1.));
#1680=DIRECTION('ref_axis',(0.707106781186548,0.707106781186547,0.));
#1681=DIRECTION('center_axis',(0.,0.,1.));
#1682=DIRECTION('ref_axis',(1.,0.,0.));
#1683=DIRECTION('center_axis',(0.,0.,1.));
#1684=DIRECTION('ref_axis',(1.,0.,0.));
#1685=DIRECTION('center_axis',(0.,0.,-1.));
#1686=DIRECTION('ref_axis',(1.,0.,0.));
#1687=DIRECTION('center_axis',(0.,0.,1.));
#1688=DIRECTION('ref_axis',(1.,0.,0.));
#1689=DIRECTION('',(0.,0.,1.));
#1690=DIRECTION('center_axis',(0.,0.,-1.));
#1691=DIRECTION('ref_axis',(1.,0.,0.));
#1692=DIRECTION('center_axis',(1.,-4.16333634234433E-16,0.));
#1693=DIRECTION('ref_axis',(-4.16333634234433E-16,-1.,0.));
#1694=DIRECTION('',(4.16333634234433E-16,1.,0.));
#1695=DIRECTION('',(0.,0.,-1.));
#1696=DIRECTION('',(-4.16333634234433E-16,-1.,0.));
#1697=DIRECTION('',(0.,0.,-1.));
#1698=DIRECTION('center_axis',(0.,0.,-1.));
#1699=DIRECTION('ref_axis',(0.707106781186546,0.707106781186549,0.));
#1700=DIRECTION('center_axis',(0.,0.,1.));
#1701=DIRECTION('ref_axis',(0.707106781186546,0.707106781186549,0.));
#1702=DIRECTION('center_axis',(0.,0.,-1.));
#1703=DIRECTION('ref_axis',(0.707106781186546,0.707106781186549,0.));
#1704=DIRECTION('',(0.,0.,-1.));
#1705=DIRECTION('center_axis',(-1.,0.,0.));
#1706=DIRECTION('ref_axis',(0.,1.,0.));
#1707=DIRECTION('',(0.,-1.,0.));
#1708=DIRECTION('',(0.,1.,0.));
#1709=DIRECTION('',(0.,0.,-1.));
#1710=DIRECTION('center_axis',(0.,0.,-1.));
#1711=DIRECTION('ref_axis',(-0.707106781186549,-0.707106781186546,0.));
#1712=DIRECTION('center_axis',(0.,0.,1.));
#1713=DIRECTION('ref_axis',(-0.707106781186549,-0.707106781186546,0.));
#1714=DIRECTION('center_axis',(0.,0.,-1.));
#1715=DIRECTION('ref_axis',(-0.707106781186549,-0.707106781186546,0.));
#1716=DIRECTION('center_axis',(0.,0.,1.));
#1717=DIRECTION('ref_axis',(1.,0.,0.));
#1718=DIRECTION('center_axis',(0.,0.,1.));
#1719=DIRECTION('ref_axis',(1.,0.,0.));
#1720=DIRECTION('center_axis',(-1.,0.,0.));
#1721=DIRECTION('ref_axis',(0.,-1.,0.));
#1722=DIRECTION('',(0.,1.,0.));
#1723=DIRECTION('',(0.,0.,1.));
#1724=DIRECTION('',(0.,-1.,0.));
#1725=DIRECTION('',(0.,0.,1.));
#1726=DIRECTION('center_axis',(0.,1.,0.));
#1727=DIRECTION('ref_axis',(-1.,0.,0.));
#1728=DIRECTION('',(1.,0.,0.));
#1729=DIRECTION('',(-1.,0.,0.));
#1730=DIRECTION('',(0.,0.,1.));
#1731=DIRECTION('center_axis',(1.,0.,0.));
#1732=DIRECTION('ref_axis',(0.,1.,0.));
#1733=DIRECTION('',(0.,-1.,0.));
#1734=DIRECTION('',(0.,1.,0.));
#1735=DIRECTION('',(0.,0.,1.));
#1736=DIRECTION('center_axis',(0.,-1.,0.));
#1737=DIRECTION('ref_axis',(1.,0.,0.));
#1738=DIRECTION('',(-1.,0.,0.));
#1739=DIRECTION('',(1.,0.,0.));
#1740=DIRECTION('center_axis',(0.,0.,1.));
#1741=DIRECTION('ref_axis',(1.,0.,0.));
#1742=DIRECTION('center_axis',(0.,0.,1.));
#1743=DIRECTION('ref_axis',(1.,0.,0.));
#1744=DIRECTION('center_axis',(1.,0.,0.));
#1745=DIRECTION('ref_axis',(0.,1.,0.));
#1746=DIRECTION('',(0.,-1.,0.));
#1747=DIRECTION('',(0.,0.,1.));
#1748=DIRECTION('',(0.,1.,0.));
#1749=DIRECTION('',(0.,0.,1.));
#1750=DIRECTION('center_axis',(0.,-1.,0.));
#1751=DIRECTION('ref_axis',(1.,0.,0.));
#1752=DIRECTION('',(-1.,0.,0.));
#1753=DIRECTION('',(1.,0.,0.));
#1754=DIRECTION('',(0.,0.,1.));
#1755=DIRECTION('center_axis',(-1.,0.,0.));
#1756=DIRECTION('ref_axis',(0.,-1.,0.));
#1757=DIRECTION('',(0.,1.,0.));
#1758=DIRECTION('',(0.,-1.,0.));
#1759=DIRECTION('',(0.,0.,1.));
#1760=DIRECTION('center_axis',(0.,1.,0.));
#1761=DIRECTION('ref_axis',(-1.,0.,0.));
#1762=DIRECTION('',(1.,0.,0.));
#1763=DIRECTION('',(-1.,0.,0.));
#1764=DIRECTION('center_axis',(0.,0.,1.));
#1765=DIRECTION('ref_axis',(1.,0.,0.));
#1766=DIRECTION('center_axis',(0.,0.,1.));
#1767=DIRECTION('ref_axis',(1.,0.,0.));
#1768=DIRECTION('center_axis',(0.,0.,1.));
#1769=DIRECTION('ref_axis',(1.,0.,0.));
#1770=DIRECTION('center_axis',(0.,0.,-1.));
#1771=DIRECTION('ref_axis',(1.,0.,0.));
#1772=DIRECTION('center_axis',(0.,-1.,0.));
#1773=DIRECTION('ref_axis',(-1.,0.,0.));
#1774=DIRECTION('center_axis',(0.,0.,1.));
#1775=DIRECTION('ref_axis',(1.,0.,0.));
#1776=DIRECTION('center_axis',(0.,0.,1.));
#1777=DIRECTION('ref_axis',(1.,0.,0.));
#1778=DIRECTION('',(0.,0.,-1.));
#1779=DIRECTION('center_axis',(0.,0.,1.));
#1780=DIRECTION('ref_axis',(1.,0.,0.));
#1781=DIRECTION('center_axis',(0.,0.,1.));
#1782=DIRECTION('ref_axis',(1.,0.,0.));
#1783=DIRECTION('center_axis',(0.,0.,1.));
#1784=DIRECTION('ref_axis',(1.,0.,0.));
#1785=DIRECTION('center_axis',(-1.,0.,0.));
#1786=DIRECTION('ref_axis',(0.,-1.,0.));
#1787=DIRECTION('',(0.,1.,0.));
#1788=DIRECTION('',(0.,0.,1.));
#1789=DIRECTION('',(0.,-1.,0.));
#1790=DIRECTION('',(0.,0.,1.));
#1791=DIRECTION('center_axis',(0.,1.,0.));
#1792=DIRECTION('ref_axis',(-1.,0.,0.));
#1793=DIRECTION('',(1.,0.,0.));
#1794=DIRECTION('',(-1.,0.,0.));
#1795=DIRECTION('',(0.,0.,1.));
#1796=DIRECTION('center_axis',(1.,0.,0.));
#1797=DIRECTION('ref_axis',(0.,1.,0.));
#1798=DIRECTION('',(0.,-1.,0.));
#1799=DIRECTION('',(0.,1.,0.));
#1800=DIRECTION('',(0.,0.,1.));
#1801=DIRECTION('center_axis',(0.,-1.,0.));
#1802=DIRECTION('ref_axis',(1.,0.,0.));
#1803=DIRECTION('',(-1.,0.,0.));
#1804=DIRECTION('',(1.,0.,0.));
#1805=DIRECTION('center_axis',(0.,0.,1.));
#1806=DIRECTION('ref_axis',(1.,0.,0.));
#1807=DIRECTION('center_axis',(0.,0.,1.));
#1808=DIRECTION('ref_axis',(1.,0.,0.));
#1809=DIRECTION('center_axis',(-1.,0.,0.));
#1810=DIRECTION('ref_axis',(0.,-1.,0.));
#1811=DIRECTION('',(0.,1.,0.));
#1812=DIRECTION('',(0.,0.,1.));
#1813=DIRECTION('',(0.,-1.,0.));
#1814=DIRECTION('',(0.,0.,1.));
#1815=DIRECTION('center_axis',(0.,1.,0.));
#1816=DIRECTION('ref_axis',(-1.,0.,0.));
#1817=DIRECTION('',(1.,0.,0.));
#1818=DIRECTION('',(-1.,0.,0.));
#1819=DIRECTION('',(0.,0.,1.));
#1820=DIRECTION('center_axis',(1.,0.,0.));
#1821=DIRECTION('ref_axis',(0.,1.,0.));
#1822=DIRECTION('',(0.,-1.,0.));
#1823=DIRECTION('',(0.,1.,0.));
#1824=DIRECTION('',(0.,0.,1.));
#1825=DIRECTION('center_axis',(0.,-1.,0.));
#1826=DIRECTION('ref_axis',(1.,0.,0.));
#1827=DIRECTION('',(-1.,0.,0.));
#1828=DIRECTION('',(1.,0.,0.));
#1829=DIRECTION('center_axis',(0.,0.,1.));
#1830=DIRECTION('ref_axis',(1.,0.,0.));
#1831=DIRECTION('center_axis',(0.,0.,1.));
#1832=DIRECTION('ref_axis',(1.,0.,0.));
#1833=CARTESIAN_POINT('',(0.,0.,0.));
#1834=CARTESIAN_POINT('Origin',(0.0999999999999981,21.3,0.));
#1835=CARTESIAN_POINT('',(0.0999999999999981,19.3,0.));
#1836=CARTESIAN_POINT('',(0.0999999999999981,21.3,0.));
#1837=CARTESIAN_POINT('',(0.0999999999999981,21.3,0.));
#1838=CARTESIAN_POINT('',(0.0999999999999979,19.3,-1.));
#1839=CARTESIAN_POINT('',(0.0999999999999981,19.3,0.));
#1840=CARTESIAN_POINT('',(0.0999999999999979,21.3,-1.));
#1841=CARTESIAN_POINT('',(0.0999999999999981,21.3,-1.));
#1842=CARTESIAN_POINT('',(0.0999999999999981,21.3,0.));
#1843=CARTESIAN_POINT('Origin',(1.1,20.3,0.));
#1844=CARTESIAN_POINT('',(2.1,21.3,0.));
#1845=CARTESIAN_POINT('Origin',(1.1,20.3,0.));
#1846=CARTESIAN_POINT('',(2.1,21.3,-1.));
#1847=CARTESIAN_POINT('Origin',(1.1,20.3,-1.));
#1848=CARTESIAN_POINT('',(2.1,21.3,0.));
#1849=CARTESIAN_POINT('Origin',(2.1,19.3,0.));
#1850=CARTESIAN_POINT('',(2.1,19.3,0.));
#1851=CARTESIAN_POINT('',(2.1,19.3,0.));
#1852=CARTESIAN_POINT('',(2.1,19.3,-1.));
#1853=CARTESIAN_POINT('',(2.1,19.3,-1.));
#1854=CARTESIAN_POINT('',(2.1,19.3,0.));
#1855=CARTESIAN_POINT('Origin',(1.1,20.3,0.));
#1856=CARTESIAN_POINT('Origin',(1.1,20.3,0.));
#1857=CARTESIAN_POINT('Origin',(1.1,20.3,-1.));
#1858=CARTESIAN_POINT('Origin',(4.10000000000001,21.3,0.));
#1859=CARTESIAN_POINT('',(4.10000000000001,19.3,0.));
#1860=CARTESIAN_POINT('',(4.10000000000001,21.3,0.));
#1861=CARTESIAN_POINT('',(4.10000000000001,21.3,0.));
#1862=CARTESIAN_POINT('',(4.10000000000001,19.3,-1.));
#1863=CARTESIAN_POINT('',(4.10000000000001,19.3,0.));
#1864=CARTESIAN_POINT('',(4.10000000000001,21.3,-1.));
#1865=CARTESIAN_POINT('',(4.10000000000001,21.3,-1.));
#1866=CARTESIAN_POINT('',(4.10000000000001,21.3,0.));
#1867=CARTESIAN_POINT('Origin',(5.1,20.3,0.));
#1868=CARTESIAN_POINT('',(6.10000000000001,21.3,0.));
#1869=CARTESIAN_POINT('Origin',(5.1,20.3,0.));
#1870=CARTESIAN_POINT('',(6.10000000000001,21.3,-1.));
#1871=CARTESIAN_POINT('Origin',(5.1,20.3,-1.));
#1872=CARTESIAN_POINT('',(6.10000000000001,21.3,0.));
#1873=CARTESIAN_POINT('Origin',(6.10000000000001,19.3,0.));
#1874=CARTESIAN_POINT('',(6.10000000000001,19.3,0.));
#1875=CARTESIAN_POINT('',(6.10000000000001,19.3,0.));
#1876=CARTESIAN_POINT('',(6.10000000000001,19.3,-1.));
#1877=CARTESIAN_POINT('',(6.10000000000001,19.3,-1.));
#1878=CARTESIAN_POINT('',(6.10000000000001,19.3,0.));
#1879=CARTESIAN_POINT('Origin',(5.10000000000001,20.3,0.));
#1880=CARTESIAN_POINT('Origin',(5.10000000000001,20.3,0.));
#1881=CARTESIAN_POINT('Origin',(5.10000000000001,20.3,-1.));
#1882=CARTESIAN_POINT('Origin',(2.1,0.5,0.));
#1883=CARTESIAN_POINT('',(2.1,2.5,0.));
#1884=CARTESIAN_POINT('',(2.1,0.5,0.));
#1885=CARTESIAN_POINT('',(2.1,2.5,0.));
#1886=CARTESIAN_POINT('',(2.1,2.5,-1.));
#1887=CARTESIAN_POINT('',(2.1,2.5,0.));
#1888=CARTESIAN_POINT('',(2.1,0.5,-1.));
#1889=CARTESIAN_POINT('',(2.1,2.5,-1.));
#1890=CARTESIAN_POINT('',(2.1,0.5,0.));
#1891=CARTESIAN_POINT('Origin',(1.1,1.5,0.));
#1892=CARTESIAN_POINT('',(0.100000000000005,0.5,0.));
#1893=CARTESIAN_POINT('Origin',(1.1,1.5,0.));
#1894=CARTESIAN_POINT('',(0.100000000000005,0.5,-1.));
#1895=CARTESIAN_POINT('Origin',(1.1,1.5,-1.));
#1896=CARTESIAN_POINT('',(0.100000000000005,0.5,0.));
#1897=CARTESIAN_POINT('Origin',(0.1,2.5,0.));
#1898=CARTESIAN_POINT('',(0.1,2.5,0.));
#1899=CARTESIAN_POINT('',(0.100000000000005,0.5,0.));
#1900=CARTESIAN_POINT('',(0.1,2.5,-1.));
#1901=CARTESIAN_POINT('',(0.100000000000005,0.5,-1.));
#1902=CARTESIAN_POINT('',(0.1,2.5,0.));
#1903=CARTESIAN_POINT('Origin',(1.1,1.5,0.));
#1904=CARTESIAN_POINT('Origin',(1.1,1.5,0.));
#1905=CARTESIAN_POINT('Origin',(1.1,1.5,-1.));
#1906=CARTESIAN_POINT('Origin',(10.7,0.5,0.));
#1907=CARTESIAN_POINT('',(10.7,2.5,0.));
#1908=CARTESIAN_POINT('',(10.7,0.499999999999996,0.));
#1909=CARTESIAN_POINT('',(10.7,0.5,0.));
#1910=CARTESIAN_POINT('',(10.7,2.5,-1.));
#1911=CARTESIAN_POINT('',(10.7,2.5,0.));
#1912=CARTESIAN_POINT('',(10.7,0.499999999999996,-1.));
#1913=CARTESIAN_POINT('',(10.7,0.5,-1.));
#1914=CARTESIAN_POINT('',(10.7,0.499999999999996,0.));
#1915=CARTESIAN_POINT('Origin',(9.7,1.5,0.));
#1916=CARTESIAN_POINT('',(8.7,0.5,0.));
#1917=CARTESIAN_POINT('Origin',(9.7,1.5,0.));
#1918=CARTESIAN_POINT('',(8.7,0.5,-1.));
#1919=CARTESIAN_POINT('Origin',(9.7,1.5,-1.));
#1920=CARTESIAN_POINT('',(8.7,0.5,0.));
#1921=CARTESIAN_POINT('Origin',(8.7,2.5,0.));
#1922=CARTESIAN_POINT('',(8.7,2.5,0.));
#1923=CARTESIAN_POINT('',(8.7,2.5,0.));
#1924=CARTESIAN_POINT('',(8.7,2.5,-1.));
#1925=CARTESIAN_POINT('',(8.7,2.5,-1.));
#1926=CARTESIAN_POINT('',(8.7,2.5,0.));
#1927=CARTESIAN_POINT('Origin',(9.7,1.5,0.));
#1928=CARTESIAN_POINT('Origin',(9.7,1.5,0.));
#1929=CARTESIAN_POINT('Origin',(9.7,1.5,-1.));
#1930=CARTESIAN_POINT('Origin',(10.8,0.,0.));
#1931=CARTESIAN_POINT('',(0.,0.,0.));
#1932=CARTESIAN_POINT('',(10.8,0.,0.));
#1933=CARTESIAN_POINT('',(0.,0.,0.));
#1934=CARTESIAN_POINT('',(0.,0.,-1.));
#1935=CARTESIAN_POINT('',(0.,0.,0.));
#1936=CARTESIAN_POINT('',(10.8,0.,-1.));
#1937=CARTESIAN_POINT('',(0.,0.,-1.));
#1938=CARTESIAN_POINT('',(10.8,0.,0.));
#1939=CARTESIAN_POINT('Origin',(10.8,21.8,0.));
#1940=CARTESIAN_POINT('',(10.8,21.8,0.));
#1941=CARTESIAN_POINT('',(10.8,0.,0.));
#1942=CARTESIAN_POINT('',(10.8,21.8,-1.));
#1943=CARTESIAN_POINT('',(10.8,0.,-1.));
#1944=CARTESIAN_POINT('',(10.8,21.8,0.));
#1945=CARTESIAN_POINT('Origin',(0.,21.8,0.));
#1946=CARTESIAN_POINT('',(0.,21.8,0.));
#1947=CARTESIAN_POINT('',(10.8,21.8,0.));
#1948=CARTESIAN_POINT('',(0.,21.8,-1.));
#1949=CARTESIAN_POINT('',(10.8,21.8,-1.));
#1950=CARTESIAN_POINT('',(0.,21.8,0.));
#1951=CARTESIAN_POINT('Origin',(0.,0.,0.));
#1952=CARTESIAN_POINT('',(0.,21.8,0.));
#1953=CARTESIAN_POINT('',(0.,21.8,-1.));
#1954=CARTESIAN_POINT('Origin',(5.4,10.9,0.));
#1955=CARTESIAN_POINT('Origin',(5.4,10.9,-1.));
#1956=CARTESIAN_POINT('Origin',(9.7,1.5,-0.1));
#1957=CARTESIAN_POINT('',(9.2,1.5,-0.9));
#1958=CARTESIAN_POINT('Origin',(9.7,1.5,-0.9));
#1959=CARTESIAN_POINT('',(9.2,1.5,-0.1));
#1960=CARTESIAN_POINT('',(9.2,1.5,-0.1));
#1961=CARTESIAN_POINT('Origin',(9.7,1.5,-0.1));
#1962=CARTESIAN_POINT('Origin',(8.7,0.5,-0.1));
#1963=CARTESIAN_POINT('',(8.7,2.5,-0.1));
#1964=CARTESIAN_POINT('',(8.7,0.5,-0.1));
#1965=CARTESIAN_POINT('',(8.7,2.5,-0.1));
#1966=CARTESIAN_POINT('',(8.7,2.5,-0.9));
#1967=CARTESIAN_POINT('',(8.7,2.5,-0.1));
#1968=CARTESIAN_POINT('',(8.7,0.5,-0.9));
#1969=CARTESIAN_POINT('',(8.7,2.5,-0.9));
#1970=CARTESIAN_POINT('',(8.7,0.5,-0.1));
#1971=CARTESIAN_POINT('Origin',(9.7,1.5,-0.1));
#1972=CARTESIAN_POINT('',(10.7,0.499999999999996,-0.1));
#1973=CARTESIAN_POINT('Origin',(9.7,1.5,-0.1));
#1974=CARTESIAN_POINT('',(10.7,0.499999999999996,-0.9));
#1975=CARTESIAN_POINT('Origin',(9.7,1.5,-0.9));
#1976=CARTESIAN_POINT('',(10.7,0.499999999999996,-0.1));
#1977=CARTESIAN_POINT('Origin',(10.7,2.5,-0.1));
#1978=CARTESIAN_POINT('',(10.7,2.5,-0.1));
#1979=CARTESIAN_POINT('',(10.7,0.5,-0.1));
#1980=CARTESIAN_POINT('',(10.7,2.5,-0.9));
#1981=CARTESIAN_POINT('',(10.7,0.5,-0.9));
#1982=CARTESIAN_POINT('',(10.7,2.5,-0.1));
#1983=CARTESIAN_POINT('Origin',(9.7,1.5,-0.1));
#1984=CARTESIAN_POINT('Origin',(9.7,1.5,-0.1));
#1985=CARTESIAN_POINT('Origin',(9.7,1.5,-0.9));
#1986=CARTESIAN_POINT('Origin',(9.7,1.5,-0.1));
#1987=CARTESIAN_POINT('Origin',(9.7,1.5,-0.9));
#1988=CARTESIAN_POINT('Origin',(5.10000000000001,20.3,-0.1));
#1989=CARTESIAN_POINT('',(4.60000000000001,20.3,-0.9));
#1990=CARTESIAN_POINT('Origin',(5.10000000000001,20.3,-0.9));
#1991=CARTESIAN_POINT('',(4.60000000000001,20.3,-0.1));
#1992=CARTESIAN_POINT('',(4.60000000000001,20.3,-0.1));
#1993=CARTESIAN_POINT('Origin',(5.10000000000001,20.3,-0.1));
#1994=CARTESIAN_POINT('Origin',(6.10000000000001,21.3,-0.1));
#1995=CARTESIAN_POINT('',(6.10000000000001,19.3,-0.1));
#1996=CARTESIAN_POINT('',(6.10000000000001,21.3,-0.1));
#1997=CARTESIAN_POINT('',(6.10000000000001,19.3,-0.1));
#1998=CARTESIAN_POINT('',(6.10000000000001,19.3,-0.9));
#1999=CARTESIAN_POINT('',(6.10000000000001,19.3,-0.1));
#2000=CARTESIAN_POINT('',(6.10000000000001,21.3,-0.9));
#2001=CARTESIAN_POINT('',(6.10000000000001,19.3,-0.9));
#2002=CARTESIAN_POINT('',(6.10000000000001,21.3,-0.1));
#2003=CARTESIAN_POINT('Origin',(5.1,20.3,-0.1));
#2004=CARTESIAN_POINT('',(4.10000000000001,21.3,-0.1));
#2005=CARTESIAN_POINT('Origin',(5.1,20.3,-0.1));
#2006=CARTESIAN_POINT('',(4.10000000000001,21.3,-0.9));
#2007=CARTESIAN_POINT('Origin',(5.1,20.3,-0.9));
#2008=CARTESIAN_POINT('',(4.10000000000001,21.3,-0.1));
#2009=CARTESIAN_POINT('Origin',(4.10000000000001,19.3,-0.1));
#2010=CARTESIAN_POINT('',(4.10000000000001,19.3,-0.1));
#2011=CARTESIAN_POINT('',(4.10000000000001,21.3,-0.1));
#2012=CARTESIAN_POINT('',(4.10000000000001,19.3,-0.9));
#2013=CARTESIAN_POINT('',(4.10000000000001,21.3,-0.9));
#2014=CARTESIAN_POINT('',(4.10000000000001,19.3,-0.1));
#2015=CARTESIAN_POINT('Origin',(5.10000000000001,20.3,-0.1));
#2016=CARTESIAN_POINT('Origin',(5.10000000000001,20.3,-0.1));
#2017=CARTESIAN_POINT('Origin',(5.10000000000001,20.3,-0.9));
#2018=CARTESIAN_POINT('Origin',(5.10000000000001,20.3,-0.1));
#2019=CARTESIAN_POINT('Origin',(5.10000000000001,20.3,-0.9));
#2020=CARTESIAN_POINT('Origin',(1.1,1.5,-0.1));
#2021=CARTESIAN_POINT('',(0.6,1.5,-0.9));
#2022=CARTESIAN_POINT('Origin',(1.1,1.5,-0.9));
#2023=CARTESIAN_POINT('',(0.6,1.5,-0.1));
#2024=CARTESIAN_POINT('',(0.6,1.5,-0.1));
#2025=CARTESIAN_POINT('Origin',(1.1,1.5,-0.1));
#2026=CARTESIAN_POINT('Origin',(0.100000000000005,0.5,-0.1));
#2027=CARTESIAN_POINT('',(0.100000000000005,0.5,-0.1));
#2028=CARTESIAN_POINT('',(0.1,2.5,-0.1));
#2029=CARTESIAN_POINT('',(0.100000000000005,0.5,-0.1));
#2030=CARTESIAN_POINT('',(0.1,2.5,-0.9));
#2031=CARTESIAN_POINT('',(0.1,2.5,-0.1));
#2032=CARTESIAN_POINT('',(0.100000000000005,0.5,-0.9));
#2033=CARTESIAN_POINT('',(0.100000000000005,0.5,-0.9));
#2034=CARTESIAN_POINT('',(0.100000000000005,0.5,-0.1));
#2035=CARTESIAN_POINT('Origin',(1.1,1.5,-0.1));
#2036=CARTESIAN_POINT('',(2.1,0.5,-0.1));
#2037=CARTESIAN_POINT('Origin',(1.1,1.5,-0.1));
#2038=CARTESIAN_POINT('',(2.1,0.5,-0.9));
#2039=CARTESIAN_POINT('Origin',(1.1,1.5,-0.9));
#2040=CARTESIAN_POINT('',(2.1,0.5,-0.1));
#2041=CARTESIAN_POINT('Origin',(2.1,2.5,-0.1));
#2042=CARTESIAN_POINT('',(2.1,2.5,-0.1));
#2043=CARTESIAN_POINT('',(2.1,2.5,-0.1));
#2044=CARTESIAN_POINT('',(2.1,2.5,-0.9));
#2045=CARTESIAN_POINT('',(2.1,2.5,-0.9));
#2046=CARTESIAN_POINT('',(2.1,2.5,-0.1));
#2047=CARTESIAN_POINT('Origin',(1.1,1.5,-0.1));
#2048=CARTESIAN_POINT('Origin',(1.1,1.5,-0.1));
#2049=CARTESIAN_POINT('Origin',(1.1,1.5,-0.9));
#2050=CARTESIAN_POINT('Origin',(1.1,1.5,-0.1));
#2051=CARTESIAN_POINT('Origin',(1.1,1.5,-0.9));
#2052=CARTESIAN_POINT('Origin',(1.1,20.3,-0.1));
#2053=CARTESIAN_POINT('',(0.6,20.3,-0.9));
#2054=CARTESIAN_POINT('Origin',(1.1,20.3,-0.9));
#2055=CARTESIAN_POINT('',(0.6,20.3,-0.1));
#2056=CARTESIAN_POINT('',(0.6,20.3,-0.1));
#2057=CARTESIAN_POINT('Origin',(1.1,20.3,-0.1));
#2058=CARTESIAN_POINT('Origin',(2.1,21.3,-0.1));
#2059=CARTESIAN_POINT('',(2.1,19.3,-0.1));
#2060=CARTESIAN_POINT('',(2.1,21.3,-0.1));
#2061=CARTESIAN_POINT('',(2.1,19.3,-0.1));
#2062=CARTESIAN_POINT('',(2.1,19.3,-0.9));
#2063=CARTESIAN_POINT('',(2.1,19.3,-0.1));
#2064=CARTESIAN_POINT('',(2.1,21.3,-0.9));
#2065=CARTESIAN_POINT('',(2.1,19.3,-0.9));
#2066=CARTESIAN_POINT('',(2.1,21.3,-0.1));
#2067=CARTESIAN_POINT('Origin',(1.1,20.3,-0.1));
#2068=CARTESIAN_POINT('',(0.0999999999999981,21.3,-0.1));
#2069=CARTESIAN_POINT('Origin',(1.1,20.3,-0.1));
#2070=CARTESIAN_POINT('',(0.0999999999999981,21.3,-0.9));
#2071=CARTESIAN_POINT('Origin',(1.1,20.3,-0.9));
#2072=CARTESIAN_POINT('',(0.0999999999999981,21.3,-0.1));
#2073=CARTESIAN_POINT('Origin',(0.0999999999999981,19.3,-0.1));
#2074=CARTESIAN_POINT('',(0.0999999999999981,19.3,-0.1));
#2075=CARTESIAN_POINT('',(0.0999999999999981,21.3,-0.1));
#2076=CARTESIAN_POINT('',(0.0999999999999981,19.3,-0.9));
#2077=CARTESIAN_POINT('',(0.0999999999999981,21.3,-0.9));
#2078=CARTESIAN_POINT('',(0.0999999999999981,19.3,-0.1));
#2079=CARTESIAN_POINT('Origin',(1.1,20.3,-0.1));
#2080=CARTESIAN_POINT('Origin',(1.1,20.3,-0.1));
#2081=CARTESIAN_POINT('Origin',(1.1,20.3,-0.9));
#2082=CARTESIAN_POINT('Origin',(1.1,20.3,-0.1));
#2083=CARTESIAN_POINT('Origin',(1.1,20.3,-0.9));
#2084=CARTESIAN_POINT('Origin',(1.6,17.8,0.));
#2085=CARTESIAN_POINT('',(1.6,16.2,0.));
#2086=CARTESIAN_POINT('',(1.6,17.8,0.));
#2087=CARTESIAN_POINT('',(1.6,16.2,0.));
#2088=CARTESIAN_POINT('',(1.6,16.2,1.6));
#2089=CARTESIAN_POINT('',(1.6,16.2,0.));
#2090=CARTESIAN_POINT('',(1.6,17.8,1.6));
#2091=CARTESIAN_POINT('',(1.6,16.2,1.6));
#2092=CARTESIAN_POINT('',(1.6,17.8,0.));
#2093=CARTESIAN_POINT('Origin',(4.8,17.8,0.));
#2094=CARTESIAN_POINT('',(4.8,17.8,0.));
#2095=CARTESIAN_POINT('',(1.6,17.8,0.));
#2096=CARTESIAN_POINT('',(4.8,17.8,1.6));
#2097=CARTESIAN_POINT('',(1.6,17.8,1.6));
#2098=CARTESIAN_POINT('',(4.8,17.8,0.));
#2099=CARTESIAN_POINT('Origin',(4.8,16.2,0.));
#2100=CARTESIAN_POINT('',(4.8,16.2,0.));
#2101=CARTESIAN_POINT('',(4.8,17.8,0.));
#2102=CARTESIAN_POINT('',(4.8,16.2,1.6));
#2103=CARTESIAN_POINT('',(4.8,17.8,1.6));
#2104=CARTESIAN_POINT('',(4.8,16.2,0.));
#2105=CARTESIAN_POINT('Origin',(1.6,16.2,0.));
#2106=CARTESIAN_POINT('',(4.8,16.2,0.));
#2107=CARTESIAN_POINT('',(4.8,16.2,1.6));
#2108=CARTESIAN_POINT('Origin',(3.2,17.,1.6));
#2109=CARTESIAN_POINT('Origin',(3.2,17.,0.));
#2110=CARTESIAN_POINT('Origin',(6.7,4.,0.));
#2111=CARTESIAN_POINT('',(6.7,5.6,0.));
#2112=CARTESIAN_POINT('',(6.7,4.,0.));
#2113=CARTESIAN_POINT('',(6.7,5.6,0.));
#2114=CARTESIAN_POINT('',(6.7,5.6,1.6));
#2115=CARTESIAN_POINT('',(6.7,5.6,0.));
#2116=CARTESIAN_POINT('',(6.7,4.,1.6));
#2117=CARTESIAN_POINT('',(6.7,5.6,1.6));
#2118=CARTESIAN_POINT('',(6.7,4.,0.));
#2119=CARTESIAN_POINT('Origin',(3.5,4.,0.));
#2120=CARTESIAN_POINT('',(3.5,4.,0.));
#2121=CARTESIAN_POINT('',(6.7,4.,0.));
#2122=CARTESIAN_POINT('',(3.5,4.,1.6));
#2123=CARTESIAN_POINT('',(6.7,4.,1.6));
#2124=CARTESIAN_POINT('',(3.5,4.,0.));
#2125=CARTESIAN_POINT('Origin',(3.5,5.6,0.));
#2126=CARTESIAN_POINT('',(3.5,5.6,0.));
#2127=CARTESIAN_POINT('',(3.5,4.,0.));
#2128=CARTESIAN_POINT('',(3.5,5.6,1.6));
#2129=CARTESIAN_POINT('',(3.5,4.,1.6));
#2130=CARTESIAN_POINT('',(3.5,5.6,0.));
#2131=CARTESIAN_POINT('Origin',(6.7,5.6,0.));
#2132=CARTESIAN_POINT('',(3.5,5.6,0.));
#2133=CARTESIAN_POINT('',(3.5,5.6,1.6));
#2134=CARTESIAN_POINT('Origin',(5.1,4.8,1.6));
#2135=CARTESIAN_POINT('Origin',(5.1,4.8,0.));
#2136=CARTESIAN_POINT('Origin',(3.8,9.2,3.2));
#2137=CARTESIAN_POINT('',(2.,9.2,3.4));
#2138=CARTESIAN_POINT('Origin',(3.8,9.2,3.4));
#2139=CARTESIAN_POINT('',(1.8,9.2,3.2));
#2140=CARTESIAN_POINT('Origin',(2.,9.2,3.2));
#2141=CARTESIAN_POINT('Origin',(3.8,9.2,3.2));
#2142=CARTESIAN_POINT('Origin',(3.8,9.2,0.));
#2143=CARTESIAN_POINT('',(1.8,9.2,0.));
#2144=CARTESIAN_POINT('',(1.8,9.2,0.));
#2145=CARTESIAN_POINT('Origin',(3.8,9.2,0.));
#2146=CARTESIAN_POINT('Origin',(3.8,9.2,3.4));
#2147=CARTESIAN_POINT('Origin',(3.8,9.2,0.));
#2148=CARTESIAN_POINT('Origin',(2.5,15.2,0.));
#2149=CARTESIAN_POINT('',(2.5,12.7,0.));
#2150=CARTESIAN_POINT('',(2.5,15.2,0.));
#2151=CARTESIAN_POINT('',(2.5,12.7,0.));
#2152=CARTESIAN_POINT('',(2.5,12.7,1.));
#2153=CARTESIAN_POINT('',(2.5,12.7,0.));
#2154=CARTESIAN_POINT('',(2.5,15.2,1.));
#2155=CARTESIAN_POINT('',(2.5,12.7,1.));
#2156=CARTESIAN_POINT('',(2.5,15.2,0.));
#2157=CARTESIAN_POINT('Origin',(3.7,15.2,0.));
#2158=CARTESIAN_POINT('',(3.7,15.2,0.));
#2159=CARTESIAN_POINT('',(2.5,15.2,0.));
#2160=CARTESIAN_POINT('',(3.7,15.2,1.));
#2161=CARTESIAN_POINT('',(2.5,15.2,1.));
#2162=CARTESIAN_POINT('',(3.7,15.2,0.));
#2163=CARTESIAN_POINT('Origin',(3.7,12.7,0.));
#2164=CARTESIAN_POINT('',(3.7,12.7,0.));
#2165=CARTESIAN_POINT('',(3.7,15.2,0.));
#2166=CARTESIAN_POINT('',(3.7,12.7,1.));
#2167=CARTESIAN_POINT('',(3.7,15.2,1.));
#2168=CARTESIAN_POINT('',(3.7,12.7,0.));
#2169=CARTESIAN_POINT('Origin',(2.5,12.7,0.));
#2170=CARTESIAN_POINT('',(3.7,12.7,0.));
#2171=CARTESIAN_POINT('',(3.7,12.7,1.));
#2172=CARTESIAN_POINT('Origin',(3.1,13.95,1.));
#2173=CARTESIAN_POINT('Origin',(3.1,13.95,0.));
#2174=CARTESIAN_POINT('Origin',(7.3,11.,0.));
#2175=CARTESIAN_POINT('',(7.3,7.,0.));
#2176=CARTESIAN_POINT('',(7.3,11.,0.));
#2177=CARTESIAN_POINT('',(7.3,7.,0.));
#2178=CARTESIAN_POINT('',(7.3,7.,2.5));
#2179=CARTESIAN_POINT('',(7.3,7.,0.));
#2180=CARTESIAN_POINT('',(7.3,11.,2.5));
#2181=CARTESIAN_POINT('',(7.3,7.,2.5));
#2182=CARTESIAN_POINT('',(7.3,11.,0.));
#2183=CARTESIAN_POINT('Origin',(9.8,11.,0.));
#2184=CARTESIAN_POINT('',(9.8,11.,0.));
#2185=CARTESIAN_POINT('',(7.3,11.,0.));
#2186=CARTESIAN_POINT('',(9.8,11.,2.5));
#2187=CARTESIAN_POINT('',(7.3,11.,2.5));
#2188=CARTESIAN_POINT('',(9.8,11.,0.));
#2189=CARTESIAN_POINT('Origin',(9.8,7.,0.));
#2190=CARTESIAN_POINT('',(9.8,7.,0.));
#2191=CARTESIAN_POINT('',(9.8,11.,0.));
#2192=CARTESIAN_POINT('',(9.8,7.,2.5));
#2193=CARTESIAN_POINT('',(9.8,11.,2.5));
#2194=CARTESIAN_POINT('',(9.8,7.,0.));
#2195=CARTESIAN_POINT('Origin',(7.3,7.,0.));
#2196=CARTESIAN_POINT('',(9.8,7.,0.));
#2197=CARTESIAN_POINT('',(9.8,7.,2.5));
#2198=CARTESIAN_POINT('Origin',(8.55,9.,2.5));
#2199=CARTESIAN_POINT('Origin',(8.55,9.,0.));
#2200=UNCERTAINTY_MEASURE_WITH_UNIT(LENGTH_MEASURE(0.01),#2204,
'DISTANCE_ACCURACY_VALUE',
'Maximum model space distance between geometric entities at asserted c
onnectivities');
#2201=UNCERTAINTY_MEASURE_WITH_UNIT(LENGTH_MEASURE(0.01),#2204,
'DISTANCE_ACCURACY_VALUE',
'Maximum model space distance between geometric entities at asserted c
onnectivities');
#2202=(
GEOMETRIC_REPRESENTATION_CONTEXT(3)
GLOBAL_UNCERTAINTY_ASSIGNED_CONTEXT((#2200))
GLOBAL_UNIT_ASSIGNED_CONTEXT((#2204,#2206,#2207))
REPRESENTATION_CONTEXT('','3D')
);
#2203=(
GEOMETRIC_REPRESENTATION_CONTEXT(3)
GLOBAL_UNCERTAINTY_ASSIGNED_CONTEXT((#2201))
GLOBAL_UNIT_ASSIGNED_CONTEXT((#2204,#2206,#2207))
REPRESENTATION_CONTEXT('','3D')
);
#2204=(
LENGTH_UNIT()
NAMED_UNIT(*)
SI_UNIT(.MILLI.,.METRE.)
);
#2205=(
LENGTH_UNIT()
NAMED_UNIT(*)
SI_UNIT($,.METRE.)
);
#2206=(
NAMED_UNIT(*)
PLANE_ANGLE_UNIT()
SI_UNIT($,.RADIAN.)
);
#2207=(
NAMED_UNIT(*)
SI_UNIT($,.STERADIAN.)
SOLID_ANGLE_UNIT()
);
#2208=SHAPE_DEFINITION_REPRESENTATION(#2209,#2210);
#2209=PRODUCT_DEFINITION_SHAPE('',$,#2212);
#2210=SHAPE_REPRESENTATION('',(#1335),#2202);
#2211=PRODUCT_DEFINITION_CONTEXT('part definition',#2216,'design');
#2212=PRODUCT_DEFINITION('\X2\043F043E0432044B04480430044E044904380439\X0\ 
\X2\043C043E04340443043B044C\X0\ 5\X2\0432\X0\',
'\X2\043F043E0432044B04480430044E044904380439\X0\ \X2\043C043E04340443043B044C\X0\ 
5\X2\0432\X0\ v4',#2213,#2211);
#2213=PRODUCT_DEFINITION_FORMATION('',$,#2218);
#2214=PRODUCT_RELATED_PRODUCT_CATEGORY(
'\X2\043F043E0432044B04480430044E044904380439\X0\ \X2\043C043E04340443043B044C\X0\ 
5\X2\0432\X0\ v4','\X2\043F043E0432044B04480430044E044904380439\X0\ \X2\043C043E04340443043B044C\X0\ 
5\X2\0432\X0\ v4',(#2218));
#2215=APPLICATION_PROTOCOL_DEFINITION('international standard',
'automotive_design',2009,#2216);
#2216=APPLICATION_CONTEXT(
'Core Data for Automotive Mechanical Design Process');
#2217=PRODUCT_CONTEXT('part definition',#2216,'mechanical');
#2218=PRODUCT('\X2\043F043E0432044B04480430044E044904380439\X0\ \X2\043C043E04340443043B044C\X0\ 
5\X2\0432\X0\','\X2\043F043E0432044B04480430044E044904380439\X0\ \X2\043C043E04340443043B044C\X0\ 
5\X2\0432\X0\ v4',$,(#2217));
#2219=PRESENTATION_STYLE_ASSIGNMENT((#2224));
#2220=PRESENTATION_STYLE_ASSIGNMENT((#2225));
#2221=PRESENTATION_STYLE_ASSIGNMENT((#2226));
#2222=PRESENTATION_STYLE_ASSIGNMENT((#2227));
#2223=PRESENTATION_STYLE_ASSIGNMENT((#2228));
#2224=SURFACE_STYLE_USAGE(.BOTH.,#2229);
#2225=SURFACE_STYLE_USAGE(.BOTH.,#2230);
#2226=SURFACE_STYLE_USAGE(.BOTH.,#2231);
#2227=SURFACE_STYLE_USAGE(.BOTH.,#2232);
#2228=SURFACE_STYLE_USAGE(.BOTH.,#2233);
#2229=SURFACE_SIDE_STYLE('',(#2234));
#2230=SURFACE_SIDE_STYLE('',(#2235));
#2231=SURFACE_SIDE_STYLE('',(#2236));
#2232=SURFACE_SIDE_STYLE('',(#2237));
#2233=SURFACE_SIDE_STYLE('',(#2238));
#2234=SURFACE_STYLE_FILL_AREA(#2239);
#2235=SURFACE_STYLE_FILL_AREA(#2240);
#2236=SURFACE_STYLE_FILL_AREA(#2241);
#2237=SURFACE_STYLE_FILL_AREA(#2242);
#2238=SURFACE_STYLE_FILL_AREA(#2243);
#2239=FILL_AREA_STYLE('Steel - Satin',(#2244));
#2240=FILL_AREA_STYLE('ABS (White)',(#2245));
#2241=FILL_AREA_STYLE('Aluminum - Polished',(#2246));
#2242=FILL_AREA_STYLE('ABS (White)',(#2247));
#2243=FILL_AREA_STYLE('ABS (White)',(#2248));
#2244=FILL_AREA_STYLE_COLOUR('Steel - Satin',#2249);
#2245=FILL_AREA_STYLE_COLOUR('ABS (White)',#2250);
#2246=FILL_AREA_STYLE_COLOUR('Aluminum - Polished',#2251);
#2247=FILL_AREA_STYLE_COLOUR('ABS (White)',#2252);
#2248=FILL_AREA_STYLE_COLOUR('ABS (White)',#2253);
#2249=COLOUR_RGB('Steel - Satin',0.627450980392157,0.627450980392157,0.627450980392157);
#2250=COLOUR_RGB('ABS (White)',0.0784313725490196,0.0784313725490196,0.0392156862745098);
#2251=COLOUR_RGB('Aluminum - Polished',0.96078431372549,0.96078431372549,
0.964705882352941);
#2252=COLOUR_RGB('ABS (White)',0.619607843137255,0.384313725490196,0.0941176470588235);
#2253=COLOUR_RGB('ABS (White)',0.,0.,0.);
ENDSEC;
END-ISO-10303-21;
